<?xml version="1.0" encoding="UTF-8" standalone="no"?><svg xmlns="http://www.w3.org/2000/svg" xmlns:xlink="http://www.w3.org/1999/xlink" contentScriptType="application/ecmascript" contentStyleType="text/css" height="406px" preserveAspectRatio="none" style="width:681px;height:406px;" version="1.1" viewBox="0 0 681 406" width="681px" zoomAndPan="magnify"><defs><filter height="300%" id="f1iqrw3px5tryk" width="300%" x="-1" y="-1"><feGaussianBlur result="blurOut" stdDeviation="2.0"/><feColorMatrix in="blurOut" result="blurOut2" type="matrix" values="0 0 0 0 0 0 0 0 0 0 0 0 0 0 0 0 0 0 .4 0"/><feOffset dx="4.0" dy="4.0" in="blurOut2" result="blurOut3"/><feBlend in="SourceGraphic" in2="blurOut3" mode="normal"/></filter></defs><g><text fill="#000000" font-family="sans-serif" font-size="18" lengthAdjust="spacingAndGlyphs" textLength="49" x="320" y="18.6855">Model</text><!--class ComputationTask--><rect fill="#FEFECE" filter="url(#f1iqrw3px5tryk)" height="25.0938" id="ComputationTask" style="stroke: #A80036; stroke-width: 1.5;" width="104" x="6" y="115.6406"/><text fill="#000000" font-family="sans-serif" font-size="12" lengthAdjust="spacingAndGlyphs" textLength="98" x="9" y="133.0977">ComputationTask</text><!--class ComputationApplication--><rect fill="#FEFECE" filter="url(#f1iqrw3px5tryk)" height="25.0938" id="ComputationApplication" style="stroke: #A80036; stroke-width: 1.5;" width="137" x="98.5" y="285.6406"/><text fill="#000000" font-family="sans-serif" font-size="12" lengthAdjust="spacingAndGlyphs" textLength="131" x="101.5" y="303.0977">ComputationApplication</text><!--class ComputationInput--><rect fill="#FEFECE" filter="url(#f1iqrw3px5tryk)" height="25.0938" id="ComputationInput" style="stroke: #A80036; stroke-width: 1.5;" width="104" x="111" y="200.6406"/><text fill="#000000" font-family="sans-serif" font-size="12" lengthAdjust="spacingAndGlyphs" textLength="98" x="114" y="218.0977">ComputationInput</text><!--class ComputationStep--><rect fill="#FEFECE" filter="url(#f1iqrw3px5tryk)" height="25.0938" id="ComputationStep" style="stroke: #A80036; stroke-width: 1.5;" width="102" x="250" y="200.6406"/><text fill="#000000" font-family="sans-serif" font-size="12" lengthAdjust="spacingAndGlyphs" textLength="96" x="253" y="218.0977">ComputationStep</text><!--class ComputationStepPackage--><rect fill="#FEFECE" filter="url(#f1iqrw3px5tryk)" height="25.0938" id="ComputationStepPackage" style="stroke: #A80036; stroke-width: 1.5;" width="150" x="216" y="115.6406"/><text fill="#000000" font-family="sans-serif" font-size="12" lengthAdjust="spacingAndGlyphs" textLength="144" x="219" y="133.0977">ComputationStepPackage</text><!--class ComputationStepParam--><rect fill="#FEFECE" filter="url(#f1iqrw3px5tryk)" height="25.0938" id="ComputationStepParam" style="stroke: #A80036; stroke-width: 1.5;" width="139" x="162.5" y="370.6406"/><text fill="#000000" font-family="sans-serif" font-size="12" lengthAdjust="spacingAndGlyphs" textLength="133" x="165.5" y="388.0977">ComputationStepParam</text><!--class ComputationRunnable--><rect fill="#FEFECE" filter="url(#f1iqrw3px5tryk)" height="25.0938" id="ComputationRunnable" style="stroke: #A80036; stroke-width: 1.5;" width="131" x="401.5" y="115.6406"/><text fill="#000000" font-family="sans-serif" font-size="12" lengthAdjust="spacingAndGlyphs" textLength="125" x="404.5" y="133.0977">ComputationRunnable</text><!--class ComputationTopic--><rect fill="#FEFECE" filter="url(#f1iqrw3px5tryk)" height="25.0938" id="ComputationTopic" style="stroke: #A80036; stroke-width: 1.5;" width="107" x="413.5" y="200.6406"/><text fill="#000000" font-family="sans-serif" font-size="12" lengthAdjust="spacingAndGlyphs" textLength="101" x="416.5" y="218.0977">ComputationTopic</text><!--class Computation--><rect fill="#FEFECE" filter="url(#f1iqrw3px5tryk)" height="25.0938" id="Computation" style="stroke: #A80036; stroke-width: 1.5;" width="77" x="188.5" y="30.6406"/><text fill="#000000" font-family="sans-serif" font-size="12" lengthAdjust="spacingAndGlyphs" textLength="71" x="191.5" y="48.0977">Computation</text><!--class Machine--><rect fill="#FEFECE" filter="url(#f1iqrw3px5tryk)" height="25.0938" id="Machine" style="stroke: #A80036; stroke-width: 1.5;" width="52" x="587" y="30.6406"/><text fill="#000000" font-family="sans-serif" font-size="12" lengthAdjust="spacingAndGlyphs" textLength="46" x="590" y="48.0977">Machine</text><!--class MachineMetrics--><rect fill="#FEFECE" filter="url(#f1iqrw3px5tryk)" height="25.0938" id="MachineMetrics" style="stroke: #A80036; stroke-width: 1.5;" width="91" x="567.5" y="115.6406"/><text fill="#000000" font-family="sans-serif" font-size="12" lengthAdjust="spacingAndGlyphs" textLength="85" x="570.5" y="133.0977">MachineMetrics</text><!--class MachineMetricValue--><rect fill="#FEFECE" filter="url(#f1iqrw3px5tryk)" height="25.0938" id="MachineMetricValue" style="stroke: #A80036; stroke-width: 1.5;" width="115" x="555.5" y="200.6406"/><text fill="#000000" font-family="sans-serif" font-size="12" lengthAdjust="spacingAndGlyphs" textLength="109" x="558.5" y="218.0977">MachineMetricValue</text><!--link ComputationTask to ComputationApplication--><path d="M63.5966,153.7046 C68.9918,174.0956 78.4961,203.2726 93,225.6406 C108.939,250.2226 134.826,272.6526 151.374,285.5996 " fill="none" id="ComputationTask-ComputationApplication" style="stroke: #A80036; stroke-width: 1.0;"/><polygon fill="#A80036" points="60.4441,140.9076,57.9949,147.6901,63.3136,152.5595,65.7628,145.7771,60.4441,140.9076" style="stroke: #A80036; stroke-width: 1.0;"/><!--link ComputationTask to ComputationInput--><path d="M82.9764,148.8836 C103.2871,164.9386 131.261,187.0516 148.186,200.4306 " fill="none" id="ComputationTask-ComputationInput" style="stroke: #A80036; stroke-width: 1.0;"/><polygon fill="#FFFFFF" points="72.5998,140.6816,74.8263,147.5404,82.0138,148.1232,79.7873,141.2644,72.5998,140.6816" style="stroke: #A80036; stroke-width: 1.0;"/><!--link ComputationApplication to ComputationStepParam--><path d="M184.237,321.1512 C196.624,336.9677 212.837,357.6709 222.829,370.4303 " fill="none" id="ComputationApplication-ComputationStepParam" style="stroke: #A80036; stroke-width: 1.0;"/><polygon fill="#FFFFFF" points="176.038,310.6814,176.588,317.8715,183.4365,320.1293,182.8865,312.9392,176.038,310.6814" style="stroke: #A80036; stroke-width: 1.0;"/><text fill="#000000" font-family="sans-serif" font-size="13" lengthAdjust="spacingAndGlyphs" textLength="20" x="195.2804" y="359.8215">0..*</text><!--link ComputationInput to ComputationApplication--><path d="M163.556,225.6816 C164.239,239.8486 165.402,263.9886 166.186,280.2456 " fill="none" id="ComputationInput-ComputationApplication" style="stroke: #A80036; stroke-width: 1.0; stroke-dasharray: 7.0,7.0;"/><polygon fill="#A80036" points="166.436,285.4306,169.9968,276.248,166.1946,280.4365,162.0061,276.6343,166.436,285.4306" style="stroke: #A80036; stroke-width: 1.0;"/><!--link ComputationStepPackage to ComputationStep--><path d="M293.991,153.9626 C295.845,169.3526 298.141,188.4146 299.589,200.4306 " fill="none" id="ComputationStepPackage-ComputationStep" style="stroke: #A80036; stroke-width: 1.0;"/><polygon fill="#A80036" points="292.39,140.6816,289.1367,147.1172,293.826,152.5954,297.0792,146.1599,292.39,140.6816" style="stroke: #A80036; stroke-width: 1.0;"/><text fill="#000000" font-family="sans-serif" font-size="13" lengthAdjust="spacingAndGlyphs" textLength="20" x="275.0959" y="189.8219">1..*</text><!--link ComputationStep to ComputationStepParam--><path d="M291.204,237.9926 C276.173,274.5886 247.987,343.2165 236.776,370.5125 " fill="none" id="ComputationStep-ComputationStepParam" style="stroke: #A80036; stroke-width: 1.0;"/><polygon fill="#FFFFFF" points="296.257,225.6876,290.2774,229.7181,291.698,236.7879,297.6776,232.7574,296.257,225.6876" style="stroke: #A80036; stroke-width: 1.0;"/><text fill="#000000" font-family="sans-serif" font-size="13" lengthAdjust="spacingAndGlyphs" textLength="20" x="242.8711" y="359.5517">0..*</text><!--link ComputationStep to ComputationApplication--><path d="M282.368,225.6816 C258.303,240.5876 216.412,266.5346 190.277,282.7226 " fill="none" id="ComputationStep-ComputationApplication" style="stroke: #A80036; stroke-width: 1.0; stroke-dasharray: 7.0,7.0;"/><polygon fill="#A80036" points="185.906,285.4306,195.6634,284.0913,190.1565,282.7975,191.4503,277.2906,185.906,285.4306" style="stroke: #A80036; stroke-width: 1.0;"/><!--link ComputationRunnable to ComputationStep--><path d="M432.286,146.4976 C399.816,162.7326 352.229,186.5266 324.153,200.5646 " fill="none" id="ComputationRunnable-ComputationStep" style="stroke: #A80036; stroke-width: 1.0;"/><polygon fill="#A80036" points="443.918,140.6816,436.7625,139.7875,433.1851,146.0487,440.3406,146.9428,443.918,140.6816" style="stroke: #A80036; stroke-width: 1.0;"/><text fill="#000000" font-family="sans-serif" font-size="13" lengthAdjust="spacingAndGlyphs" textLength="7" x="325.2599" y="189.6253">1</text><!--link ComputationRunnable to ComputationTopic--><path d="M467,153.9626 C467,169.3526 467,188.4146 467,200.4306 " fill="none" id="ComputationRunnable-ComputationTopic" style="stroke: #A80036; stroke-width: 1.0;"/><polygon fill="#FFFFFF" points="467,140.6816,463,146.6816,467,152.6816,471,146.6816,467,140.6816" style="stroke: #A80036; stroke-width: 1.0;"/><!--link Computation to ComputationStepPackage--><path d="M243.972,66.1516 C256.168,81.9676 272.132,102.6706 281.97,115.4306 " fill="none" id="Computation-ComputationStepPackage" style="stroke: #A80036; stroke-width: 1.0;"/><polygon fill="#A80036" points="235.899,55.6816,236.3955,62.8756,243.2271,65.1842,242.7306,57.9902,235.899,55.6816" style="stroke: #A80036; stroke-width: 1.0;"/><text fill="#000000" font-family="sans-serif" font-size="13" lengthAdjust="spacingAndGlyphs" textLength="7" x="270.0363" y="104.8219">1</text><!--link Computation to ComputationInput--><path d="M217.043,68.0486 C211.34,81.8986 204.122,99.6966 198,115.6406 C186.309,146.0866 173.448,182.3156 167.063,200.5026 " fill="none" id="Computation-ComputationInput" style="stroke: #A80036; stroke-width: 1.0;"/><polygon fill="#A80036" points="222.144,55.7286,216.1525,59.7413,217.5521,66.8153,223.5436,62.8026,222.144,55.7286" style="stroke: #A80036; stroke-width: 1.0;"/><text fill="#000000" font-family="sans-serif" font-size="13" lengthAdjust="spacingAndGlyphs" textLength="7" x="160.2952" y="189.5377">1</text><!--link Machine to MachineMetrics--><path d="M613,68.9626 C613,84.3526 613,103.4146 613,115.4306 " fill="none" id="Machine-MachineMetrics" style="stroke: #A80036; stroke-width: 1.0;"/><polygon fill="#FFFFFF" points="613,55.6816,609,61.6816,613,67.6816,617,61.6816,613,55.6816" style="stroke: #A80036; stroke-width: 1.0;"/><!--link MachineMetrics to MachineMetricValue--><path d="M613,153.9626 C613,169.3526 613,188.4146 613,200.4306 " fill="none" id="MachineMetrics-MachineMetricValue" style="stroke: #A80036; stroke-width: 1.0;"/><polygon fill="#FFFFFF" points="613,140.6816,609,146.6816,613,152.6816,617,146.6816,613,140.6816" style="stroke: #A80036; stroke-width: 1.0;"/><!--
@startuml
    title Model

    hide class circle
    hide class fields
    hide class methods

    class ComputationTask
    class ComputationApplication
    class ComputationInput
    class ComputationStep
    class ComputationStepPackage
    class ComputationStepParam
    class ComputationRunnable
    class ComputationTopic
    class Computation
    class Machine
    class MachineMetrics
    class MachineMetricValue

    ComputationTask *- - ComputationApplication
    ComputationTask o- - ComputationInput
    ComputationApplication o- - "0..*" ComputationStepParam
    ComputationInput ..> ComputationApplication
    ComputationStepPackage *- - "1..*" ComputationStep
    ComputationStep o- - "0..*" ComputationStepParam
    ComputationStep ..> ComputationApplication
    ComputationRunnable *- - "1" ComputationStep
    ComputationRunnable o- - ComputationTopic
    Computation *- - "1"ComputationStepPackage
    Computation *- - "1" ComputationInput
    Machine o- - MachineMetrics
    MachineMetrics o- - MachineMetricValue
@enduml

PlantUML version 1.2018.11(Sat Sep 22 18:43:53 CEST 2018)
(GPL source distribution)
Java Runtime: OpenJDK Runtime Environment
JVM: OpenJDK 64-Bit Server VM
Java Version: 1.8.0_152-release-1248-b8
Operating System: Windows 10
OS Version: 10.0
Default Encoding: Cp1250
Language: pl
Country: PL
--></g></svg>