<?xml version="1.0" encoding="UTF-8" standalone="no"?><svg xmlns="http://www.w3.org/2000/svg" xmlns:xlink="http://www.w3.org/1999/xlink" contentScriptType="application/ecmascript" contentStyleType="text/css" height="321px" preserveAspectRatio="none" style="width:662px;height:321px;" version="1.1" viewBox="0 0 662 321" width="662px" zoomAndPan="magnify"><defs><filter height="300%" id="fn0n8ux981hga" width="300%" x="-1" y="-1"><feGaussianBlur result="blurOut" stdDeviation="2.0"/><feColorMatrix in="blurOut" result="blurOut2" type="matrix" values="0 0 0 0 0 0 0 0 0 0 0 0 0 0 0 0 0 0 .4 0"/><feOffset dx="4.0" dy="4.0" in="blurOut2" result="blurOut3"/><feBlend in="SourceGraphic" in2="blurOut3" mode="normal"/></filter></defs><g><text fill="#000000" font-family="sans-serif" font-size="18" lengthAdjust="spacingAndGlyphs" textLength="49" x="310.5" y="18.6855">Model</text><!--class ComputationTask--><rect fill="#FEFECE" filter="url(#fn0n8ux981hga)" height="25.0938" id="ComputationTask" style="stroke: #A80036; stroke-width: 1.5;" width="104" x="6" y="30.6406"/><text fill="#000000" font-family="sans-serif" font-size="12" lengthAdjust="spacingAndGlyphs" textLength="98" x="9" y="48.0977">ComputationTask</text><!--class ComputationApplication--><rect fill="#FEFECE" filter="url(#fn0n8ux981hga)" height="25.0938" id="ComputationApplication" style="stroke: #A80036; stroke-width: 1.5;" width="137" x="44.5" y="200.6406"/><text fill="#000000" font-family="sans-serif" font-size="12" lengthAdjust="spacingAndGlyphs" textLength="131" x="47.5" y="218.0977">ComputationApplication</text><!--class ComputationInput--><rect fill="#FEFECE" filter="url(#fn0n8ux981hga)" height="25.0938" id="ComputationInput" style="stroke: #A80036; stroke-width: 1.5;" width="104" x="58" y="115.6406"/><text fill="#000000" font-family="sans-serif" font-size="12" lengthAdjust="spacingAndGlyphs" textLength="98" x="61" y="133.0977">ComputationInput</text><!--class ComputationStep--><rect fill="#FEFECE" filter="url(#fn0n8ux981hga)" height="25.0938" id="ComputationStep" style="stroke: #A80036; stroke-width: 1.5;" width="102" x="221" y="200.6406"/><text fill="#000000" font-family="sans-serif" font-size="12" lengthAdjust="spacingAndGlyphs" textLength="96" x="224" y="218.0977">ComputationStep</text><!--class ComputationStepPackage--><rect fill="#FEFECE" filter="url(#fn0n8ux981hga)" height="25.0938" id="ComputationStepPackage" style="stroke: #A80036; stroke-width: 1.5;" width="150" x="197" y="115.6406"/><text fill="#000000" font-family="sans-serif" font-size="12" lengthAdjust="spacingAndGlyphs" textLength="144" x="200" y="133.0977">ComputationStepPackage</text><!--class ComputationStepParam--><rect fill="#FEFECE" filter="url(#fn0n8ux981hga)" height="25.0938" id="ComputationStepParam" style="stroke: #A80036; stroke-width: 1.5;" width="139" x="124.5" y="285.6406"/><text fill="#000000" font-family="sans-serif" font-size="12" lengthAdjust="spacingAndGlyphs" textLength="133" x="127.5" y="303.0977">ComputationStepParam</text><!--class ComputationRunnable--><rect fill="#FEFECE" filter="url(#fn0n8ux981hga)" height="25.0938" id="ComputationRunnable" style="stroke: #A80036; stroke-width: 1.5;" width="131" x="382.5" y="115.6406"/><text fill="#000000" font-family="sans-serif" font-size="12" lengthAdjust="spacingAndGlyphs" textLength="125" x="385.5" y="133.0977">ComputationRunnable</text><!--class ComputationTopic--><rect fill="#FEFECE" filter="url(#fn0n8ux981hga)" height="25.0938" id="ComputationTopic" style="stroke: #A80036; stroke-width: 1.5;" width="107" x="394.5" y="200.6406"/><text fill="#000000" font-family="sans-serif" font-size="12" lengthAdjust="spacingAndGlyphs" textLength="101" x="397.5" y="218.0977">ComputationTopic</text><!--class Computation--><rect fill="#FEFECE" filter="url(#fn0n8ux981hga)" height="25.0938" id="Computation" style="stroke: #A80036; stroke-width: 1.5;" width="77" x="189.5" y="30.6406"/><text fill="#000000" font-family="sans-serif" font-size="12" lengthAdjust="spacingAndGlyphs" textLength="71" x="192.5" y="48.0977">Computation</text><!--class Machine--><rect fill="#FEFECE" filter="url(#fn0n8ux981hga)" height="25.0938" id="Machine" style="stroke: #A80036; stroke-width: 1.5;" width="52" x="568" y="30.6406"/><text fill="#000000" font-family="sans-serif" font-size="12" lengthAdjust="spacingAndGlyphs" textLength="46" x="571" y="48.0977">Machine</text><!--class MachineMetrics--><rect fill="#FEFECE" filter="url(#fn0n8ux981hga)" height="25.0938" id="MachineMetrics" style="stroke: #A80036; stroke-width: 1.5;" width="91" x="548.5" y="115.6406"/><text fill="#000000" font-family="sans-serif" font-size="12" lengthAdjust="spacingAndGlyphs" textLength="85" x="551.5" y="133.0977">MachineMetrics</text><!--class MachineMetricValue--><rect fill="#FEFECE" filter="url(#fn0n8ux981hga)" height="25.0938" id="MachineMetricValue" style="stroke: #A80036; stroke-width: 1.5;" width="115" x="536.5" y="200.6406"/><text fill="#000000" font-family="sans-serif" font-size="12" lengthAdjust="spacingAndGlyphs" textLength="109" x="539.5" y="218.0977">MachineMetricValue</text><!--link ComputationTask to ComputationApplication--><path d="M46.2388,67.8646 C38.0001,87.9086 30.0803,117.0396 40,140.6406 C50.998,166.8076 76.7642,188.1956 94.5421,200.5566 " fill="none" id="ComputationTask-ComputationApplication" style="stroke: #A80036; stroke-width: 1.0;"/><polygon fill="#A80036" points="51.6461,55.8866,45.5317,59.7095,46.7089,66.8239,52.8233,63.001,51.6461,55.8866" style="stroke: #A80036; stroke-width: 1.0;"/><!--link ComputationTask to ComputationInput--><path d="M72.3704,67.0776 C82.2008,82.7686 94.8248,102.9186 102.6634,115.4306 " fill="none" id="ComputationTask-ComputationInput" style="stroke: #A80036; stroke-width: 1.0;"/><polygon fill="#FFFFFF" points="65.2304,55.6816,65.026,62.8898,71.6011,65.8509,71.8055,58.6427,65.2304,55.6816" style="stroke: #A80036; stroke-width: 1.0;"/><!--link ComputationApplication to ComputationStepParam--><path d="M133.587,235.2355 C149.128,251.1607 169.878,272.4231 182.572,285.4303 " fill="none" id="ComputationApplication-ComputationStepParam" style="stroke: #A80036; stroke-width: 1.0;"/><polygon fill="#FFFFFF" points="124.263,225.6814,125.5907,232.7692,132.644,234.2697,131.3163,227.1819,124.263,225.6814" style="stroke: #A80036; stroke-width: 1.0;"/><text fill="#000000" font-family="sans-serif" font-size="13" lengthAdjust="spacingAndGlyphs" textLength="20" x="154.1347" y="274.8215">0..*</text><!--link ComputationInput to ComputationApplication--><path d="M110.417,140.6816 C110.929,154.8486 111.802,178.9886 112.389,195.2456 " fill="none" id="ComputationInput-ComputationApplication" style="stroke: #A80036; stroke-width: 1.0; stroke-dasharray: 7.0,7.0;"/><polygon fill="#A80036" points="112.577,200.4306,116.2504,191.2925,112.397,195.4339,108.2556,191.5804,112.577,200.4306" style="stroke: #A80036; stroke-width: 1.0;"/><!--link ComputationStepPackage to ComputationStep--><path d="M272,153.9626 C272,169.3526 272,188.4146 272,200.4306 " fill="none" id="ComputationStepPackage-ComputationStep" style="stroke: #A80036; stroke-width: 1.0;"/><polygon fill="#A80036" points="272,140.6816,268,146.6816,272,152.6816,276,146.6816,272,140.6816" style="stroke: #A80036; stroke-width: 1.0;"/><text fill="#000000" font-family="sans-serif" font-size="13" lengthAdjust="spacingAndGlyphs" textLength="20" x="248.0625" y="189.8219">1..*</text><!--link ComputationStepPackage to ComputationApplication--><path d="M249.892,140.6816 C221.138,155.6916 170.937,181.8966 139.974,198.0596 " fill="none" id="ComputationStepPackage-ComputationApplication" style="stroke: #A80036; stroke-width: 1.0; stroke-dasharray: 7.0,7.0;"/><polygon fill="#A80036" points="135.176,200.5646,145.0053,199.944,139.608,198.25,141.3019,192.8528,135.176,200.5646" style="stroke: #A80036; stroke-width: 1.0;"/><!--link ComputationStep to ComputationStepParam--><path d="M252.176,235.2355 C237.21,251.1607 217.228,272.4231 205.005,285.4303 " fill="none" id="ComputationStep-ComputationStepParam" style="stroke: #A80036; stroke-width: 1.0;"/><polygon fill="#FFFFFF" points="261.154,225.6814,254.1302,227.3143,252.936,234.4258,259.9598,232.793,261.154,225.6814" style="stroke: #A80036; stroke-width: 1.0;"/><text fill="#000000" font-family="sans-serif" font-size="13" lengthAdjust="spacingAndGlyphs" textLength="20" x="185.4007" y="274.8215">0..*</text><!--link ComputationRunnable to ComputationStep--><path d="M411.649,146.2836 C377.213,162.5226 326.446,186.4646 296.547,200.5646 " fill="none" id="ComputationRunnable-ComputationStep" style="stroke: #A80036; stroke-width: 1.0;"/><polygon fill="#A80036" points="423.528,140.6816,416.3949,139.6236,412.6748,145.801,419.8078,146.859,423.528,140.6816" style="stroke: #A80036; stroke-width: 1.0;"/><text fill="#000000" font-family="sans-serif" font-size="13" lengthAdjust="spacingAndGlyphs" textLength="7" x="298.2289" y="189.6253">1</text><!--link ComputationRunnable to ComputationTopic--><path d="M448,153.9626 C448,169.3526 448,188.4146 448,200.4306 " fill="none" id="ComputationRunnable-ComputationTopic" style="stroke: #A80036; stroke-width: 1.0;"/><polygon fill="#FFFFFF" points="448,140.6816,444,146.6816,448,152.6816,452,146.6816,448,140.6816" style="stroke: #A80036; stroke-width: 1.0;"/><!--link Computation to ComputationStepPackage--><path d="M240.407,67.5456 C248.689,83.1666 259.225,103.0426 265.792,115.4306 " fill="none" id="Computation-ComputationStepPackage" style="stroke: #A80036; stroke-width: 1.0;"/><polygon fill="#A80036" points="234.118,55.6816,233.394,62.8563,239.7383,66.2841,240.4623,59.1094,234.118,55.6816" style="stroke: #A80036; stroke-width: 1.0;"/><text fill="#000000" font-family="sans-serif" font-size="13" lengthAdjust="spacingAndGlyphs" textLength="7" x="254.9695" y="104.8219">1</text><!--link Computation to ComputationInput--><path d="M200.877,63.2186 C177.982,79.3226 145.933,101.8656 126.648,115.4306 " fill="none" id="Computation-ComputationInput" style="stroke: #A80036; stroke-width: 1.0;"/><polygon fill="#A80036" points="211.593,55.6816,204.3841,55.8612,201.7772,62.5846,208.9861,62.405,211.593,55.6816" style="stroke: #A80036; stroke-width: 1.0;"/><text fill="#000000" font-family="sans-serif" font-size="13" lengthAdjust="spacingAndGlyphs" textLength="7" x="124.825" y="104.8219">1</text><!--link Machine to MachineMetrics--><path d="M594,68.9626 C594,84.3526 594,103.4146 594,115.4306 " fill="none" id="Machine-MachineMetrics" style="stroke: #A80036; stroke-width: 1.0;"/><polygon fill="#FFFFFF" points="594,55.6816,590,61.6816,594,67.6816,598,61.6816,594,55.6816" style="stroke: #A80036; stroke-width: 1.0;"/><!--link MachineMetrics to MachineMetricValue--><path d="M594,153.9626 C594,169.3526 594,188.4146 594,200.4306 " fill="none" id="MachineMetrics-MachineMetricValue" style="stroke: #A80036; stroke-width: 1.0;"/><polygon fill="#FFFFFF" points="594,140.6816,590,146.6816,594,152.6816,598,146.6816,594,140.6816" style="stroke: #A80036; stroke-width: 1.0;"/><!--
@startuml
    title Model

    hide class circle
    hide class fields
    hide class methods

    class ComputationTask
    class ComputationApplication
    class ComputationInput
    class ComputationStep
    class ComputationStepPackage
    class ComputationStepParam
    class ComputationRunnable
    class ComputationTopic
    class Computation
    class Machine
    class MachineMetrics
    class MachineMetricValue

    ComputationTask *- - ComputationApplication
    ComputationTask o- - ComputationInput
    ComputationApplication o- - "0..*" ComputationStepParam
    ComputationInput ..> ComputationApplication
    ComputationStepPackage *- - "1..*" ComputationStep
    ComputationStepPackage ..> ComputationApplication
    ComputationStep o- - "0..*" ComputationStepParam
    ComputationRunnable *- - "1" ComputationStep
    ComputationRunnable o- - ComputationTopic
    Computation *- - "1"ComputationStepPackage
    Computation *- - "1" ComputationInput
    Machine o- - MachineMetrics
    MachineMetrics o- - MachineMetricValue
@enduml

PlantUML version 1.2018.11(Sat Sep 22 18:43:53 CEST 2018)
(GPL source distribution)
Java Runtime: OpenJDK Runtime Environment
JVM: OpenJDK 64-Bit Server VM
Java Version: 1.8.0_152-release-1248-b8
Operating System: Windows 10
OS Version: 10.0
Default Encoding: Cp1250
Language: pl
Country: PL
--></g></svg>