<?xml version="1.0" encoding="UTF-8" standalone="no"?><svg xmlns="http://www.w3.org/2000/svg" xmlns:xlink="http://www.w3.org/1999/xlink" contentScriptType="application/ecmascript" contentStyleType="text/css" height="406px" preserveAspectRatio="none" style="width:721px;height:406px;" version="1.1" viewBox="0 0 721 406" width="721px" zoomAndPan="magnify"><defs><filter height="300%" id="fwu6i53m2sfi7" width="300%" x="-1" y="-1"><feGaussianBlur result="blurOut" stdDeviation="2.0"/><feColorMatrix in="blurOut" result="blurOut2" type="matrix" values="0 0 0 0 0 0 0 0 0 0 0 0 0 0 0 0 0 0 .4 0"/><feOffset dx="4.0" dy="4.0" in="blurOut2" result="blurOut3"/><feBlend in="SourceGraphic" in2="blurOut3" mode="normal"/></filter></defs><g><text fill="#000000" font-family="sans-serif" font-size="18" lengthAdjust="spacingAndGlyphs" textLength="49" x="339.5" y="18.6855">Model</text><!--class ComputationTask--><rect fill="#FEFECE" filter="url(#fwu6i53m2sfi7)" height="25.0938" id="ComputationTask" style="stroke: #A80036; stroke-width: 1.5;" width="104" x="467.5" y="115.6406"/><text fill="#000000" font-family="sans-serif" font-size="12" lengthAdjust="spacingAndGlyphs" textLength="98" x="470.5" y="133.0977">ComputationTask</text><!--class ComputationApplication--><rect fill="#FEFECE" filter="url(#fwu6i53m2sfi7)" height="25.0938" id="ComputationApplication" style="stroke: #A80036; stroke-width: 1.5;" width="137" x="337" y="285.6406"/><text fill="#000000" font-family="sans-serif" font-size="12" lengthAdjust="spacingAndGlyphs" textLength="131" x="340" y="303.0977">ComputationApplication</text><!--class ComputationInput--><rect fill="#FEFECE" filter="url(#fwu6i53m2sfi7)" height="25.0938" id="ComputationInput" style="stroke: #A80036; stroke-width: 1.5;" width="104" x="357.5" y="200.6406"/><text fill="#000000" font-family="sans-serif" font-size="12" lengthAdjust="spacingAndGlyphs" textLength="98" x="360.5" y="218.0977">ComputationInput</text><!--class ComputationStep--><rect fill="#FEFECE" filter="url(#fwu6i53m2sfi7)" height="25.0938" id="ComputationStep" style="stroke: #A80036; stroke-width: 1.5;" width="102" x="196.5" y="285.6406"/><text fill="#000000" font-family="sans-serif" font-size="12" lengthAdjust="spacingAndGlyphs" textLength="96" x="199.5" y="303.0977">ComputationStep</text><!--class ComputationStepPackage--><rect fill="#FEFECE" filter="url(#fwu6i53m2sfi7)" height="25.0938" id="ComputationStepPackage" style="stroke: #A80036; stroke-width: 1.5;" width="150" x="172.5" y="200.6406"/><text fill="#000000" font-family="sans-serif" font-size="12" lengthAdjust="spacingAndGlyphs" textLength="144" x="175.5" y="218.0977">ComputationStepPackage</text><!--class ComputationStepParam--><rect fill="#FEFECE" filter="url(#fwu6i53m2sfi7)" height="25.0938" id="ComputationStepParam" style="stroke: #A80036; stroke-width: 1.5;" width="139" x="257" y="370.6406"/><text fill="#000000" font-family="sans-serif" font-size="12" lengthAdjust="spacingAndGlyphs" textLength="133" x="260" y="388.0977">ComputationStepParam</text><!--class ComputationRunnable--><rect fill="#FEFECE" filter="url(#fwu6i53m2sfi7)" height="25.0938" id="ComputationRunnable" style="stroke: #A80036; stroke-width: 1.5;" width="131" x="6" y="200.6406"/><text fill="#000000" font-family="sans-serif" font-size="12" lengthAdjust="spacingAndGlyphs" textLength="125" x="9" y="218.0977">ComputationRunnable</text><!--class ComputationTopic--><rect fill="#FEFECE" filter="url(#fwu6i53m2sfi7)" height="25.0938" id="ComputationTopic" style="stroke: #A80036; stroke-width: 1.5;" width="107" x="18" y="285.6406"/><text fill="#000000" font-family="sans-serif" font-size="12" lengthAdjust="spacingAndGlyphs" textLength="101" x="21" y="303.0977">ComputationTopic</text><!--class Computation--><rect fill="#FEFECE" filter="url(#fwu6i53m2sfi7)" height="25.0938" id="Computation" style="stroke: #A80036; stroke-width: 1.5;" width="77" x="208" y="115.6406"/><text fill="#000000" font-family="sans-serif" font-size="12" lengthAdjust="spacingAndGlyphs" textLength="71" x="211" y="133.0977">Computation</text><!--class ComputationStatus--><rect fill="#FEFECE" filter="url(#fwu6i53m2sfi7)" height="25.0938" id="ComputationStatus" style="stroke: #A80036; stroke-width: 1.5;" width="112" x="320.5" y="115.6406"/><text fill="#000000" font-family="sans-serif" font-size="12" lengthAdjust="spacingAndGlyphs" textLength="106" x="323.5" y="133.0977">ComputationStatus</text><!--class ComputationDetails--><rect fill="#FEFECE" filter="url(#fwu6i53m2sfi7)" height="25.0938" id="ComputationDetails" style="stroke: #A80036; stroke-width: 1.5;" width="116" x="390.5" y="30.6406"/><text fill="#000000" font-family="sans-serif" font-size="12" lengthAdjust="spacingAndGlyphs" textLength="110" x="393.5" y="48.0977">ComputationDetails</text><!--class Machine--><rect fill="#FEFECE" filter="url(#fwu6i53m2sfi7)" height="25.0938" id="Machine" style="stroke: #A80036; stroke-width: 1.5;" width="52" x="626.5" y="30.6406"/><text fill="#000000" font-family="sans-serif" font-size="12" lengthAdjust="spacingAndGlyphs" textLength="46" x="629.5" y="48.0977">Machine</text><!--class MachineMetrics--><rect fill="#FEFECE" filter="url(#fwu6i53m2sfi7)" height="25.0938" id="MachineMetrics" style="stroke: #A80036; stroke-width: 1.5;" width="91" x="607" y="115.6406"/><text fill="#000000" font-family="sans-serif" font-size="12" lengthAdjust="spacingAndGlyphs" textLength="85" x="610" y="133.0977">MachineMetrics</text><!--class MachineMetricValue--><rect fill="#FEFECE" filter="url(#fwu6i53m2sfi7)" height="25.0938" id="MachineMetricValue" style="stroke: #A80036; stroke-width: 1.5;" width="115" x="595" y="200.6406"/><text fill="#000000" font-family="sans-serif" font-size="12" lengthAdjust="spacingAndGlyphs" textLength="109" x="598" y="218.0977">MachineMetricValue</text><!--link ComputationDetails to ComputationTask--><path d="M471.377,70.8846 C484.233,85.9126 499.628,103.9096 509.483,115.4306 " fill="none" id="ComputationDetails-ComputationTask" style="stroke: #A80036; stroke-width: 1.0;"/><polygon fill="none" points="466.054,75.4296,458.372,55.6816,476.692,66.3296,466.054,75.4296" style="stroke: #A80036; stroke-width: 1.0;"/><!--link ComputationDetails to ComputationStatus--><path d="M425.301,70.8846 C412.264,85.9126 396.652,103.9096 386.658,115.4306 " fill="none" id="ComputationDetails-ComputationStatus" style="stroke: #A80036; stroke-width: 1.0;"/><polygon fill="none" points="420.095,66.2026,438.489,55.6816,430.671,75.3766,420.095,66.2026" style="stroke: #A80036; stroke-width: 1.0;"/><!--link ComputationTask to ComputationApplication--><path d="M512.191,153.3456 C505.368,173.7106 493.922,203.0396 478.5,225.6406 C462.002,249.8196 436.445,272.5326 420.361,285.6256 " fill="none" id="ComputationTask-ComputationApplication" style="stroke: #A80036; stroke-width: 1.0;"/><polygon fill="#A80036" points="516.168,140.8726,510.5341,145.3736,512.5219,152.3053,518.1559,147.8043,516.168,140.8726" style="stroke: #A80036; stroke-width: 1.0;"/><!--link ComputationTask to ComputationInput--><path d="M493.629,148.6616 C472.328,164.7336 442.833,186.9896 425.02,200.4306 " fill="none" id="ComputationTask-ComputationInput" style="stroke: #A80036; stroke-width: 1.0;"/><polygon fill="#FFFFFF" points="504.205,140.6816,497.0062,141.1025,494.6259,147.9094,501.8247,147.4886,504.205,140.6816" style="stroke: #A80036; stroke-width: 1.0;"/><!--link ComputationApplication to ComputationStepParam--><path d="M385.422,320.2355 C370.264,336.1607 350.026,357.4231 337.646,370.4303 " fill="none" id="ComputationApplication-ComputationStepParam" style="stroke: #A80036; stroke-width: 1.0;"/><polygon fill="#FFFFFF" points="394.515,310.6814,387.4809,312.2694,386.2414,319.3732,393.2755,317.7852,394.515,310.6814" style="stroke: #A80036; stroke-width: 1.0;"/><text fill="#000000" font-family="sans-serif" font-size="13" lengthAdjust="spacingAndGlyphs" textLength="20" x="318.0972" y="359.8215">0..*</text><!--link ComputationInput to ComputationApplication--><path d="M408.944,225.6816 C408.261,239.8486 407.098,263.9886 406.314,280.2456 " fill="none" id="ComputationInput-ComputationApplication" style="stroke: #A80036; stroke-width: 1.0; stroke-dasharray: 7.0,7.0;"/><polygon fill="#A80036" points="406.064,285.4306,410.4939,276.6343,406.3054,280.4365,402.5032,276.248,406.064,285.4306" style="stroke: #A80036; stroke-width: 1.0;"/><!--link ComputationStepPackage to ComputationStep--><path d="M247.5,238.9626 C247.5,254.3526 247.5,273.4146 247.5,285.4306 " fill="none" id="ComputationStepPackage-ComputationStep" style="stroke: #A80036; stroke-width: 1.0;"/><polygon fill="#A80036" points="247.5,225.6816,243.5,231.6816,247.5,237.6816,251.5,231.6816,247.5,225.6816" style="stroke: #A80036; stroke-width: 1.0;"/><text fill="#000000" font-family="sans-serif" font-size="13" lengthAdjust="spacingAndGlyphs" textLength="20" x="223.5625" y="274.8219">1..*</text><!--link ComputationStepPackage to ComputationApplication--><path d="M269.469,225.6816 C298.042,240.6916 347.928,266.8966 378.696,283.0596 " fill="none" id="ComputationStepPackage-ComputationApplication" style="stroke: #A80036; stroke-width: 1.0; stroke-dasharray: 7.0,7.0;"/><polygon fill="#A80036" points="383.463,285.5646,377.3558,277.8379,379.0366,283.2393,373.6353,284.9202,383.463,285.5646" style="stroke: #A80036; stroke-width: 1.0;"/><!--link ComputationStep to ComputationStepParam--><path d="M267.578,320.2355 C282.736,336.1607 302.974,357.4231 315.354,370.4303 " fill="none" id="ComputationStep-ComputationStepParam" style="stroke: #A80036; stroke-width: 1.0;"/><polygon fill="#FFFFFF" points="258.485,310.6814,259.7245,317.7852,266.7586,319.3732,265.5191,312.2694,258.485,310.6814" style="stroke: #A80036; stroke-width: 1.0;"/><text fill="#000000" font-family="sans-serif" font-size="13" lengthAdjust="spacingAndGlyphs" textLength="20" x="287.0278" y="359.8215">0..*</text><!--link ComputationRunnable to ComputationStep--><path d="M107.851,231.2836 C142.287,247.5226 193.054,271.4646 222.953,285.5646 " fill="none" id="ComputationRunnable-ComputationStep" style="stroke: #A80036; stroke-width: 1.0;"/><polygon fill="#A80036" points="95.972,225.6816,99.6924,231.8589,106.8254,230.8005,103.105,224.6233,95.972,225.6816" style="stroke: #A80036; stroke-width: 1.0;"/><text fill="#000000" font-family="sans-serif" font-size="13" lengthAdjust="spacingAndGlyphs" textLength="7" x="204.3836" y="274.6253">1</text><!--link ComputationRunnable to ComputationTopic--><path d="M71.5,238.9626 C71.5,254.3526 71.5,273.4146 71.5,285.4306 " fill="none" id="ComputationRunnable-ComputationTopic" style="stroke: #A80036; stroke-width: 1.0;"/><polygon fill="#FFFFFF" points="71.5,225.6816,67.5,231.6816,71.5,237.6816,75.5,231.6816,71.5,225.6816" style="stroke: #A80036; stroke-width: 1.0;"/><!--link Computation to ComputationStepPackage--><path d="M246.799,153.9626 C246.984,169.3526 247.214,188.4146 247.359,200.4306 " fill="none" id="Computation-ComputationStepPackage" style="stroke: #A80036; stroke-width: 1.0;"/><polygon fill="#A80036" points="246.639,140.6816,242.7118,146.7295,246.7841,152.6807,250.7112,146.6328,246.639,140.6816" style="stroke: #A80036; stroke-width: 1.0;"/><text fill="#000000" font-family="sans-serif" font-size="13" lengthAdjust="spacingAndGlyphs" textLength="7" x="238.9254" y="189.8219">1</text><!--link Computation to ComputationInput--><path d="M281.009,146.7126 C312.882,162.9426 359.319,186.5886 386.766,200.5646 " fill="none" id="Computation-ComputationInput" style="stroke: #A80036; stroke-width: 1.0;"/><polygon fill="#A80036" points="269.164,140.6816,272.6951,146.969,279.857,146.1277,276.3259,139.8403,269.164,140.6816" style="stroke: #A80036; stroke-width: 1.0;"/><text fill="#000000" font-family="sans-serif" font-size="13" lengthAdjust="spacingAndGlyphs" textLength="7" x="368.9445" y="189.6253">1</text><!--link Machine to MachineMetrics--><path d="M652.5,68.9626 C652.5,84.3526 652.5,103.4146 652.5,115.4306 " fill="none" id="Machine-MachineMetrics" style="stroke: #A80036; stroke-width: 1.0;"/><polygon fill="#FFFFFF" points="652.5,55.6816,648.5,61.6816,652.5,67.6816,656.5,61.6816,652.5,55.6816" style="stroke: #A80036; stroke-width: 1.0;"/><!--link MachineMetrics to MachineMetricValue--><path d="M652.5,153.9626 C652.5,169.3526 652.5,188.4146 652.5,200.4306 " fill="none" id="MachineMetrics-MachineMetricValue" style="stroke: #A80036; stroke-width: 1.0;"/><polygon fill="#FFFFFF" points="652.5,140.6816,648.5,146.6816,652.5,152.6816,656.5,146.6816,652.5,140.6816" style="stroke: #A80036; stroke-width: 1.0;"/><!--
@startuml
    title Model

    hide class circle
    hide class fields
    hide class methods

    class ComputationTask
    class ComputationApplication
    class ComputationInput
    class ComputationStep
    class ComputationStepPackage
    class ComputationStepParam
    class ComputationRunnable
    class ComputationTopic
    class Computation
    class ComputationStatus
    class ComputationDetails
    class Machine
    class MachineMetrics
    class MachineMetricValue

    ComputationDetails <|- - ComputationTask
    ComputationDetails <|- - ComputationStatus
    ComputationTask *- - ComputationApplication
    ComputationTask o- - ComputationInput
    ComputationApplication o- - "0..*" ComputationStepParam
    ComputationInput ..> ComputationApplication
    ComputationStepPackage *- - "1..*" ComputationStep
    ComputationStepPackage ..> ComputationApplication
    ComputationStep o- - "0..*" ComputationStepParam
    ComputationRunnable *- - "1" ComputationStep
    ComputationRunnable o- - ComputationTopic
    Computation *- - "1"ComputationStepPackage
    Computation *- - "1" ComputationInput
    Machine o- - MachineMetrics
    MachineMetrics o- - MachineMetricValue
@enduml

PlantUML version 1.2018.11(Sat Sep 22 18:43:53 CEST 2018)
(GPL source distribution)
Java Runtime: OpenJDK Runtime Environment
JVM: OpenJDK 64-Bit Server VM
Java Version: 1.8.0_152-release-1248-b8
Operating System: Windows 10
OS Version: 10.0
Default Encoding: Cp1250
Language: pl
Country: PL
--></g></svg>