<?xml version="1.0" encoding="UTF-8" standalone="no"?><svg xmlns="http://www.w3.org/2000/svg" xmlns:xlink="http://www.w3.org/1999/xlink" contentScriptType="application/ecmascript" contentStyleType="text/css" height="406px" preserveAspectRatio="none" style="width:774px;height:406px;" version="1.1" viewBox="0 0 774 406" width="774px" zoomAndPan="magnify"><defs><filter height="300%" id="ftdl3nsv6ilde" width="300%" x="-1" y="-1"><feGaussianBlur result="blurOut" stdDeviation="2.0"/><feColorMatrix in="blurOut" result="blurOut2" type="matrix" values="0 0 0 0 0 0 0 0 0 0 0 0 0 0 0 0 0 0 .4 0"/><feOffset dx="4.0" dy="4.0" in="blurOut2" result="blurOut3"/><feBlend in="SourceGraphic" in2="blurOut3" mode="normal"/></filter></defs><g><text fill="#000000" font-family="sans-serif" font-size="18" lengthAdjust="spacingAndGlyphs" textLength="49" x="366" y="18.6855">Model</text><!--class ComputationTask--><rect fill="#FEFECE" filter="url(#ftdl3nsv6ilde)" height="25.0938" id="ComputationTask" style="stroke: #A80036; stroke-width: 1.5;" width="104" x="357.5" y="115.6406"/><text fill="#000000" font-family="sans-serif" font-size="12" lengthAdjust="spacingAndGlyphs" textLength="98" x="360.5" y="133.0977">ComputationTask</text><!--class ComputationApplication--><rect fill="#FEFECE" filter="url(#ftdl3nsv6ilde)" height="25.0938" id="ComputationApplication" style="stroke: #A80036; stroke-width: 1.5;" width="137" x="337" y="285.6406"/><text fill="#000000" font-family="sans-serif" font-size="12" lengthAdjust="spacingAndGlyphs" textLength="131" x="340" y="303.0977">ComputationApplication</text><!--class ComputationInput--><rect fill="#FEFECE" filter="url(#ftdl3nsv6ilde)" height="25.0938" id="ComputationInput" style="stroke: #A80036; stroke-width: 1.5;" width="104" x="357.5" y="200.6406"/><text fill="#000000" font-family="sans-serif" font-size="12" lengthAdjust="spacingAndGlyphs" textLength="98" x="360.5" y="218.0977">ComputationInput</text><!--class ComputationStep--><rect fill="#FEFECE" filter="url(#ftdl3nsv6ilde)" height="25.0938" id="ComputationStep" style="stroke: #A80036; stroke-width: 1.5;" width="102" x="196.5" y="285.6406"/><text fill="#000000" font-family="sans-serif" font-size="12" lengthAdjust="spacingAndGlyphs" textLength="96" x="199.5" y="303.0977">ComputationStep</text><!--class ComputationStepPackage--><rect fill="#FEFECE" filter="url(#ftdl3nsv6ilde)" height="25.0938" id="ComputationStepPackage" style="stroke: #A80036; stroke-width: 1.5;" width="150" x="172.5" y="200.6406"/><text fill="#000000" font-family="sans-serif" font-size="12" lengthAdjust="spacingAndGlyphs" textLength="144" x="175.5" y="218.0977">ComputationStepPackage</text><!--class ComputationStepParam--><rect fill="#FEFECE" filter="url(#ftdl3nsv6ilde)" height="25.0938" id="ComputationStepParam" style="stroke: #A80036; stroke-width: 1.5;" width="139" x="257" y="370.6406"/><text fill="#000000" font-family="sans-serif" font-size="12" lengthAdjust="spacingAndGlyphs" textLength="133" x="260" y="388.0977">ComputationStepParam</text><!--class ComputationRunnable--><rect fill="#FEFECE" filter="url(#ftdl3nsv6ilde)" height="25.0938" id="ComputationRunnable" style="stroke: #A80036; stroke-width: 1.5;" width="131" x="6" y="200.6406"/><text fill="#000000" font-family="sans-serif" font-size="12" lengthAdjust="spacingAndGlyphs" textLength="125" x="9" y="218.0977">ComputationRunnable</text><!--class ComputationTopic--><rect fill="#FEFECE" filter="url(#ftdl3nsv6ilde)" height="25.0938" id="ComputationTopic" style="stroke: #A80036; stroke-width: 1.5;" width="107" x="18" y="285.6406"/><text fill="#000000" font-family="sans-serif" font-size="12" lengthAdjust="spacingAndGlyphs" textLength="101" x="21" y="303.0977">ComputationTopic</text><!--class Computation--><rect fill="#FEFECE" filter="url(#ftdl3nsv6ilde)" height="25.0938" id="Computation" style="stroke: #A80036; stroke-width: 1.5;" width="77" x="227" y="115.6406"/><text fill="#000000" font-family="sans-serif" font-size="12" lengthAdjust="spacingAndGlyphs" textLength="71" x="230" y="133.0977">Computation</text><!--class ComputationStatus--><rect fill="#FEFECE" filter="url(#ftdl3nsv6ilde)" height="25.0938" id="ComputationStatus" style="stroke: #A80036; stroke-width: 1.5;" width="112" x="501.5" y="115.6406"/><text fill="#000000" font-family="sans-serif" font-size="12" lengthAdjust="spacingAndGlyphs" textLength="106" x="504.5" y="133.0977">ComputationStatus</text><!--class ComputationDetails--><rect fill="#FEFECE" filter="url(#ftdl3nsv6ilde)" height="25.0938" id="ComputationDetails" style="stroke: #A80036; stroke-width: 1.5;" width="116" x="351.5" y="30.6406"/><text fill="#000000" font-family="sans-serif" font-size="12" lengthAdjust="spacingAndGlyphs" textLength="110" x="354.5" y="48.0977">ComputationDetails</text><!--class MachineComputingStatus--><rect fill="#FEFECE" filter="url(#ftdl3nsv6ilde)" height="25.0938" id="MachineComputingStatus" style="stroke: #A80036; stroke-width: 1.5;" width="148" x="502.5" y="30.6406"/><text fill="#000000" font-family="sans-serif" font-size="12" lengthAdjust="spacingAndGlyphs" textLength="142" x="505.5" y="48.0977">MachineComputingStatus</text><!--class Machine--><rect fill="#FEFECE" filter="url(#ftdl3nsv6ilde)" height="25.0938" id="Machine" style="stroke: #A80036; stroke-width: 1.5;" width="52" x="685.5" y="30.6406"/><text fill="#000000" font-family="sans-serif" font-size="12" lengthAdjust="spacingAndGlyphs" textLength="46" x="688.5" y="48.0977">Machine</text><!--class MachineMetrics--><rect fill="#FEFECE" filter="url(#ftdl3nsv6ilde)" height="25.0938" id="MachineMetrics" style="stroke: #A80036; stroke-width: 1.5;" width="91" x="660" y="115.6406"/><text fill="#000000" font-family="sans-serif" font-size="12" lengthAdjust="spacingAndGlyphs" textLength="85" x="663" y="133.0977">MachineMetrics</text><!--class MachineMetricValue--><rect fill="#FEFECE" filter="url(#ftdl3nsv6ilde)" height="25.0938" id="MachineMetricValue" style="stroke: #A80036; stroke-width: 1.5;" width="115" x="648" y="200.6406"/><text fill="#000000" font-family="sans-serif" font-size="12" lengthAdjust="spacingAndGlyphs" textLength="109" x="651" y="218.0977">MachineMetricValue</text><!--link ComputationDetails to ComputationTask--><path d="M409.5,75.8236 C409.5,89.7086 409.5,105.1486 409.5,115.4306 " fill="none" id="ComputationDetails-ComputationTask" style="stroke: #A80036; stroke-width: 1.0;"/><polygon fill="none" points="402.5,75.6816,409.5,55.6816,416.5,75.6816,402.5,75.6816" style="stroke: #A80036; stroke-width: 1.0;"/><!--link ComputationDetails to ComputationStatus--><path d="M447.929,65.6916 C476.233,81.5646 513.646,102.5466 536.619,115.4306 " fill="none" id="ComputationDetails-ComputationStatus" style="stroke: #A80036; stroke-width: 1.0;"/><polygon fill="none" points="444.099,71.5696,430.079,55.6816,450.947,59.3586,444.099,71.5696" style="stroke: #A80036; stroke-width: 1.0;"/><!--link ComputationTask to ComputationApplication--><path d="M438.917,148.5276 C462.884,166.9576 490.887,196.1686 478.5,225.6406 C467.502,251.8076 441.736,273.1956 423.958,285.5566 " fill="none" id="ComputationTask-ComputationApplication" style="stroke: #A80036; stroke-width: 1.0;"/><polygon fill="#A80036" points="428.349,140.8556,430.8545,147.6175,438.0599,147.9054,435.5544,141.1435,428.349,140.8556" style="stroke: #A80036; stroke-width: 1.0;"/><!--link ComputationTask to ComputationInput--><path d="M409.5,153.9626 C409.5,169.3526 409.5,188.4146 409.5,200.4306 " fill="none" id="ComputationTask-ComputationInput" style="stroke: #A80036; stroke-width: 1.0;"/><polygon fill="#FFFFFF" points="409.5,140.6816,405.5,146.6816,409.5,152.6816,413.5,146.6816,409.5,140.6816" style="stroke: #A80036; stroke-width: 1.0;"/><!--link ComputationApplication to ComputationStepParam--><path d="M385.422,320.2355 C370.264,336.1607 350.026,357.4231 337.646,370.4303 " fill="none" id="ComputationApplication-ComputationStepParam" style="stroke: #A80036; stroke-width: 1.0;"/><polygon fill="#FFFFFF" points="394.515,310.6814,387.4809,312.2694,386.2414,319.3732,393.2755,317.7852,394.515,310.6814" style="stroke: #A80036; stroke-width: 1.0;"/><text fill="#000000" font-family="sans-serif" font-size="13" lengthAdjust="spacingAndGlyphs" textLength="20" x="318.0972" y="359.8215">0..*</text><!--link ComputationInput to ComputationApplication--><path d="M408.944,225.6816 C408.261,239.8486 407.098,263.9886 406.314,280.2456 " fill="none" id="ComputationInput-ComputationApplication" style="stroke: #A80036; stroke-width: 1.0; stroke-dasharray: 7.0,7.0;"/><polygon fill="#A80036" points="406.064,285.4306,410.4939,276.6343,406.3054,280.4365,402.5032,276.248,406.064,285.4306" style="stroke: #A80036; stroke-width: 1.0;"/><!--link ComputationStepPackage to ComputationStep--><path d="M247.5,238.9626 C247.5,254.3526 247.5,273.4146 247.5,285.4306 " fill="none" id="ComputationStepPackage-ComputationStep" style="stroke: #A80036; stroke-width: 1.0;"/><polygon fill="#A80036" points="247.5,225.6816,243.5,231.6816,247.5,237.6816,251.5,231.6816,247.5,225.6816" style="stroke: #A80036; stroke-width: 1.0;"/><text fill="#000000" font-family="sans-serif" font-size="13" lengthAdjust="spacingAndGlyphs" textLength="20" x="223.5625" y="274.8219">1..*</text><!--link ComputationStepPackage to ComputationApplication--><path d="M269.469,225.6816 C298.042,240.6916 347.928,266.8966 378.696,283.0596 " fill="none" id="ComputationStepPackage-ComputationApplication" style="stroke: #A80036; stroke-width: 1.0; stroke-dasharray: 7.0,7.0;"/><polygon fill="#A80036" points="383.463,285.5646,377.3558,277.8379,379.0366,283.2393,373.6353,284.9202,383.463,285.5646" style="stroke: #A80036; stroke-width: 1.0;"/><!--link ComputationTask to ComputationStepPackage--><path d="M375.203,146.7126 C343.526,162.9426 297.373,186.5886 270.095,200.5646 " fill="none" id="ComputationTask-ComputationStepPackage" style="stroke: #A80036; stroke-width: 1.0;"/><polygon fill="#A80036" points="386.975,140.6816,379.8112,139.8572,376.2949,146.1529,383.4587,146.9773,386.975,140.6816" style="stroke: #A80036; stroke-width: 1.0;"/><text fill="#000000" font-family="sans-serif" font-size="13" lengthAdjust="spacingAndGlyphs" textLength="7" x="270.9717" y="189.6253">1</text><!--link ComputationStep to ComputationStepParam--><path d="M267.578,320.2355 C282.736,336.1607 302.974,357.4231 315.354,370.4303 " fill="none" id="ComputationStep-ComputationStepParam" style="stroke: #A80036; stroke-width: 1.0;"/><polygon fill="#FFFFFF" points="258.485,310.6814,259.7245,317.7852,266.7586,319.3732,265.5191,312.2694,258.485,310.6814" style="stroke: #A80036; stroke-width: 1.0;"/><text fill="#000000" font-family="sans-serif" font-size="13" lengthAdjust="spacingAndGlyphs" textLength="20" x="287.0278" y="359.8215">0..*</text><!--link ComputationRunnable to ComputationStep--><path d="M107.851,231.2836 C142.287,247.5226 193.054,271.4646 222.953,285.5646 " fill="none" id="ComputationRunnable-ComputationStep" style="stroke: #A80036; stroke-width: 1.0;"/><polygon fill="#A80036" points="95.972,225.6816,99.6924,231.8589,106.8254,230.8005,103.105,224.6233,95.972,225.6816" style="stroke: #A80036; stroke-width: 1.0;"/><text fill="#000000" font-family="sans-serif" font-size="13" lengthAdjust="spacingAndGlyphs" textLength="7" x="204.3836" y="274.6253">1</text><!--link ComputationRunnable to ComputationTopic--><path d="M71.5,238.9626 C71.5,254.3526 71.5,273.4146 71.5,285.4306 " fill="none" id="ComputationRunnable-ComputationTopic" style="stroke: #A80036; stroke-width: 1.0;"/><polygon fill="#FFFFFF" points="71.5,225.6816,67.5,231.6816,71.5,237.6816,75.5,231.6816,71.5,225.6816" style="stroke: #A80036; stroke-width: 1.0;"/><!--link Computation to ComputationStepPackage--><path d="M260.22,153.4876 C256.865,168.9586 252.672,188.2906 250.04,200.4306 " fill="none" id="Computation-ComputationStepPackage" style="stroke: #A80036; stroke-width: 1.0;"/><polygon fill="#A80036" points="262.997,140.6816,257.8161,145.6975,260.4535,152.409,265.6344,147.3931,262.997,140.6816" style="stroke: #A80036; stroke-width: 1.0;"/><text fill="#000000" font-family="sans-serif" font-size="13" lengthAdjust="spacingAndGlyphs" textLength="7" x="242.662" y="189.8219">1</text><!--link Computation to ComputationInput--><path d="M297.079,147.3426 C325.106,163.4966 365.22,186.6176 389.183,200.4306 " fill="none" id="Computation-ComputationInput" style="stroke: #A80036; stroke-width: 1.0;"/><polygon fill="#A80036" points="285.523,140.6816,288.7234,147.1436,295.9192,146.6749,292.7188,140.2128,285.523,140.6816" style="stroke: #A80036; stroke-width: 1.0;"/><text fill="#000000" font-family="sans-serif" font-size="13" lengthAdjust="spacingAndGlyphs" textLength="7" x="372.8051" y="189.8219">1</text><!--link Machine to MachineMetrics--><path d="M709.706,68.9626 C708.593,84.3526 707.215,103.4146 706.347,115.4306 " fill="none" id="Machine-MachineMetrics" style="stroke: #A80036; stroke-width: 1.0;"/><polygon fill="#FFFFFF" points="710.666,55.6816,706.2439,61.3777,709.8009,67.6504,714.223,61.9544,710.666,55.6816" style="stroke: #A80036; stroke-width: 1.0;"/><!--link MachineMetrics to MachineMetricValue--><path d="M705.5,153.9626 C705.5,169.3526 705.5,188.4146 705.5,200.4306 " fill="none" id="MachineMetrics-MachineMetricValue" style="stroke: #A80036; stroke-width: 1.0;"/><polygon fill="#FFFFFF" points="705.5,140.6816,701.5,146.6816,705.5,152.6816,709.5,146.6816,705.5,140.6816" style="stroke: #A80036; stroke-width: 1.0;"/><!--link MachineComputingStatus to MachineMetrics--><path d="M605.468,62.7786 C630.54,78.9106 666.025,101.7416 687.3,115.4306 " fill="none" id="MachineComputingStatus-MachineMetrics" style="stroke: #A80036; stroke-width: 1.0;"/><polygon fill="#FFFFFF" points="594.437,55.6816,597.3187,62.2919,604.5288,62.1743,601.6471,55.564,594.437,55.6816" style="stroke: #A80036; stroke-width: 1.0;"/><!--link MachineComputingStatus to ComputationStatus--><path d="M570.927,68.4876 C567.385,83.9586 562.96,103.2906 560.181,115.4306 " fill="none" id="MachineComputingStatus-ComputationStatus" style="stroke: #A80036; stroke-width: 1.0;"/><polygon fill="#FFFFFF" points="573.858,55.6816,568.6203,60.638,571.1809,67.3792,576.4186,62.4228,573.858,55.6816" style="stroke: #A80036; stroke-width: 1.0;"/><text fill="#000000" font-family="sans-serif" font-size="13" lengthAdjust="spacingAndGlyphs" textLength="20" x="537.2991" y="104.8219">0..*</text><!--
@startuml
    title Model

    hide class circle
    hide class fields
    hide class methods
    hide enum circle
    hide enum fields
    hide enum methods

    class ComputationTask
    class ComputationApplication
    class ComputationInput
    class ComputationStep
    class ComputationStepPackage
    class ComputationStepParam
    class ComputationRunnable
    class ComputationTopic
    class Computation
    enum ComputationStatus
    class ComputationDetails
    class MachineComputingStatus
    class Machine
    class MachineMetrics
    class MachineMetricValue

    ComputationDetails <|- - ComputationTask
    ComputationDetails <|- - ComputationStatus
    ComputationTask *- - ComputationApplication
    ComputationTask o- - ComputationInput
    ComputationApplication o- - "0..*" ComputationStepParam
    ComputationInput ..> ComputationApplication
    ComputationStepPackage *- - "1..*" ComputationStep
    ComputationStepPackage ..> ComputationApplication
    ComputationStepPackage "1" -do-* ComputationTask
    ComputationStep o- - "0..*" ComputationStepParam
    ComputationRunnable *- - "1" ComputationStep
    ComputationRunnable o- - ComputationTopic
    Computation *- - "1"ComputationStepPackage
    Computation *- - "1" ComputationInput
    Machine o- - MachineMetrics
    MachineMetrics o- - MachineMetricValue
    MachineComputingStatus o- - MachineMetrics
    MachineComputingStatus o- - "0..*" ComputationStatus
@enduml

PlantUML version 1.2018.11(Sat Sep 22 18:43:53 CEST 2018)
(GPL source distribution)
Java Runtime: OpenJDK Runtime Environment
JVM: OpenJDK 64-Bit Server VM
Java Version: 1.8.0_152-release-1248-b8
Operating System: Windows 10
OS Version: 10.0
Default Encoding: Cp1250
Language: pl
Country: PL
--></g></svg>