<?xml version="1.0" encoding="UTF-8" standalone="no"?><svg xmlns="http://www.w3.org/2000/svg" xmlns:xlink="http://www.w3.org/1999/xlink" contentScriptType="application/ecmascript" contentStyleType="text/css" height="353px" preserveAspectRatio="none" style="width:801px;height:353px;" version="1.1" viewBox="0 0 801 353" width="801px" zoomAndPan="magnify"><defs><filter height="300%" id="fy7jo7pjjrnrh" width="300%" x="-1" y="-1"><feGaussianBlur result="blurOut" stdDeviation="2.0"/><feColorMatrix in="blurOut" result="blurOut2" type="matrix" values="0 0 0 0 0 0 0 0 0 0 0 0 0 0 0 0 0 0 .4 0"/><feOffset dx="4.0" dy="4.0" in="blurOut2" result="blurOut3"/><feBlend in="SourceGraphic" in2="blurOut3" mode="normal"/></filter></defs><g><!--MD5=[47505af2e0f5636efa8cccdf78362122]
class Downloader--><rect fill="#FEFECE" filter="url(#fy7jo7pjjrnrh)" height="73.6094" id="Downloader" style="stroke: #A80036; stroke-width: 1.5;" width="265" x="6" y="46"/><ellipse cx="97.25" cy="62" fill="#ADD1B2" rx="11" ry="11" style="stroke: #A80036; stroke-width: 1.0;"/><path d="M99.5938,57.6719 L99.7656,57.75 C99.9844,57.4375 100.1875,57.3438 100.4844,57.3438 C100.7813,57.3438 101.0625,57.4844 101.2188,57.75 C101.3125,57.9063 101.3281,58.0313 101.3281,58.4688 L101.3281,59.8906 C101.3281,60.3125 101.2969,60.5 101.1875,60.6563 C101.0156,60.875 100.75,61.0156 100.4844,61.0156 C100.2656,61.0156 100.0313,60.9063 99.8906,60.7656 C99.75,60.6406 99.7188,60.5156 99.6563,60.1094 C99.5625,59.7031 99.3906,59.4844 98.9063,59.2031 C98.4375,58.9531 97.8281,58.7969 97.25,58.7969 C95.5156,58.7969 94.2656,60.1094 94.2656,61.8906 L94.2656,62.9844 C94.2656,64.6875 95.5625,65.7813 97.6094,65.7813 C98.375,65.7813 99.0625,65.6563 99.4844,65.3906 C99.6719,65.2969 99.6719,65.2969 100.125,64.8125 C100.3125,64.625 100.5156,64.5469 100.7344,64.5469 C101.2031,64.5469 101.5938,64.9375 101.5938,65.3906 C101.5938,65.7813 101.2656,66.2344 100.6875,66.6406 C99.9375,67.1875 98.7813,67.4844 97.5625,67.4844 C94.6719,67.4844 92.5625,65.5938 92.5625,63.0156 L92.5625,61.8906 C92.5625,59.1719 94.5625,57.0938 97.1875,57.0938 C98.0625,57.0938 98.6563,57.2344 99.5938,57.6719 Z "/><text fill="#000000" font-family="sans-serif" font-size="12" lengthAdjust="spacingAndGlyphs" textLength="74" x="117.75" y="66.1543">Downloader</text><line style="stroke: #A80036; stroke-width: 1.5;" x1="7" x2="270" y1="78" y2="78"/><text fill="#000000" font-family="sans-serif" font-size="11" lengthAdjust="spacingAndGlyphs" textLength="145" x="12" y="92.2104">+AppDictionary dictionary</text><line style="stroke: #A80036; stroke-width: 1.5;" x1="7" x2="270" y1="98.8047" y2="98.8047"/><text fill="#000000" font-family="sans-serif" font-size="11" lengthAdjust="spacingAndGlyphs" textLength="253" x="12" y="113.0151">-downloadAppData(string url): List&lt;AppInfo&gt;</text><!--MD5=[db3170b8313bf70303600a68db1112cb]
class Launcher--><rect fill="#FEFECE" filter="url(#fy7jo7pjjrnrh)" height="124.8281" id="Launcher" style="stroke: #A80036; stroke-width: 1.5;" width="247" x="331" y="218"/><ellipse cx="421.25" cy="234" fill="#ADD1B2" rx="11" ry="11" style="stroke: #A80036; stroke-width: 1.0;"/><path d="M423.5938,229.6719 L423.7656,229.75 C423.9844,229.4375 424.1875,229.3438 424.4844,229.3438 C424.7813,229.3438 425.0625,229.4844 425.2188,229.75 C425.3125,229.9063 425.3281,230.0313 425.3281,230.4688 L425.3281,231.8906 C425.3281,232.3125 425.2969,232.5 425.1875,232.6563 C425.0156,232.875 424.75,233.0156 424.4844,233.0156 C424.2656,233.0156 424.0313,232.9063 423.8906,232.7656 C423.75,232.6406 423.7188,232.5156 423.6563,232.1094 C423.5625,231.7031 423.3906,231.4844 422.9063,231.2031 C422.4375,230.9531 421.8281,230.7969 421.25,230.7969 C419.5156,230.7969 418.2656,232.1094 418.2656,233.8906 L418.2656,234.9844 C418.2656,236.6875 419.5625,237.7813 421.6094,237.7813 C422.375,237.7813 423.0625,237.6563 423.4844,237.3906 C423.6719,237.2969 423.6719,237.2969 424.125,236.8125 C424.3125,236.625 424.5156,236.5469 424.7344,236.5469 C425.2031,236.5469 425.5938,236.9375 425.5938,237.3906 C425.5938,237.7813 425.2656,238.2344 424.6875,238.6406 C423.9375,239.1875 422.7813,239.4844 421.5625,239.4844 C418.6719,239.4844 416.5625,237.5938 416.5625,235.0156 L416.5625,233.8906 C416.5625,231.1719 418.5625,229.0938 421.1875,229.0938 C422.0625,229.0938 422.6563,229.2344 423.5938,229.6719 Z "/><text fill="#000000" font-family="sans-serif" font-size="12" lengthAdjust="spacingAndGlyphs" textLength="58" x="441.75" y="238.1543">Launcher</text><line style="stroke: #A80036; stroke-width: 1.5;" x1="332" x2="577" y1="250" y2="250"/><text fill="#000000" font-family="sans-serif" font-size="11" lengthAdjust="spacingAndGlyphs" textLength="84" x="337" y="264.2104">+string UserID</text><text fill="#000000" font-family="sans-serif" font-size="11" lengthAdjust="spacingAndGlyphs" textLength="105" x="337" y="277.0151">+string Username</text><text fill="#000000" font-family="sans-serif" font-size="11" lengthAdjust="spacingAndGlyphs" textLength="148" x="337" y="289.8198">+List&lt;AppInfo&gt; UserApps</text><line style="stroke: #A80036; stroke-width: 1.5;" x1="332" x2="577" y1="296.4141" y2="296.4141"/><text fill="#000000" font-family="sans-serif" font-size="11" lengthAdjust="spacingAndGlyphs" textLength="235" x="337" y="310.6245">+getApplications() @endpoint : UserApps</text><text fill="#000000" font-family="sans-serif" font-size="11" lengthAdjust="spacingAndGlyphs" textLength="179" x="337" y="323.4292">+getComputations() @endpoint</text><text fill="#000000" font-family="sans-serif" font-size="11" lengthAdjust="spacingAndGlyphs" textLength="186" x="337" y="336.2339">+postComputations() @endpoint</text><!--MD5=[5bc147d148cbffe3fd801a9c6988048f]
class CTManager--><rect fill="#FEFECE" filter="url(#fy7jo7pjjrnrh)" height="86.4141" id="CTManager" style="stroke: #A80036; stroke-width: 1.5;" width="297" x="306" y="40"/><ellipse cx="415.25" cy="56" fill="#ADD1B2" rx="11" ry="11" style="stroke: #A80036; stroke-width: 1.0;"/><path d="M417.5938,51.6719 L417.7656,51.75 C417.9844,51.4375 418.1875,51.3438 418.4844,51.3438 C418.7813,51.3438 419.0625,51.4844 419.2188,51.75 C419.3125,51.9063 419.3281,52.0313 419.3281,52.4688 L419.3281,53.8906 C419.3281,54.3125 419.2969,54.5 419.1875,54.6563 C419.0156,54.875 418.75,55.0156 418.4844,55.0156 C418.2656,55.0156 418.0313,54.9063 417.8906,54.7656 C417.75,54.6406 417.7188,54.5156 417.6563,54.1094 C417.5625,53.7031 417.3906,53.4844 416.9063,53.2031 C416.4375,52.9531 415.8281,52.7969 415.25,52.7969 C413.5156,52.7969 412.2656,54.1094 412.2656,55.8906 L412.2656,56.9844 C412.2656,58.6875 413.5625,59.7813 415.6094,59.7813 C416.375,59.7813 417.0625,59.6563 417.4844,59.3906 C417.6719,59.2969 417.6719,59.2969 418.125,58.8125 C418.3125,58.625 418.5156,58.5469 418.7344,58.5469 C419.2031,58.5469 419.5938,58.9375 419.5938,59.3906 C419.5938,59.7813 419.2656,60.2344 418.6875,60.6406 C417.9375,61.1875 416.7813,61.4844 415.5625,61.4844 C412.6719,61.4844 410.5625,59.5938 410.5625,57.0156 L410.5625,55.8906 C410.5625,53.1719 412.5625,51.0938 415.1875,51.0938 C416.0625,51.0938 416.6563,51.2344 417.5938,51.6719 Z "/><text fill="#000000" font-family="sans-serif" font-size="12" lengthAdjust="spacingAndGlyphs" textLength="70" x="435.75" y="60.1543">CTManager</text><line style="stroke: #A80036; stroke-width: 1.5;" x1="307" x2="602" y1="72" y2="72"/><line style="stroke: #A80036; stroke-width: 1.5;" x1="307" x2="602" y1="80" y2="80"/><text fill="#000000" font-family="sans-serif" font-size="11" lengthAdjust="spacingAndGlyphs" textLength="120" x="312" y="94.2104">+saveCT(string json)</text><text fill="#000000" font-family="sans-serif" font-size="11" lengthAdjust="spacingAndGlyphs" textLength="154" x="312" y="107.0151">+validate(string json): bool</text><text fill="#000000" font-family="sans-serif" font-size="11" lengthAdjust="spacingAndGlyphs" textLength="285" x="312" y="119.8198">+createCT(string json, AppInfo application): string</text><!--MD5=[225cdd37234ffd44b971b6b8752c81a2]
class AppInfo--><rect fill="#FEFECE" filter="url(#fy7jo7pjjrnrh)" height="150.4375" id="AppInfo" style="stroke: #A80036; stroke-width: 1.5;" width="152" x="638.5" y="8"/><ellipse cx="686.75" cy="24" fill="#ADD1B2" rx="11" ry="11" style="stroke: #A80036; stroke-width: 1.0;"/><path d="M689.0938,19.6719 L689.2656,19.75 C689.4844,19.4375 689.6875,19.3438 689.9844,19.3438 C690.2813,19.3438 690.5625,19.4844 690.7188,19.75 C690.8125,19.9063 690.8281,20.0313 690.8281,20.4688 L690.8281,21.8906 C690.8281,22.3125 690.7969,22.5 690.6875,22.6563 C690.5156,22.875 690.25,23.0156 689.9844,23.0156 C689.7656,23.0156 689.5313,22.9063 689.3906,22.7656 C689.25,22.6406 689.2188,22.5156 689.1563,22.1094 C689.0625,21.7031 688.8906,21.4844 688.4063,21.2031 C687.9375,20.9531 687.3281,20.7969 686.75,20.7969 C685.0156,20.7969 683.7656,22.1094 683.7656,23.8906 L683.7656,24.9844 C683.7656,26.6875 685.0625,27.7813 687.1094,27.7813 C687.875,27.7813 688.5625,27.6563 688.9844,27.3906 C689.1719,27.2969 689.1719,27.2969 689.625,26.8125 C689.8125,26.625 690.0156,26.5469 690.2344,26.5469 C690.7031,26.5469 691.0938,26.9375 691.0938,27.3906 C691.0938,27.7813 690.7656,28.2344 690.1875,28.6406 C689.4375,29.1875 688.2813,29.4844 687.0625,29.4844 C684.1719,29.4844 682.0625,27.5938 682.0625,25.0156 L682.0625,23.8906 C682.0625,21.1719 684.0625,19.0938 686.6875,19.0938 C687.5625,19.0938 688.1563,19.2344 689.0938,19.6719 Z "/><text fill="#000000" font-family="sans-serif" font-size="12" lengthAdjust="spacingAndGlyphs" textLength="47" x="707.25" y="28.1543">AppInfo</text><line style="stroke: #A80036; stroke-width: 1.5;" x1="639.5" x2="789.5" y1="40" y2="40"/><text fill="#000000" font-family="sans-serif" font-size="11" lengthAdjust="spacingAndGlyphs" textLength="51" x="644.5" y="54.2104">-string id</text><text fill="#000000" font-family="sans-serif" font-size="11" lengthAdjust="spacingAndGlyphs" textLength="73" x="644.5" y="67.0151">-string name</text><text fill="#000000" font-family="sans-serif" font-size="11" lengthAdjust="spacingAndGlyphs" textLength="104" x="644.5" y="79.8198">-string description</text><text fill="#000000" font-family="sans-serif" font-size="11" lengthAdjust="spacingAndGlyphs" textLength="64" x="644.5" y="92.6245">-string icon</text><line style="stroke: #A80036; stroke-width: 1.5;" x1="639.5" x2="789.5" y1="99.2188" y2="99.2188"/><text fill="#000000" font-family="sans-serif" font-size="11" lengthAdjust="spacingAndGlyphs" textLength="87" x="644.5" y="113.4292">+getID(): string</text><text fill="#000000" font-family="sans-serif" font-size="11" lengthAdjust="spacingAndGlyphs" textLength="109" x="644.5" y="126.2339">+getName(): string</text><text fill="#000000" font-family="sans-serif" font-size="11" lengthAdjust="spacingAndGlyphs" textLength="140" x="644.5" y="139.0386">+getDescription(): string</text><text fill="#000000" font-family="sans-serif" font-size="11" lengthAdjust="spacingAndGlyphs" textLength="99" x="644.5" y="151.8433">+getIcon(): string</text><!--MD5=[05f32cd2a2c2a0832b2f1f53d27f9bf1]
link Downloader to Launcher--><path d="M196.828,120.086 C241.054,147.447 302.891,185.704 354.902,217.882 " fill="none" id="Downloader-Launcher" style="stroke: #A80036; stroke-width: 1.0;"/><!--MD5=[af023e8547f0790919085a64d265f3f2]
link CTManager to Launcher--><path d="M454.5,126.421 C454.5,153.148 454.5,188.105 454.5,217.865 " fill="none" id="CTManager-Launcher" style="stroke: #A80036; stroke-width: 1.0;"/><!--MD5=[86601398536a71ea74a8dec7c9fce91d]
link AppInfo to Launcher--><path d="M638.492,144.203 C632.424,148.897 626.372,153.542 620.5,158 C597.929,175.136 573.403,193.322 550.301,210.26 " fill="none" id="AppInfo-&gt;Launcher" style="stroke: #A80036; stroke-width: 1.0;"/><polygon fill="#FFFFFF" points="539.799,217.947,547.0032,217.6307,549.4821,210.8591,542.2779,211.1754,539.799,217.947" style="stroke: #A80036; stroke-width: 1.0;"/><text fill="#000000" font-family="sans-serif" font-size="13" lengthAdjust="spacingAndGlyphs" textLength="27" x="603.5202" y="146.0392">0...*</text><text fill="#000000" font-family="sans-serif" font-size="13" lengthAdjust="spacingAndGlyphs" textLength="8" x="541.1992" y="206.9316">1</text><!--MD5=[54c9e11c43ab5b9b93bd1ba59a033a27]
@startuml
Downloader - - Launcher
CTManager - - Launcher
AppInfo "0...*" - -o "1" Launcher

skinparam classAttributeIconSize 0
class Downloader { 
- downloadAppData(string url): List<AppInfo>
+ AppDictionary dictionary
}

class CTManager {
+ saveCT(string json)
+ validate(string json): bool
+ createCT(string json, AppInfo application): string
}

class AppInfo {
- string id
- string name
- string description
- string icon
+ getID(): string
+ getName(): string
+ getDescription(): string
+ getIcon(): string
}

class Launcher {
+ string UserID
+ string Username
+ List<AppInfo> UserApps
+ getApplications() @endpoint : UserApps
+ getComputations() @endpoint
+ postComputations() @endpoint
}
@enduml

PlantUML version 1.2019.12beta6(Unknown compile time)
(GPL source distribution)
Java Runtime: Java(TM) SE Runtime Environment
JVM: Java HotSpot(TM) 64-Bit Server VM
Java Version: 1.7.0_25-b15
Operating System: Linux
Default Encoding: UTF-8
Language: en
Country: US
--></g></svg>