<?xml version="1.0" encoding="UTF-8" standalone="no"?><svg xmlns="http://www.w3.org/2000/svg" xmlns:xlink="http://www.w3.org/1999/xlink" contentScriptType="application/ecmascript" contentStyleType="text/css" height="373px" preserveAspectRatio="none" style="width:606px;height:373px;" version="1.1" viewBox="0 0 606 373" width="606px" zoomAndPan="magnify"><defs><filter height="300%" id="f19h89v3p6j102" width="300%" x="-1" y="-1"><feGaussianBlur result="blurOut" stdDeviation="2.0"/><feColorMatrix in="blurOut" result="blurOut2" type="matrix" values="0 0 0 0 0 0 0 0 0 0 0 0 0 0 0 0 0 0 .4 0"/><feOffset dx="4.0" dy="4.0" in="blurOut2" result="blurOut3"/><feBlend in="SourceGraphic" in2="blurOut3" mode="normal"/></filter></defs><g><rect fill="#FFFFFF" filter="url(#f19h89v3p6j102)" height="140.0547" style="stroke: #383838; stroke-width: 1.0;" width="10" x="175.5" y="119.9609"/><rect fill="#FFFFFF" filter="url(#f19h89v3p6j102)" height="73.7031" style="stroke: #383838; stroke-width: 1.0;" width="10" x="480.5" y="150.3125"/><line style="stroke: #383838; stroke-width: 1.0; stroke-dasharray: 5.0,5.0;" x1="52" x2="52" y1="87.6094" y2="285.3672"/><line style="stroke: #383838; stroke-width: 1.0; stroke-dasharray: 5.0,5.0;" x1="180" x2="180" y1="87.6094" y2="285.3672"/><line style="stroke: #383838; stroke-width: 1.0; stroke-dasharray: 5.0,5.0;" x1="485.5" x2="485.5" y1="87.6094" y2="285.3672"/><text fill="#000000" font-family="sans-serif" font-size="14" lengthAdjust="spacingAndGlyphs" textLength="83" x="8" y="84.5332">Administrator</text><ellipse cx="52.5" cy="13" fill="#F8F8F8" filter="url(#f19h89v3p6j102)" rx="8" ry="8" style="stroke: #383838; stroke-width: 2.0;"/><path d="M52.5,21 L52.5,48 M39.5,29 L65.5,29 M52.5,48 L39.5,63 M52.5,48 L65.5,63 " fill="none" filter="url(#f19h89v3p6j102)" style="stroke: #383838; stroke-width: 2.0;"/><text fill="#000000" font-family="sans-serif" font-size="14" lengthAdjust="spacingAndGlyphs" textLength="83" x="8" y="298.9004">Administrator</text><ellipse cx="52.5" cy="311.9766" fill="#F8F8F8" filter="url(#f19h89v3p6j102)" rx="8" ry="8" style="stroke: #383838; stroke-width: 2.0;"/><path d="M52.5,319.9766 L52.5,346.9766 M39.5,327.9766 L65.5,327.9766 M52.5,346.9766 L39.5,361.9766 M52.5,346.9766 L65.5,361.9766 " fill="none" filter="url(#f19h89v3p6j102)" style="stroke: #383838; stroke-width: 2.0;"/><rect fill="#F8F8F8" filter="url(#f19h89v3p6j102)" height="31.6094" style="stroke: #383838; stroke-width: 1.5;" width="143" x="107" y="51"/><text fill="#000000" font-family="sans-serif" font-size="14" lengthAdjust="spacingAndGlyphs" textLength="129" x="114" y="72.5332">Machine Manager UI</text><rect fill="#F8F8F8" filter="url(#f19h89v3p6j102)" height="31.6094" style="stroke: #383838; stroke-width: 1.5;" width="143" x="107" y="284.3672"/><text fill="#000000" font-family="sans-serif" font-size="14" lengthAdjust="spacingAndGlyphs" textLength="129" x="114" y="305.9004">Machine Manager UI</text><rect fill="#F8F8F8" filter="url(#f19h89v3p6j102)" height="31.6094" style="stroke: #383838; stroke-width: 1.5;" width="74" x="446.5" y="51"/><text fill="#000000" font-family="sans-serif" font-size="14" lengthAdjust="spacingAndGlyphs" textLength="60" x="453.5" y="72.5332">Machines</text><rect fill="#F8F8F8" filter="url(#f19h89v3p6j102)" height="31.6094" style="stroke: #383838; stroke-width: 1.5;" width="74" x="446.5" y="284.3672"/><text fill="#000000" font-family="sans-serif" font-size="14" lengthAdjust="spacingAndGlyphs" textLength="60" x="453.5" y="305.9004">Machines</text><rect fill="#FFFFFF" filter="url(#f19h89v3p6j102)" height="140.0547" style="stroke: #383838; stroke-width: 1.0;" width="10" x="175.5" y="119.9609"/><rect fill="#FFFFFF" filter="url(#f19h89v3p6j102)" height="73.7031" style="stroke: #383838; stroke-width: 1.0;" width="10" x="480.5" y="150.3125"/><line style="stroke: #383838; stroke-width: 1.0;" x1="173.5" x2="163.5" y1="119.9609" y2="115.9609"/><line style="stroke: #383838; stroke-width: 1.0;" x1="173.5" x2="163.5" y1="119.9609" y2="123.9609"/><line style="stroke: #383838; stroke-width: 1.0;" x1="52.5" x2="174.5" y1="119.9609" y2="119.9609"/><text fill="#000000" font-family="sans-serif" font-size="13" lengthAdjust="spacingAndGlyphs" textLength="93" x="59.5" y="115.1045">onShowCNList()</text><polygon fill="#383838" points="468.5,146.3125,478.5,150.3125,468.5,154.3125,472.5,150.3125" style="stroke: #383838; stroke-width: 1.0;"/><line style="stroke: #383838; stroke-width: 1.0;" x1="185.5" x2="474.5" y1="150.3125" y2="150.3125"/><text fill="#000000" font-family="sans-serif" font-size="13" lengthAdjust="spacingAndGlyphs" textLength="276" x="192.5" y="145.4561">GET /machine-manager​/management​/machines</text><line style="stroke: #383838; stroke-width: 1.0;" x1="490.5" x2="532.5" y1="180.6641" y2="180.6641"/><line style="stroke: #383838; stroke-width: 1.0;" x1="532.5" x2="532.5" y1="180.6641" y2="193.6641"/><line style="stroke: #383838; stroke-width: 1.0;" x1="491.5" x2="532.5" y1="193.6641" y2="193.6641"/><polygon fill="#383838" points="501.5,189.6641,491.5,193.6641,501.5,197.6641,497.5,193.6641" style="stroke: #383838; stroke-width: 1.0;"/><text fill="#000000" font-family="sans-serif" font-size="13" lengthAdjust="spacingAndGlyphs" textLength="97" x="497.5" y="175.8076">getAllMachines()</text><line style="stroke: #383838; stroke-width: 1.0;" x1="185.5" x2="195.5" y1="224.0156" y2="220.0156"/><line style="stroke: #383838; stroke-width: 1.0;" x1="185.5" x2="195.5" y1="224.0156" y2="228.0156"/><line style="stroke: #383838; stroke-width: 1.0; stroke-dasharray: 2.0,2.0;" x1="185.5" x2="484.5" y1="224.0156" y2="224.0156"/><text fill="#000000" font-family="sans-serif" font-size="13" lengthAdjust="spacingAndGlyphs" textLength="119" x="202.5" y="219.1592">200, :List&lt;Machine&gt;</text><line style="stroke: #383838; stroke-width: 1.0;" x1="185.5" x2="227.5" y1="259.3672" y2="259.3672"/><line style="stroke: #383838; stroke-width: 1.0;" x1="227.5" x2="227.5" y1="259.3672" y2="272.3672"/><line style="stroke: #383838; stroke-width: 1.0;" x1="180.5" x2="227.5" y1="272.3672" y2="272.3672"/><polygon fill="#383838" points="190.5,268.3672,180.5,272.3672,190.5,276.3672,186.5,272.3672" style="stroke: #383838; stroke-width: 1.0;"/><text fill="#000000" font-family="sans-serif" font-size="13" lengthAdjust="spacingAndGlyphs" textLength="77" x="192.5" y="254.5107">showCNList()</text><!--
@startuml

skinparam monochrome true

actor Administrator
participant "Machine Manager UI" as ManagementUI


Administrator ->> ManagementUI : onShowCNList()
activate ManagementUI

ManagementUI -> Machines : GET /machine-manager​/management​/machines
activate Machines

Machines -> Machines : getAllMachines()
Machines  - ->> ManagementUI : 200, :List<Machine>
deactivate Machines

ManagementUI -> ManagementUI : showCNList()
deactivate ManagementUI

@enduml

PlantUML version 1.2018.11(Sat Sep 22 18:43:53 CEST 2018)
(GPL source distribution)
Java Runtime: OpenJDK Runtime Environment
JVM: OpenJDK 64-Bit Server VM
Java Version: 1.8.0_152-release-1248-b8
Operating System: Windows 10
OS Version: 10.0
Default Encoding: Cp1250
Language: pl
Country: PL
--></g></svg>