<?xml version="1.0" encoding="UTF-8" standalone="no"?><svg xmlns="http://www.w3.org/2000/svg" xmlns:xlink="http://www.w3.org/1999/xlink" contentScriptType="application/ecmascript" contentStyleType="text/css" height="811px" preserveAspectRatio="none" style="width:1882px;height:811px;" version="1.1" viewBox="0 0 1882 811" width="1882px" zoomAndPan="magnify"><defs><filter height="300%" id="f1pzujc81d4cl6" width="300%" x="-1" y="-1"><feGaussianBlur result="blurOut" stdDeviation="2.0"/><feColorMatrix in="blurOut" result="blurOut2" type="matrix" values="0 0 0 0 0 0 0 0 0 0 0 0 0 0 0 0 0 0 .4 0"/><feOffset dx="4.0" dy="4.0" in="blurOut2" result="blurOut3"/><feBlend in="SourceGraphic" in2="blurOut3" mode="normal"/></filter></defs><g><rect fill="#FFFFFF" filter="url(#f1pzujc81d4cl6)" height="36" style="stroke: #383838; stroke-width: 1.0;" width="10" x="283.5" y="71.9609"/><rect fill="#FFFFFF" filter="url(#f1pzujc81d4cl6)" height="30.3516" style="stroke: #383838; stroke-width: 1.0;" width="10" x="283.5" y="145.6641"/><rect fill="#FFFFFF" filter="url(#f1pzujc81d4cl6)" height="312.1641" style="stroke: #383838; stroke-width: 1.0;" width="10" x="540.5" y="176.0156"/><rect fill="#FFFFFF" filter="url(#f1pzujc81d4cl6)" height="538.2734" style="stroke: #383838; stroke-width: 1.0;" width="10" x="850.5" y="206.3672"/><rect fill="#FFFFFF" filter="url(#f1pzujc81d4cl6)" height="30.3516" style="stroke: #383838; stroke-width: 1.0;" width="10" x="1230.5" y="280.0703"/><rect fill="#FFFFFF" filter="url(#f1pzujc81d4cl6)" height="333.5156" style="stroke: #383838; stroke-width: 1.0;" width="10" x="1230.5" y="427.4766"/><rect fill="#FFFFFF" filter="url(#f1pzujc81d4cl6)" height="165.7578" style="stroke: #383838; stroke-width: 1.0;" width="10" x="1519.5" y="543.8828"/><rect fill="#FFFFFF" filter="url(#f1pzujc81d4cl6)" height="30.3516" style="stroke: #383838; stroke-width: 1.0;" width="10" x="1524.5" y="624.9375"/><rect fill="#FFFFFF" filter="url(#f1pzujc81d4cl6)" height="206.4609" style="stroke: #000000; stroke-width: 2.0;" width="704.5" x="1166.5" y="503.1797"/><rect fill="#FFFFFF" filter="url(#f1pzujc81d4cl6)" height="143.7578" style="stroke: #000000; stroke-width: 2.0;" width="684.5" x="1176.5" y="558.8828"/><rect fill="#FFFFFF" filter="url(#f1pzujc81d4cl6)" height="111.4063" style="stroke: #000000; stroke-width: 2.0;" width="664.5" x="1186.5" y="584.2344"/><rect fill="#FFFFFF" height="32.3516" style="stroke: none; stroke-width: 1.0;" width="664.5" x="1186.5" y="663.2891"/><line style="stroke: #383838; stroke-width: 1.0; stroke-dasharray: 5.0,5.0;" x1="31" x2="31" y1="39.6094" y2="769.9922"/><line style="stroke: #383838; stroke-width: 1.0; stroke-dasharray: 5.0,5.0;" x1="288.5" x2="288.5" y1="39.6094" y2="769.9922"/><line style="stroke: #383838; stroke-width: 1.0; stroke-dasharray: 5.0,5.0;" x1="545.5" x2="545.5" y1="39.6094" y2="769.9922"/><line style="stroke: #383838; stroke-width: 1.0; stroke-dasharray: 5.0,5.0;" x1="855" x2="855" y1="39.6094" y2="769.9922"/><line style="stroke: #383838; stroke-width: 1.0; stroke-dasharray: 5.0,5.0;" x1="1235.5" x2="1235.5" y1="39.6094" y2="769.9922"/><line style="stroke: #383838; stroke-width: 1.0; stroke-dasharray: 5.0,5.0;" x1="1524" x2="1524" y1="39.6094" y2="769.9922"/><line style="stroke: #383838; stroke-width: 1.0; stroke-dasharray: 5.0,5.0;" x1="1809" x2="1809" y1="39.6094" y2="769.9922"/><rect fill="#F8F8F8" filter="url(#f1pzujc81d4cl6)" height="31.6094" style="stroke: #383838; stroke-width: 1.5;" width="43" x="8" y="3"/><text fill="#000000" font-family="sans-serif" font-size="14" lengthAdjust="spacingAndGlyphs" textLength="29" x="15" y="24.5332">User</text><rect fill="#F8F8F8" filter="url(#f1pzujc81d4cl6)" height="31.6094" style="stroke: #383838; stroke-width: 1.5;" width="43" x="8" y="768.9922"/><text fill="#000000" font-family="sans-serif" font-size="14" lengthAdjust="spacingAndGlyphs" textLength="29" x="15" y="790.5254">User</text><rect fill="#F8F8F8" filter="url(#f1pzujc81d4cl6)" height="31.6094" style="stroke: #383838; stroke-width: 1.5;" width="86" x="243.5" y="3"/><text fill="#000000" font-family="sans-serif" font-size="14" lengthAdjust="spacingAndGlyphs" textLength="72" x="250.5" y="24.5332">LauncherUI</text><rect fill="#F8F8F8" filter="url(#f1pzujc81d4cl6)" height="31.6094" style="stroke: #383838; stroke-width: 1.5;" width="86" x="243.5" y="768.9922"/><text fill="#000000" font-family="sans-serif" font-size="14" lengthAdjust="spacingAndGlyphs" textLength="72" x="250.5" y="790.5254">LauncherUI</text><rect fill="#F8F8F8" filter="url(#f1pzujc81d4cl6)" height="31.6094" style="stroke: #383838; stroke-width: 1.5;" width="74" x="506.5" y="3"/><text fill="#000000" font-family="sans-serif" font-size="14" lengthAdjust="spacingAndGlyphs" textLength="60" x="513.5" y="24.5332">Launcher</text><rect fill="#F8F8F8" filter="url(#f1pzujc81d4cl6)" height="31.6094" style="stroke: #383838; stroke-width: 1.5;" width="74" x="506.5" y="768.9922"/><text fill="#000000" font-family="sans-serif" font-size="14" lengthAdjust="spacingAndGlyphs" textLength="60" x="513.5" y="790.5254">Launcher</text><rect fill="#F8F8F8" filter="url(#f1pzujc81d4cl6)" height="31.6094" style="stroke: #383838; stroke-width: 1.5;" width="101" x="803" y="3"/><text fill="#000000" font-family="sans-serif" font-size="14" lengthAdjust="spacingAndGlyphs" textLength="87" x="810" y="24.5332">Computations</text><rect fill="#F8F8F8" filter="url(#f1pzujc81d4cl6)" height="31.6094" style="stroke: #383838; stroke-width: 1.5;" width="101" x="803" y="768.9922"/><text fill="#000000" font-family="sans-serif" font-size="14" lengthAdjust="spacingAndGlyphs" textLength="87" x="810" y="790.5254">Computations</text><rect fill="#F8F8F8" filter="url(#f1pzujc81d4cl6)" height="31.6094" style="stroke: #383838; stroke-width: 1.5;" width="74" x="1196.5" y="3"/><text fill="#000000" font-family="sans-serif" font-size="14" lengthAdjust="spacingAndGlyphs" textLength="60" x="1203.5" y="24.5332">Machines</text><rect fill="#F8F8F8" filter="url(#f1pzujc81d4cl6)" height="31.6094" style="stroke: #383838; stroke-width: 1.5;" width="74" x="1196.5" y="768.9922"/><text fill="#000000" font-family="sans-serif" font-size="14" lengthAdjust="spacingAndGlyphs" textLength="60" x="1203.5" y="790.5254">Machines</text><rect fill="#F8F8F8" filter="url(#f1pzujc81d4cl6)" height="31.6094" style="stroke: #383838; stroke-width: 1.5;" width="67" x="1489" y="3"/><text fill="#000000" font-family="sans-serif" font-size="14" lengthAdjust="spacingAndGlyphs" textLength="53" x="1496" y="24.5332">Machine</text><rect fill="#F8F8F8" filter="url(#f1pzujc81d4cl6)" height="31.6094" style="stroke: #383838; stroke-width: 1.5;" width="67" x="1489" y="768.9922"/><text fill="#000000" font-family="sans-serif" font-size="14" lengthAdjust="spacingAndGlyphs" textLength="53" x="1496" y="790.5254">Machine</text><rect fill="#F8F8F8" filter="url(#f1pzujc81d4cl6)" height="31.6094" style="stroke: #383838; stroke-width: 1.5;" width="59" x="1778" y="3"/><text fill="#000000" font-family="sans-serif" font-size="14" lengthAdjust="spacingAndGlyphs" textLength="45" x="1785" y="24.5332">Logger</text><rect fill="#F8F8F8" filter="url(#f1pzujc81d4cl6)" height="31.6094" style="stroke: #383838; stroke-width: 1.5;" width="59" x="1778" y="768.9922"/><text fill="#000000" font-family="sans-serif" font-size="14" lengthAdjust="spacingAndGlyphs" textLength="45" x="1785" y="790.5254">Logger</text><rect fill="#FFFFFF" filter="url(#f1pzujc81d4cl6)" height="36" style="stroke: #383838; stroke-width: 1.0;" width="10" x="283.5" y="71.9609"/><rect fill="#FFFFFF" filter="url(#f1pzujc81d4cl6)" height="30.3516" style="stroke: #383838; stroke-width: 1.0;" width="10" x="283.5" y="145.6641"/><rect fill="#FFFFFF" filter="url(#f1pzujc81d4cl6)" height="312.1641" style="stroke: #383838; stroke-width: 1.0;" width="10" x="540.5" y="176.0156"/><rect fill="#FFFFFF" filter="url(#f1pzujc81d4cl6)" height="538.2734" style="stroke: #383838; stroke-width: 1.0;" width="10" x="850.5" y="206.3672"/><rect fill="#FFFFFF" filter="url(#f1pzujc81d4cl6)" height="30.3516" style="stroke: #383838; stroke-width: 1.0;" width="10" x="1230.5" y="280.0703"/><rect fill="#FFFFFF" filter="url(#f1pzujc81d4cl6)" height="333.5156" style="stroke: #383838; stroke-width: 1.0;" width="10" x="1230.5" y="427.4766"/><rect fill="#FFFFFF" filter="url(#f1pzujc81d4cl6)" height="165.7578" style="stroke: #383838; stroke-width: 1.0;" width="10" x="1519.5" y="543.8828"/><rect fill="#FFFFFF" filter="url(#f1pzujc81d4cl6)" height="30.3516" style="stroke: #383838; stroke-width: 1.0;" width="10" x="1524.5" y="624.9375"/><line style="stroke: #383838; stroke-width: 1.0;" x1="281.5" x2="271.5" y1="71.9609" y2="67.9609"/><line style="stroke: #383838; stroke-width: 1.0;" x1="281.5" x2="271.5" y1="71.9609" y2="75.9609"/><line style="stroke: #383838; stroke-width: 1.0;" x1="31.5" x2="282.5" y1="71.9609" y2="71.9609"/><text fill="#000000" font-family="sans-serif" font-size="13" lengthAdjust="spacingAndGlyphs" textLength="233" x="38.5" y="67.1045">onShowActivateTaskScreenClick(taskId)</text><line style="stroke: #383838; stroke-width: 1.0;" x1="293.5" x2="335.5" y1="107.3125" y2="107.3125"/><line style="stroke: #383838; stroke-width: 1.0;" x1="335.5" x2="335.5" y1="107.3125" y2="120.3125"/><line style="stroke: #383838; stroke-width: 1.0;" x1="288.5" x2="335.5" y1="120.3125" y2="120.3125"/><polygon fill="#383838" points="298.5,116.3125,288.5,120.3125,298.5,124.3125,294.5,120.3125" style="stroke: #383838; stroke-width: 1.0;"/><text fill="#000000" font-family="sans-serif" font-size="13" lengthAdjust="spacingAndGlyphs" textLength="188" x="300.5" y="102.4561">showActivateTaskScreen(taskId)</text><line style="stroke: #383838; stroke-width: 1.0;" x1="281.5" x2="271.5" y1="145.6641" y2="141.6641"/><line style="stroke: #383838; stroke-width: 1.0;" x1="281.5" x2="271.5" y1="145.6641" y2="149.6641"/><line style="stroke: #383838; stroke-width: 1.0;" x1="31.5" x2="282.5" y1="145.6641" y2="145.6641"/><text fill="#000000" font-family="sans-serif" font-size="13" lengthAdjust="spacingAndGlyphs" textLength="131" x="38.5" y="140.8076">onActivateTask(taskId)</text><line style="stroke: #383838; stroke-width: 1.0;" x1="538.5" x2="528.5" y1="176.0156" y2="172.0156"/><line style="stroke: #383838; stroke-width: 1.0;" x1="538.5" x2="528.5" y1="176.0156" y2="180.0156"/><line style="stroke: #383838; stroke-width: 1.0;" x1="288.5" x2="539.5" y1="176.0156" y2="176.0156"/><text fill="#000000" font-family="sans-serif" font-size="13" lengthAdjust="spacingAndGlyphs" textLength="228" x="295.5" y="171.1592">POST /launcher​/app-user​/computations</text><polygon fill="#383838" points="838.5,202.3672,848.5,206.3672,838.5,210.3672,842.5,206.3672" style="stroke: #383838; stroke-width: 1.0;"/><line style="stroke: #383838; stroke-width: 1.0;" x1="550.5" x2="844.5" y1="206.3672" y2="206.3672"/><text fill="#000000" font-family="sans-serif" font-size="13" lengthAdjust="spacingAndGlyphs" textLength="281" x="557.5" y="201.5107">POST /machine-manager/launcher/computations</text><line style="stroke: #383838; stroke-width: 1.0;" x1="860.5" x2="902.5" y1="236.7188" y2="236.7188"/><line style="stroke: #383838; stroke-width: 1.0;" x1="902.5" x2="902.5" y1="236.7188" y2="249.7188"/><line style="stroke: #383838; stroke-width: 1.0;" x1="861.5" x2="902.5" y1="249.7188" y2="249.7188"/><polygon fill="#383838" points="871.5,245.7188,861.5,249.7188,871.5,253.7188,867.5,249.7188" style="stroke: #383838; stroke-width: 1.0;"/><text fill="#000000" font-family="sans-serif" font-size="13" lengthAdjust="spacingAndGlyphs" textLength="356" x="867.5" y="231.8623">unpackComputationStepPackage(:ComputationStepPackage)</text><polygon fill="#383838" points="1218.5,276.0703,1228.5,280.0703,1218.5,284.0703,1222.5,280.0703" style="stroke: #383838; stroke-width: 1.0;"/><line style="stroke: #383838; stroke-width: 1.0;" x1="860.5" x2="1224.5" y1="280.0703" y2="280.0703"/><text fill="#000000" font-family="sans-serif" font-size="13" lengthAdjust="spacingAndGlyphs" textLength="133" x="867.5" y="275.2139">getAvailableMachines()</text><line style="stroke: #383838; stroke-width: 1.0;" x1="860.5" x2="870.5" y1="310.4219" y2="306.4219"/><line style="stroke: #383838; stroke-width: 1.0;" x1="860.5" x2="870.5" y1="310.4219" y2="314.4219"/><line style="stroke: #383838; stroke-width: 1.0; stroke-dasharray: 2.0,2.0;" x1="860.5" x2="1234.5" y1="310.4219" y2="310.4219"/><text fill="#000000" font-family="sans-serif" font-size="13" lengthAdjust="spacingAndGlyphs" textLength="90" x="877.5" y="305.5654">:List&lt;Machine&gt;</text><line style="stroke: #383838; stroke-width: 1.0;" x1="860.5" x2="902.5" y1="340.7734" y2="340.7734"/><line style="stroke: #383838; stroke-width: 1.0;" x1="902.5" x2="902.5" y1="340.7734" y2="353.7734"/><line style="stroke: #383838; stroke-width: 1.0;" x1="861.5" x2="902.5" y1="353.7734" y2="353.7734"/><polygon fill="#383838" points="871.5,349.7734,861.5,353.7734,871.5,357.7734,867.5,353.7734" style="stroke: #383838; stroke-width: 1.0;"/><text fill="#000000" font-family="sans-serif" font-size="13" lengthAdjust="spacingAndGlyphs" textLength="342" x="867.5" y="335.917">chooseBestMachineForComputationSteps(:List&lt;Machine&gt;)</text><line style="stroke: #383838; stroke-width: 1.0;" x1="860.5" x2="902.5" y1="384.125" y2="384.125"/><line style="stroke: #383838; stroke-width: 1.0;" x1="902.5" x2="902.5" y1="384.125" y2="397.125"/><line style="stroke: #383838; stroke-width: 1.0;" x1="861.5" x2="902.5" y1="397.125" y2="397.125"/><polygon fill="#383838" points="871.5,393.125,861.5,397.125,871.5,401.125,867.5,397.125" style="stroke: #383838; stroke-width: 1.0;"/><text fill="#000000" font-family="sans-serif" font-size="13" lengthAdjust="spacingAndGlyphs" textLength="203" x="867.5" y="379.2686">saveComputationDataToDatabase()</text><polygon fill="#383838" points="1218.5,423.4766,1228.5,427.4766,1218.5,431.4766,1222.5,427.4766" style="stroke: #383838; stroke-width: 1.0;"/><line style="stroke: #383838; stroke-width: 1.0;" x1="860.5" x2="1224.5" y1="427.4766" y2="427.4766"/><text fill="#000000" font-family="sans-serif" font-size="13" lengthAdjust="spacingAndGlyphs" textLength="295" x="867.5" y="422.6201">activateComputationTask(computationId, :Machine)</text><line style="stroke: #383838; stroke-width: 1.0;" x1="550.5" x2="560.5" y1="457.8281" y2="453.8281"/><line style="stroke: #383838; stroke-width: 1.0;" x1="550.5" x2="560.5" y1="457.8281" y2="461.8281"/><line style="stroke: #383838; stroke-width: 1.0; stroke-dasharray: 2.0,2.0;" x1="550.5" x2="849.5" y1="457.8281" y2="457.8281"/><text fill="#000000" font-family="sans-serif" font-size="13" lengthAdjust="spacingAndGlyphs" textLength="110" x="567.5" y="452.9717">201, computationId</text><line style="stroke: #383838; stroke-width: 1.0;" x1="288.5" x2="298.5" y1="488.1797" y2="484.1797"/><line style="stroke: #383838; stroke-width: 1.0;" x1="288.5" x2="298.5" y1="488.1797" y2="492.1797"/><line style="stroke: #383838; stroke-width: 1.0; stroke-dasharray: 2.0,2.0;" x1="288.5" x2="544.5" y1="488.1797" y2="488.1797"/><text fill="#000000" font-family="sans-serif" font-size="13" lengthAdjust="spacingAndGlyphs" textLength="82" x="305.5" y="483.3232">showCockpit()</text><path d="M1166.5,503.1797 L1239.5,503.1797 L1239.5,511.1797 L1229.5,521.1797 L1166.5,521.1797 L1166.5,503.1797 " fill="#EEEEEE" style="stroke: #000000; stroke-width: 1.0;"/><rect fill="none" height="206.4609" style="stroke: #000000; stroke-width: 2.0;" width="704.5" x="1166.5" y="503.1797"/><text fill="#000000" font-family="sans-serif" font-size="13" font-weight="bold" lengthAdjust="spacingAndGlyphs" textLength="28" x="1181.5" y="517.6748">loop</text><text fill="#000000" font-family="sans-serif" font-size="11" font-weight="bold" lengthAdjust="spacingAndGlyphs" textLength="149" x="1254.5" y="516.5986">[foreach ComputationStep]</text><polygon fill="#383838" points="1507.5,539.8828,1517.5,543.8828,1507.5,547.8828,1511.5,543.8828" style="stroke: #383838; stroke-width: 1.0;"/><line style="stroke: #383838; stroke-width: 1.0;" x1="1240.5" x2="1513.5" y1="543.8828" y2="543.8828"/><text fill="#000000" font-family="sans-serif" font-size="13" lengthAdjust="spacingAndGlyphs" textLength="260" x="1247.5" y="539.0264">POST /machine/computation/{computationId}</text><path d="M1176.5,558.8828 L1249.5,558.8828 L1249.5,566.8828 L1239.5,576.8828 L1176.5,576.8828 L1176.5,558.8828 " fill="#EEEEEE" style="stroke: #000000; stroke-width: 1.0;"/><rect fill="none" height="143.7578" style="stroke: #000000; stroke-width: 2.0;" width="684.5" x="1176.5" y="558.8828"/><text fill="#000000" font-family="sans-serif" font-size="13" font-weight="bold" lengthAdjust="spacingAndGlyphs" textLength="28" x="1191.5" y="573.3779">loop</text><text fill="#000000" font-family="sans-serif" font-size="11" font-weight="bold" lengthAdjust="spacingAndGlyphs" textLength="186" x="1264.5" y="572.3018">[while computation is performed]</text><path d="M1186.5,584.2344 L1252.5,584.2344 L1252.5,592.2344 L1242.5,602.2344 L1186.5,602.2344 L1186.5,584.2344 " fill="#EEEEEE" style="stroke: #000000; stroke-width: 1.0;"/><rect fill="none" height="111.4063" style="stroke: #000000; stroke-width: 2.0;" width="664.5" x="1186.5" y="584.2344"/><text fill="#000000" font-family="sans-serif" font-size="13" font-weight="bold" lengthAdjust="spacingAndGlyphs" textLength="21" x="1201.5" y="598.7295">par</text><polygon fill="#383838" points="1512.5,620.9375,1522.5,624.9375,1512.5,628.9375,1516.5,624.9375" style="stroke: #383838; stroke-width: 1.0;"/><line style="stroke: #383838; stroke-width: 1.0;" x1="1240.5" x2="1518.5" y1="624.9375" y2="624.9375"/><text fill="#000000" font-family="sans-serif" font-size="13" lengthAdjust="spacingAndGlyphs" textLength="180" x="1247.5" y="620.0811">GET ​/machine​/computation​/{id}</text><line style="stroke: #383838; stroke-width: 1.0;" x1="1240.5" x2="1250.5" y1="655.2891" y2="651.2891"/><line style="stroke: #383838; stroke-width: 1.0;" x1="1240.5" x2="1250.5" y1="655.2891" y2="659.2891"/><line style="stroke: #383838; stroke-width: 1.0; stroke-dasharray: 2.0,2.0;" x1="1240.5" x2="1518.5" y1="655.2891" y2="655.2891"/><text fill="#000000" font-family="sans-serif" font-size="13" lengthAdjust="spacingAndGlyphs" textLength="106" x="1257.5" y="650.4326">200, :Computation</text><line style="stroke: #000000; stroke-width: 1.0; stroke-dasharray: 2.0,2.0;" x1="1186.5" x2="1851" y1="664.2891" y2="664.2891"/><line style="stroke: #383838; stroke-width: 1.0;" x1="1807.5" x2="1797.5" y1="687.6406" y2="683.6406"/><line style="stroke: #383838; stroke-width: 1.0;" x1="1807.5" x2="1797.5" y1="687.6406" y2="691.6406"/><line style="stroke: #383838; stroke-width: 1.0; stroke-dasharray: 2.0,2.0;" x1="1529.5" x2="1808.5" y1="687.6406" y2="687.6406"/><text fill="#000000" font-family="sans-serif" font-size="13" lengthAdjust="spacingAndGlyphs" textLength="256" x="1536.5" y="682.7842">POST /logger/machine/computation/{id}/logs</text><line style="stroke: #383838; stroke-width: 1.0;" x1="860.5" x2="902.5" y1="743.9922" y2="743.9922"/><line style="stroke: #383838; stroke-width: 1.0;" x1="902.5" x2="902.5" y1="743.9922" y2="756.9922"/><line style="stroke: #383838; stroke-width: 1.0;" x1="855.5" x2="902.5" y1="756.9922" y2="756.9922"/><polygon fill="#383838" points="865.5,752.9922,855.5,756.9922,865.5,760.9922,861.5,756.9922" style="stroke: #383838; stroke-width: 1.0;"/><text fill="#000000" font-family="sans-serif" font-size="13" lengthAdjust="spacingAndGlyphs" textLength="315" x="867.5" y="739.1357">updateComputationFinishedInDatabase(computationId)</text><!--
@startuml

skinparam monochrome true


User ->> LauncherUI : onShowActivateTaskScreenClick(taskId)
activate LauncherUI
LauncherUI -> LauncherUI : showActivateTaskScreen(taskId)
deactivate LauncherUI


User ->> LauncherUI : onActivateTask(taskId)
activate LauncherUI

LauncherUI ->> Launcher : POST /launcher​/app-user​/computations
deactivate LauncherUI
activate Launcher

Launcher -> Computations : POST /machine-manager/launcher/computations
activate Computations

Computations -> Computations : unpackComputationStepPackage(:ComputationStepPackage)

Computations -> Machines : getAvailableMachines()
activate Machines
Machines - ->> Computations : :List<Machine>
deactivate Machines

Computations -> Computations : chooseBestMachineForComputationSteps(:List<Machine>)
Computations -> Computations : saveComputationDataToDatabase()

Computations -> Machines : activateComputationTask(computationId, :Machine)
activate Machines

Computations - ->> Launcher : 201, computationId
Launcher - ->> LauncherUI : showCockpit()
deactivate Launcher


loop foreach ComputationStep

    Machines -> Machine : POST /machine/computation/{computationId}
    activate Machine

    loop while computation is performed

        par

            Machines -> Machine : GET ​/machine​/computation​/{id}
            activate Machine

            Machine - ->> Machines : 200, :Computation
            deactivate Machine

        else

            Machine - ->> Logger : POST /logger/machine/computation/{id}/logs

        end par

    end loop

    deactivate Machine

end loop

Computations -> Computations : updateComputationFinishedInDatabase(computationId)
deactivate Computations

@enduml

PlantUML version 1.2018.11(Sat Sep 22 18:43:53 CEST 2018)
(GPL source distribution)
Java Runtime: OpenJDK Runtime Environment
JVM: OpenJDK 64-Bit Server VM
Java Version: 1.8.0_152-release-1248-b8
Operating System: Windows 10
OS Version: 10.0
Default Encoding: Cp1250
Language: pl
Country: PL
--></g></svg>