<?xml version="1.0" encoding="UTF-8" standalone="no"?>
<svg xmlns="http://www.w3.org/2000/svg" contentScriptType="application/ecmascript" contentStyleType="text/css"
		height="754px" preserveAspectRatio="none" style="width:2072px;height:754px;" version="1.1"
		viewBox="0 0 2072 754" width="2072px" zoomAndPan="magnify"><defs><filter height="300%" id="f652f64eme1l6" width="300%" x="-1" y="-1"><feGaussianBlur result="blurOut" stdDeviation="2.0"/><feColorMatrix in="blurOut" result="blurOut2" type="matrix" values="0 0 0 0 0 0 0 0 0 0 0 0 0 0 0 0 0 0 .4 0"/><feOffset dx="4.0" dy="4.0" in="blurOut2" result="blurOut3"/><feBlend in="SourceGraphic" in2="blurOut3" mode="normal"/></filter></defs><g><rect fill="#FFFFFF" filter="url(#f652f64eme1l6)" height="35.1328" style="stroke: #383838; stroke-width: 1.0;" width="10" x="305" y="69.4297"/><rect fill="#FFFFFF" filter="url(#f652f64eme1l6)" height="29.1328" style="stroke: #383838; stroke-width: 1.0;" width="10" x="305" y="140.6953"/><rect fill="#FFFFFF" filter="url(#f652f64eme1l6)" height="301.1953" style="stroke: #383838; stroke-width: 1.0;" width="10" x="584" y="169.8281"/><rect fill="#FFFFFF" filter="url(#f652f64eme1l6)" height="489.9922" style="stroke: #383838; stroke-width: 1.0;" width="10" x="924" y="198.9609"/><rect fill="#FFFFFF" filter="url(#f652f64eme1l6)" height="29.1328" style="stroke: #383838; stroke-width: 1.0;" width="10" x="1342" y="270.2266"/><rect fill="#FFFFFF" filter="url(#f652f64eme1l6)" height="292.1953" style="stroke: #383838; stroke-width: 1.0;" width="10" x="1342" y="412.7578"/><rect fill="#FFFFFF" filter="url(#f652f64eme1l6)" height="130.5313" style="stroke: #383838; stroke-width: 1.0;" width="10" x="1677" y="524.2891"/><rect fill="#FFFFFF" filter="url(#f652f64eme1l6)" height="168.7969" style="stroke: #000000; stroke-width: 2.0;" width="786" x="1275" y="486.0234"/><rect fill="#FFFFFF" filter="url(#f652f64eme1l6)" height="108.5313" style="stroke: #000000; stroke-width: 2.0;" width="766" x="1285" y="539.2891"/><rect fill="#FFFFFF" filter="url(#f652f64eme1l6)" height="77.3984" style="stroke: #000000; stroke-width: 2.0;" width="746" x="1295" y="563.4219"/><rect fill="#FFFFFF" height="31.1328" style="stroke: none; stroke-width: 1.0;" width="746" x="1295" y="609.6875"/><line style="stroke: #383838; stroke-width: 1.0; stroke-dasharray: 5.0,5.0;" x1="33" x2="33" y1="38.2969" y2="713.9531"/><line style="stroke: #383838; stroke-width: 1.0; stroke-dasharray: 5.0,5.0;" x1="309.5" x2="309.5" y1="38.2969" y2="713.9531"/><line style="stroke: #383838; stroke-width: 1.0; stroke-dasharray: 5.0,5.0;" x1="589" x2="589" y1="38.2969" y2="713.9531"/><line style="stroke: #383838; stroke-width: 1.0; stroke-dasharray: 5.0,5.0;" x1="928.5" x2="928.5" y1="38.2969" y2="713.9531"/><line style="stroke: #383838; stroke-width: 1.0; stroke-dasharray: 5.0,5.0;" x1="1347" x2="1347" y1="38.2969" y2="713.9531"/><line style="stroke: #383838; stroke-width: 1.0; stroke-dasharray: 5.0,5.0;" x1="1682" x2="1682" y1="38.2969" y2="713.9531"/><line style="stroke: #383838; stroke-width: 1.0; stroke-dasharray: 5.0,5.0;" x1="1998" x2="1998" y1="38.2969" y2="713.9531"/><rect fill="#F8F8F8" filter="url(#f652f64eme1l6)" height="30.2969" style="stroke: #383838; stroke-width: 1.5;" width="46" x="8" y="3"/><text fill="#000000" font-family="sans-serif" font-size="14" lengthAdjust="spacingAndGlyphs" textLength="32" x="15" y="22.9951">User</text><rect fill="#F8F8F8" filter="url(#f652f64eme1l6)" height="30.2969" style="stroke: #383838; stroke-width: 1.5;" width="46" x="8" y="712.9531"/><text fill="#000000" font-family="sans-serif" font-size="14" lengthAdjust="spacingAndGlyphs" textLength="32" x="15" y="732.9482">User</text><rect fill="#F8F8F8" filter="url(#f652f64eme1l6)" height="30.2969" style="stroke: #383838; stroke-width: 1.5;" width="91" x="262.5" y="3"/><text fill="#000000" font-family="sans-serif" font-size="14" lengthAdjust="spacingAndGlyphs" textLength="77" x="269.5" y="22.9951">LauncherUI</text><rect fill="#F8F8F8" filter="url(#f652f64eme1l6)" height="30.2969" style="stroke: #383838; stroke-width: 1.5;" width="91" x="262.5" y="712.9531"/><text fill="#000000" font-family="sans-serif" font-size="14" lengthAdjust="spacingAndGlyphs" textLength="77" x="269.5" y="732.9482">LauncherUI</text><rect fill="#F8F8F8" filter="url(#f652f64eme1l6)" height="30.2969" style="stroke: #383838; stroke-width: 1.5;" width="78" x="548" y="3"/><text fill="#000000" font-family="sans-serif" font-size="14" lengthAdjust="spacingAndGlyphs" textLength="64" x="555" y="22.9951">Launcher</text><rect fill="#F8F8F8" filter="url(#f652f64eme1l6)" height="30.2969" style="stroke: #383838; stroke-width: 1.5;" width="78" x="548" y="712.9531"/><text fill="#000000" font-family="sans-serif" font-size="14" lengthAdjust="spacingAndGlyphs" textLength="64" x="555" y="732.9482">Launcher</text><rect fill="#F8F8F8" filter="url(#f652f64eme1l6)" height="30.2969" style="stroke: #383838; stroke-width: 1.5;" width="111" x="871.5" y="3"/><text fill="#000000" font-family="sans-serif" font-size="14" lengthAdjust="spacingAndGlyphs" textLength="97" x="878.5" y="22.9951">Computations</text><rect fill="#F8F8F8" filter="url(#f652f64eme1l6)" height="30.2969" style="stroke: #383838; stroke-width: 1.5;" width="111" x="871.5" y="712.9531"/><text fill="#000000" font-family="sans-serif" font-size="14" lengthAdjust="spacingAndGlyphs" textLength="97" x="878.5" y="732.9482">Computations</text><rect fill="#F8F8F8" filter="url(#f652f64eme1l6)" height="30.2969" style="stroke: #383838; stroke-width: 1.5;" width="80" x="1305" y="3"/><text fill="#000000" font-family="sans-serif" font-size="14" lengthAdjust="spacingAndGlyphs" textLength="66" x="1312" y="22.9951">Machines</text><rect fill="#F8F8F8" filter="url(#f652f64eme1l6)" height="30.2969" style="stroke: #383838; stroke-width: 1.5;" width="80" x="1305" y="712.9531"/><text fill="#000000" font-family="sans-serif" font-size="14" lengthAdjust="spacingAndGlyphs" textLength="66" x="1312" y="732.9482">Machines</text><rect fill="#F8F8F8" filter="url(#f652f64eme1l6)" height="30.2969" style="stroke: #383838; stroke-width: 1.5;" width="72" x="1644" y="3"/><text fill="#000000" font-family="sans-serif" font-size="14" lengthAdjust="spacingAndGlyphs" textLength="58" x="1651" y="22.9951">Machine</text><rect fill="#F8F8F8" filter="url(#f652f64eme1l6)" height="30.2969" style="stroke: #383838; stroke-width: 1.5;" width="72" x="1644" y="712.9531"/><text fill="#000000" font-family="sans-serif" font-size="14" lengthAdjust="spacingAndGlyphs" textLength="58" x="1651" y="732.9482">Machine</text><rect fill="#F8F8F8" filter="url(#f652f64eme1l6)" height="30.2969" style="stroke: #383838; stroke-width: 1.5;" width="62" x="1965" y="3"/><text fill="#000000" font-family="sans-serif" font-size="14" lengthAdjust="spacingAndGlyphs" textLength="48" x="1972" y="22.9951">Logger</text><rect fill="#F8F8F8" filter="url(#f652f64eme1l6)" height="30.2969" style="stroke: #383838; stroke-width: 1.5;" width="62" x="1965" y="712.9531"/><text fill="#000000" font-family="sans-serif" font-size="14" lengthAdjust="spacingAndGlyphs" textLength="48" x="1972" y="732.9482">Logger</text><rect fill="#FFFFFF" filter="url(#f652f64eme1l6)" height="35.1328" style="stroke: #383838; stroke-width: 1.0;" width="10" x="305" y="69.4297"/><rect fill="#FFFFFF" filter="url(#f652f64eme1l6)" height="29.1328" style="stroke: #383838; stroke-width: 1.0;" width="10" x="305" y="140.6953"/><rect fill="#FFFFFF" filter="url(#f652f64eme1l6)" height="301.1953" style="stroke: #383838; stroke-width: 1.0;" width="10" x="584" y="169.8281"/><rect fill="#FFFFFF" filter="url(#f652f64eme1l6)" height="489.9922" style="stroke: #383838; stroke-width: 1.0;" width="10" x="924" y="198.9609"/><rect fill="#FFFFFF" filter="url(#f652f64eme1l6)" height="29.1328" style="stroke: #383838; stroke-width: 1.0;" width="10" x="1342" y="270.2266"/><rect fill="#FFFFFF" filter="url(#f652f64eme1l6)" height="292.1953" style="stroke: #383838; stroke-width: 1.0;" width="10" x="1342" y="412.7578"/><rect fill="#FFFFFF" filter="url(#f652f64eme1l6)" height="130.5313" style="stroke: #383838; stroke-width: 1.0;" width="10" x="1677" y="524.2891"/><line style="stroke: #383838; stroke-width: 1.0;" x1="303" x2="293" y1="69.4297" y2="65.4297"/><line style="stroke: #383838; stroke-width: 1.0;" x1="303" x2="293" y1="69.4297" y2="73.4297"/><line style="stroke: #383838; stroke-width: 1.0;" x1="33" x2="304" y1="69.4297" y2="69.4297"/><text fill="#000000" font-family="sans-serif" font-size="13" lengthAdjust="spacingAndGlyphs" textLength="253" x="40" y="64.3638">onShowActivateTaskScreenClick(taskId)</text><line style="stroke: #383838; stroke-width: 1.0;" x1="315" x2="357" y1="103.5625" y2="103.5625"/><line style="stroke: #383838; stroke-width: 1.0;" x1="357" x2="357" y1="103.5625" y2="116.5625"/><line style="stroke: #383838; stroke-width: 1.0;" x1="310" x2="357" y1="116.5625" y2="116.5625"/><polygon fill="#383838" points="320,112.5625,310,116.5625,320,120.5625,316,116.5625" style="stroke: #383838; stroke-width: 1.0;"/><text fill="#000000" font-family="sans-serif" font-size="13" lengthAdjust="spacingAndGlyphs" textLength="206" x="322" y="98.4966">showActivateTaskScreen(taskId)</text><line style="stroke: #383838; stroke-width: 1.0;" x1="303" x2="293" y1="140.6953" y2="136.6953"/><line style="stroke: #383838; stroke-width: 1.0;" x1="303" x2="293" y1="140.6953" y2="144.6953"/><line style="stroke: #383838; stroke-width: 1.0;" x1="33" x2="304" y1="140.6953" y2="140.6953"/><text fill="#000000" font-family="sans-serif" font-size="13" lengthAdjust="spacingAndGlyphs" textLength="145" x="40" y="135.6294">onActivateTask(taskId)</text><line style="stroke: #383838; stroke-width: 1.0;" x1="582" x2="572" y1="169.8281" y2="165.8281"/><line style="stroke: #383838; stroke-width: 1.0;" x1="582" x2="572" y1="169.8281" y2="173.8281"/><line style="stroke: #383838; stroke-width: 1.0;" x1="310" x2="583" y1="169.8281" y2="169.8281"/><text fill="#000000" font-family="sans-serif" font-size="13" lengthAdjust="spacingAndGlyphs" textLength="250" x="317" y="164.7622">POST /launcher​/app-user​/computations</text><polygon fill="#383838" points="912,194.9609,922,198.9609,912,202.9609,916,198.9609" style="stroke: #383838; stroke-width: 1.0;"/><line style="stroke: #383838; stroke-width: 1.0;" x1="594" x2="918" y1="198.9609" y2="198.9609"/><text fill="#000000" font-family="sans-serif" font-size="13" lengthAdjust="spacingAndGlyphs" textLength="311" x="601" y="193.895">POST /machine-manager/launcher/computations</text><line style="stroke: #383838; stroke-width: 1.0;" x1="934" x2="976" y1="228.0938" y2="228.0938"/><line style="stroke: #383838; stroke-width: 1.0;" x1="976" x2="976" y1="228.0938" y2="241.0938"/><line style="stroke: #383838; stroke-width: 1.0;" x1="935" x2="976" y1="241.0938" y2="241.0938"/><polygon fill="#383838" points="945,237.0938,935,241.0938,945,245.0938,941,241.0938" style="stroke: #383838; stroke-width: 1.0;"/><text fill="#000000" font-family="sans-serif" font-size="13" lengthAdjust="spacingAndGlyphs" textLength="394" x="941" y="223.0278">unpackComputationStepPackage(:ComputationStepPackage)</text><polygon fill="#383838" points="1330,266.2266,1340,270.2266,1330,274.2266,1334,270.2266" style="stroke: #383838; stroke-width: 1.0;"/><line style="stroke: #383838; stroke-width: 1.0;" x1="934" x2="1336" y1="270.2266" y2="270.2266"/><text fill="#000000" font-family="sans-serif" font-size="13" lengthAdjust="spacingAndGlyphs" textLength="148" x="941" y="265.1606">getAvailableMachines()</text><line style="stroke: #383838; stroke-width: 1.0;" x1="934" x2="944" y1="299.3594" y2="295.3594"/><line style="stroke: #383838; stroke-width: 1.0;" x1="934" x2="944" y1="299.3594" y2="303.3594"/><line style="stroke: #383838; stroke-width: 1.0; stroke-dasharray: 2.0,2.0;" x1="934" x2="1346" y1="299.3594" y2="299.3594"/><text fill="#000000" font-family="sans-serif" font-size="13" lengthAdjust="spacingAndGlyphs" textLength="101" x="951" y="294.2935">:List&lt;Machine&gt;</text><line style="stroke: #383838; stroke-width: 1.0;" x1="934" x2="976" y1="328.4922" y2="328.4922"/><line style="stroke: #383838; stroke-width: 1.0;" x1="976" x2="976" y1="328.4922" y2="341.4922"/><line style="stroke: #383838; stroke-width: 1.0;" x1="935" x2="976" y1="341.4922" y2="341.4922"/><polygon fill="#383838" points="945,337.4922,935,341.4922,945,345.4922,941,341.4922" style="stroke: #383838; stroke-width: 1.0;"/><text fill="#000000" font-family="sans-serif" font-size="13" lengthAdjust="spacingAndGlyphs" textLength="379" x="941" y="323.4263">chooseBestMachineForComputationSteps(:List&lt;Machine&gt;)</text><line style="stroke: #383838; stroke-width: 1.0;" x1="934" x2="976" y1="370.625" y2="370.625"/><line style="stroke: #383838; stroke-width: 1.0;" x1="976" x2="976" y1="370.625" y2="383.625"/><line style="stroke: #383838; stroke-width: 1.0;" x1="935" x2="976" y1="383.625" y2="383.625"/><polygon fill="#383838" points="945,379.625,935,383.625,945,387.625,941,383.625" style="stroke: #383838; stroke-width: 1.0;"/><text fill="#000000" font-family="sans-serif" font-size="13" lengthAdjust="spacingAndGlyphs" textLength="231" x="941" y="365.5591">saveComputationDataToDatabase()</text><polygon fill="#383838" points="1330,408.7578,1340,412.7578,1330,416.7578,1334,412.7578" style="stroke: #383838; stroke-width: 1.0;"/><line style="stroke: #383838; stroke-width: 1.0;" x1="934" x2="1336" y1="412.7578" y2="412.7578"/><text fill="#000000" font-family="sans-serif" font-size="13" lengthAdjust="spacingAndGlyphs" textLength="330" x="941" y="407.6919">activateComputationTask(computationId, :Machine)</text><line style="stroke: #383838; stroke-width: 1.0;" x1="594" x2="604" y1="441.8906" y2="437.8906"/><line style="stroke: #383838; stroke-width: 1.0;" x1="594" x2="604" y1="441.8906" y2="445.8906"/><line style="stroke: #383838; stroke-width: 1.0; stroke-dasharray: 2.0,2.0;" x1="594" x2="923" y1="441.8906" y2="441.8906"/><text fill="#000000" font-family="sans-serif" font-size="13" lengthAdjust="spacingAndGlyphs" textLength="124" x="611" y="436.8247">201, computationId</text><line style="stroke: #383838; stroke-width: 1.0;" x1="310" x2="320" y1="471.0234" y2="467.0234"/><line style="stroke: #383838; stroke-width: 1.0;" x1="310" x2="320" y1="471.0234" y2="475.0234"/><line style="stroke: #383838; stroke-width: 1.0; stroke-dasharray: 2.0,2.0;" x1="310" x2="588" y1="471.0234" y2="471.0234"/><text fill="#000000" font-family="sans-serif" font-size="13" lengthAdjust="spacingAndGlyphs" textLength="89" x="327" y="465.9575">showCockpit()</text><path d="M1275,486.0234 L1352,486.0234 L1352,493.0234 L1342,503.0234 L1275,503.0234 L1275,486.0234 " fill="#EEEEEE" style="stroke: #000000; stroke-width: 1.0;"/><rect fill="none" height="168.7969" style="stroke: #000000; stroke-width: 2.0;" width="786" x="1275" y="486.0234"/><text fill="#000000" font-family="sans-serif" font-size="13" font-weight="bold" lengthAdjust="spacingAndGlyphs" textLength="32" x="1290" y="499.0903">loop</text><text fill="#000000" font-family="sans-serif" font-size="11" font-weight="bold" lengthAdjust="spacingAndGlyphs" textLength="174" x="1367" y="498.2339">[foreach ComputationStep]</text><polygon fill="#383838" points="1665,520.2891,1675,524.2891,1665,528.2891,1669,524.2891" style="stroke: #383838; stroke-width: 1.0;"/><line style="stroke: #383838; stroke-width: 1.0;" x1="1352" x2="1671" y1="524.2891" y2="524.2891"/><text fill="#000000" font-family="sans-serif" font-size="13" lengthAdjust="spacingAndGlyphs" textLength="294" x="1359" y="519.2231">POST /machine/computation/{computationId}</text><path d="M1285,539.2891 L1362,539.2891 L1362,546.2891 L1352,556.2891 L1285,556.2891 L1285,539.2891 " fill="#EEEEEE" style="stroke: #000000; stroke-width: 1.0;"/><rect fill="none" height="108.5313" style="stroke: #000000; stroke-width: 2.0;" width="766" x="1285" y="539.2891"/><text fill="#000000" font-family="sans-serif" font-size="13" font-weight="bold" lengthAdjust="spacingAndGlyphs" textLength="32" x="1300" y="552.356">loop</text><text fill="#000000" font-family="sans-serif" font-size="11" font-weight="bold" lengthAdjust="spacingAndGlyphs" textLength="214" x="1377" y="551.4995">[while computation is performed]</text><path d="M1295,563.4219 L1365,563.4219 L1365,570.4219 L1355,580.4219 L1295,580.4219 L1295,563.4219 " fill="#EEEEEE" style="stroke: #000000; stroke-width: 1.0;"/><rect fill="none" height="77.3984" style="stroke: #000000; stroke-width: 2.0;" width="746" x="1295" y="563.4219"/><text fill="#000000" font-family="sans-serif" font-size="13" font-weight="bold" lengthAdjust="spacingAndGlyphs" textLength="25" x="1310" y="576.4888">par</text><line style="stroke: #383838; stroke-width: 1.0;" x1="1352" x2="1362" y1="601.6875" y2="597.6875"/><line style="stroke: #383838; stroke-width: 1.0;" x1="1352" x2="1362" y1="601.6875" y2="605.6875"/><line style="stroke: #383838; stroke-width: 1.0; stroke-dasharray: 2.0,2.0;" x1="1352" x2="1676" y1="601.6875" y2="601.6875"/><text fill="#000000" font-family="sans-serif" font-size="13" lengthAdjust="spacingAndGlyphs" textLength="301" x="1369" y="596.6216">POST /machine-manager/machines/status/{id}</text><line style="stroke: #000000; stroke-width: 1.0; stroke-dasharray: 2.0,2.0;" x1="1295" x2="2041" y1="610.6875" y2="610.6875"/><line style="stroke: #383838; stroke-width: 1.0;" x1="1996" x2="1986" y1="632.8203" y2="628.8203"/><line style="stroke: #383838; stroke-width: 1.0;" x1="1996" x2="1986" y1="632.8203" y2="636.8203"/><line style="stroke: #383838; stroke-width: 1.0; stroke-dasharray: 2.0,2.0;" x1="1687" x2="1997" y1="632.8203" y2="632.8203"/><text fill="#000000" font-family="sans-serif" font-size="13" lengthAdjust="spacingAndGlyphs" textLength="287" x="1694" y="627.7544">POST /logger/machine/computation/{id}/logs</text><line style="stroke: #383838; stroke-width: 1.0;" x1="934" x2="976" y1="687.9531" y2="687.9531"/><line style="stroke: #383838; stroke-width: 1.0;" x1="976" x2="976" y1="687.9531" y2="700.9531"/><line style="stroke: #383838; stroke-width: 1.0;" x1="929" x2="976" y1="700.9531" y2="700.9531"/><polygon fill="#383838" points="939,696.9531,929,700.9531,939,704.9531,935,700.9531" style="stroke: #383838; stroke-width: 1.0;"/><text fill="#000000" font-family="sans-serif" font-size="13" lengthAdjust="spacingAndGlyphs" textLength="355" x="941" y="682.8872">updateComputationFinishedInDatabase(computationId)</text><!--MD5=[983c826a788f55f5546aa7ba0ad4f7b3]
@startuml
skinparam monochrome true


User ->> LauncherUI : onShowActivateTaskScreenClick(taskId)
activate LauncherUI
LauncherUI -> LauncherUI : showActivateTaskScreen(taskId)
deactivate LauncherUI


User ->> LauncherUI : onActivateTask(taskId)
activate LauncherUI

LauncherUI ->> Launcher : POST /launcher​/app-user​/computations
deactivate LauncherUI
activate Launcher

Launcher -> Computations : POST /machine-manager/launcher/computations
activate Computations

Computations -> Computations : unpackComputationStepPackage(:ComputationStepPackage)

Computations -> Machines : getAvailableMachines()
activate Machines
Machines - ->> Computations : :List<Machine>
deactivate Machines

Computations -> Computations : chooseBestMachineForComputationSteps(:List<Machine>)
Computations -> Computations : saveComputationDataToDatabase()

Computations -> Machines : activateComputationTask(computationId, :Machine)
activate Machines

Computations - ->> Launcher : 201, computationId
Launcher - ->> LauncherUI : showCockpit()
deactivate Launcher


loop foreach ComputationStep

    Machines -> Machine : POST /machine/computation/{computationId}
    activate Machine

    loop while computation is performed

        par

			Machine - ->> Machines : POST /machine-manager/machines/status/{id}

        else

            Machine - ->> Logger : POST /logger/machine/computation/{id}/logs

        end par

    end loop

    deactivate Machine

end loop

Computations -> Computations : updateComputationFinishedInDatabase(computationId)
deactivate Computations
@enduml

PlantUML version 1.2020.00(Sat Jan 11 12:30:53 UTC 2020)
(GPL source distribution)
Java Runtime: Java(TM) SE Runtime Environment
JVM: Java HotSpot(TM) 64-Bit Server VM
Java Version: 1.7.0_25-b15
Operating System: Linux
Default Encoding: UTF-8
Language: en
Country: US
--></g></svg>