<?xml version="1.0" encoding="UTF-8" standalone="no"?><svg xmlns="http://www.w3.org/2000/svg" xmlns:xlink="http://www.w3.org/1999/xlink" contentScriptType="application/ecmascript" contentStyleType="text/css" height="857px" preserveAspectRatio="none" style="width:1879px;height:857px;" version="1.1" viewBox="0 0 1879 857" width="1879px" zoomAndPan="magnify"><defs><filter height="300%" id="f1x4ijlb79cz75" width="300%" x="-1" y="-1"><feGaussianBlur result="blurOut" stdDeviation="2.0"/><feColorMatrix in="blurOut" result="blurOut2" type="matrix" values="0 0 0 0 0 0 0 0 0 0 0 0 0 0 0 0 0 0 .4 0"/><feOffset dx="4.0" dy="4.0" in="blurOut2" result="blurOut3"/><feBlend in="SourceGraphic" in2="blurOut3" mode="normal"/></filter></defs><g><rect fill="#FFFFFF" filter="url(#f1x4ijlb79cz75)" height="36" style="stroke: #383838; stroke-width: 1.0;" width="10" x="277.5" y="119.9609"/><rect fill="#FFFFFF" filter="url(#f1x4ijlb79cz75)" height="30.3516" style="stroke: #383838; stroke-width: 1.0;" width="10" x="277.5" y="193.6641"/><rect fill="#FFFFFF" filter="url(#f1x4ijlb79cz75)" height="326.1641" style="stroke: #383838; stroke-width: 1.0;" width="10" x="534.5" y="224.0156"/><rect fill="#FFFFFF" filter="url(#f1x4ijlb79cz75)" height="489.5703" style="stroke: #383838; stroke-width: 1.0;" width="10" x="844.5" y="254.3672"/><rect fill="#FFFFFF" filter="url(#f1x4ijlb79cz75)" height="30.3516" style="stroke: #383838; stroke-width: 1.0;" width="10" x="1224.5" y="328.0703"/><rect fill="#FFFFFF" filter="url(#f1x4ijlb79cz75)" height="240.4609" style="stroke: #383838; stroke-width: 1.0;" width="10" x="1224.5" y="475.4766"/><rect fill="#FFFFFF" filter="url(#f1x4ijlb79cz75)" height="135.4063" style="stroke: #383838; stroke-width: 1.0;" width="10" x="1526.5" y="580.5313"/><rect fill="#FFFFFF" filter="url(#f1x4ijlb79cz75)" height="113.4063" style="stroke: #000000; stroke-width: 2.0;" width="697.5" x="1170.5" y="595.5313"/><rect fill="#FFFFFF" filter="url(#f1x4ijlb79cz75)" height="81.0547" style="stroke: #000000; stroke-width: 2.0;" width="677.5" x="1180.5" y="620.8828"/><rect fill="#FFFFFF" height="32.3516" style="stroke: none; stroke-width: 1.0;" width="677.5" x="1180.5" y="669.5859"/><line style="stroke: #383838; stroke-width: 1.0; stroke-dasharray: 5.0,5.0;" x1="25" x2="25" y1="87.6094" y2="769.2891"/><line style="stroke: #383838; stroke-width: 1.0; stroke-dasharray: 5.0,5.0;" x1="282.5" x2="282.5" y1="87.6094" y2="769.2891"/><line style="stroke: #383838; stroke-width: 1.0; stroke-dasharray: 5.0,5.0;" x1="539.5" x2="539.5" y1="87.6094" y2="769.2891"/><line style="stroke: #383838; stroke-width: 1.0; stroke-dasharray: 5.0,5.0;" x1="849" x2="849" y1="87.6094" y2="769.2891"/><line style="stroke: #383838; stroke-width: 1.0; stroke-dasharray: 5.0,5.0;" x1="1229.5" x2="1229.5" y1="87.6094" y2="769.2891"/><line style="stroke: #383838; stroke-width: 1.0; stroke-dasharray: 5.0,5.0;" x1="1531" x2="1531" y1="87.6094" y2="769.2891"/><line style="stroke: #383838; stroke-width: 1.0; stroke-dasharray: 5.0,5.0;" x1="1816" x2="1816" y1="87.6094" y2="769.2891"/><text fill="#000000" font-family="sans-serif" font-size="14" lengthAdjust="spacingAndGlyphs" textLength="29" x="8" y="84.5332">User</text><ellipse cx="25.5" cy="13" fill="#F8F8F8" filter="url(#f1x4ijlb79cz75)" rx="8" ry="8" style="stroke: #383838; stroke-width: 2.0;"/><path d="M25.5,21 L25.5,48 M12.5,29 L38.5,29 M25.5,48 L12.5,63 M25.5,48 L38.5,63 " fill="none" filter="url(#f1x4ijlb79cz75)" style="stroke: #383838; stroke-width: 2.0;"/><text fill="#000000" font-family="sans-serif" font-size="14" lengthAdjust="spacingAndGlyphs" textLength="29" x="8" y="782.8223">User</text><ellipse cx="25.5" cy="795.8984" fill="#F8F8F8" filter="url(#f1x4ijlb79cz75)" rx="8" ry="8" style="stroke: #383838; stroke-width: 2.0;"/><path d="M25.5,803.8984 L25.5,830.8984 M12.5,811.8984 L38.5,811.8984 M25.5,830.8984 L12.5,845.8984 M25.5,830.8984 L38.5,845.8984 " fill="none" filter="url(#f1x4ijlb79cz75)" style="stroke: #383838; stroke-width: 2.0;"/><rect fill="#F8F8F8" filter="url(#f1x4ijlb79cz75)" height="31.6094" style="stroke: #383838; stroke-width: 1.5;" width="86" x="237.5" y="51"/><text fill="#000000" font-family="sans-serif" font-size="14" lengthAdjust="spacingAndGlyphs" textLength="72" x="244.5" y="72.5332">LauncherUI</text><rect fill="#F8F8F8" filter="url(#f1x4ijlb79cz75)" height="31.6094" style="stroke: #383838; stroke-width: 1.5;" width="86" x="237.5" y="768.2891"/><text fill="#000000" font-family="sans-serif" font-size="14" lengthAdjust="spacingAndGlyphs" textLength="72" x="244.5" y="789.8223">LauncherUI</text><rect fill="#F8F8F8" filter="url(#f1x4ijlb79cz75)" height="31.6094" style="stroke: #383838; stroke-width: 1.5;" width="74" x="500.5" y="51"/><text fill="#000000" font-family="sans-serif" font-size="14" lengthAdjust="spacingAndGlyphs" textLength="60" x="507.5" y="72.5332">Launcher</text><rect fill="#F8F8F8" filter="url(#f1x4ijlb79cz75)" height="31.6094" style="stroke: #383838; stroke-width: 1.5;" width="74" x="500.5" y="768.2891"/><text fill="#000000" font-family="sans-serif" font-size="14" lengthAdjust="spacingAndGlyphs" textLength="60" x="507.5" y="789.8223">Launcher</text><rect fill="#F8F8F8" filter="url(#f1x4ijlb79cz75)" height="31.6094" style="stroke: #383838; stroke-width: 1.5;" width="101" x="797" y="51"/><text fill="#000000" font-family="sans-serif" font-size="14" lengthAdjust="spacingAndGlyphs" textLength="87" x="804" y="72.5332">Computations</text><rect fill="#F8F8F8" filter="url(#f1x4ijlb79cz75)" height="31.6094" style="stroke: #383838; stroke-width: 1.5;" width="101" x="797" y="768.2891"/><text fill="#000000" font-family="sans-serif" font-size="14" lengthAdjust="spacingAndGlyphs" textLength="87" x="804" y="789.8223">Computations</text><rect fill="#F8F8F8" filter="url(#f1x4ijlb79cz75)" height="31.6094" style="stroke: #383838; stroke-width: 1.5;" width="74" x="1190.5" y="51"/><text fill="#000000" font-family="sans-serif" font-size="14" lengthAdjust="spacingAndGlyphs" textLength="60" x="1197.5" y="72.5332">Machines</text><rect fill="#F8F8F8" filter="url(#f1x4ijlb79cz75)" height="31.6094" style="stroke: #383838; stroke-width: 1.5;" width="74" x="1190.5" y="768.2891"/><text fill="#000000" font-family="sans-serif" font-size="14" lengthAdjust="spacingAndGlyphs" textLength="60" x="1197.5" y="789.8223">Machines</text><rect fill="#F8F8F8" filter="url(#f1x4ijlb79cz75)" height="31.6094" style="stroke: #383838; stroke-width: 1.5;" width="67" x="1496" y="51"/><text fill="#000000" font-family="sans-serif" font-size="14" lengthAdjust="spacingAndGlyphs" textLength="53" x="1503" y="72.5332">Machine</text><rect fill="#F8F8F8" filter="url(#f1x4ijlb79cz75)" height="31.6094" style="stroke: #383838; stroke-width: 1.5;" width="67" x="1496" y="768.2891"/><text fill="#000000" font-family="sans-serif" font-size="14" lengthAdjust="spacingAndGlyphs" textLength="53" x="1503" y="789.8223">Machine</text><rect fill="#F8F8F8" filter="url(#f1x4ijlb79cz75)" height="31.6094" style="stroke: #383838; stroke-width: 1.5;" width="59" x="1785" y="51"/><text fill="#000000" font-family="sans-serif" font-size="14" lengthAdjust="spacingAndGlyphs" textLength="45" x="1792" y="72.5332">Logger</text><rect fill="#F8F8F8" filter="url(#f1x4ijlb79cz75)" height="31.6094" style="stroke: #383838; stroke-width: 1.5;" width="59" x="1785" y="768.2891"/><text fill="#000000" font-family="sans-serif" font-size="14" lengthAdjust="spacingAndGlyphs" textLength="45" x="1792" y="789.8223">Logger</text><rect fill="#FFFFFF" filter="url(#f1x4ijlb79cz75)" height="36" style="stroke: #383838; stroke-width: 1.0;" width="10" x="277.5" y="119.9609"/><rect fill="#FFFFFF" filter="url(#f1x4ijlb79cz75)" height="30.3516" style="stroke: #383838; stroke-width: 1.0;" width="10" x="277.5" y="193.6641"/><rect fill="#FFFFFF" filter="url(#f1x4ijlb79cz75)" height="326.1641" style="stroke: #383838; stroke-width: 1.0;" width="10" x="534.5" y="224.0156"/><rect fill="#FFFFFF" filter="url(#f1x4ijlb79cz75)" height="489.5703" style="stroke: #383838; stroke-width: 1.0;" width="10" x="844.5" y="254.3672"/><rect fill="#FFFFFF" filter="url(#f1x4ijlb79cz75)" height="30.3516" style="stroke: #383838; stroke-width: 1.0;" width="10" x="1224.5" y="328.0703"/><rect fill="#FFFFFF" filter="url(#f1x4ijlb79cz75)" height="240.4609" style="stroke: #383838; stroke-width: 1.0;" width="10" x="1224.5" y="475.4766"/><rect fill="#FFFFFF" filter="url(#f1x4ijlb79cz75)" height="135.4063" style="stroke: #383838; stroke-width: 1.0;" width="10" x="1526.5" y="580.5313"/><line style="stroke: #383838; stroke-width: 1.0;" x1="275.5" x2="265.5" y1="119.9609" y2="115.9609"/><line style="stroke: #383838; stroke-width: 1.0;" x1="275.5" x2="265.5" y1="119.9609" y2="123.9609"/><line style="stroke: #383838; stroke-width: 1.0;" x1="25.5" x2="276.5" y1="119.9609" y2="119.9609"/><text fill="#000000" font-family="sans-serif" font-size="13" lengthAdjust="spacingAndGlyphs" textLength="233" x="32.5" y="115.1045">onShowActivateTaskScreenClick(taskId)</text><line style="stroke: #383838; stroke-width: 1.0;" x1="287.5" x2="329.5" y1="155.3125" y2="155.3125"/><line style="stroke: #383838; stroke-width: 1.0;" x1="329.5" x2="329.5" y1="155.3125" y2="168.3125"/><line style="stroke: #383838; stroke-width: 1.0;" x1="282.5" x2="329.5" y1="168.3125" y2="168.3125"/><polygon fill="#383838" points="292.5,164.3125,282.5,168.3125,292.5,172.3125,288.5,168.3125" style="stroke: #383838; stroke-width: 1.0;"/><text fill="#000000" font-family="sans-serif" font-size="13" lengthAdjust="spacingAndGlyphs" textLength="188" x="294.5" y="150.4561">showActivateTaskScreen(taskId)</text><line style="stroke: #383838; stroke-width: 1.0;" x1="275.5" x2="265.5" y1="193.6641" y2="189.6641"/><line style="stroke: #383838; stroke-width: 1.0;" x1="275.5" x2="265.5" y1="193.6641" y2="197.6641"/><line style="stroke: #383838; stroke-width: 1.0;" x1="25.5" x2="276.5" y1="193.6641" y2="193.6641"/><text fill="#000000" font-family="sans-serif" font-size="13" lengthAdjust="spacingAndGlyphs" textLength="131" x="32.5" y="188.8076">onActivateTask(taskId)</text><line style="stroke: #383838; stroke-width: 1.0;" x1="532.5" x2="522.5" y1="224.0156" y2="220.0156"/><line style="stroke: #383838; stroke-width: 1.0;" x1="532.5" x2="522.5" y1="224.0156" y2="228.0156"/><line style="stroke: #383838; stroke-width: 1.0;" x1="282.5" x2="533.5" y1="224.0156" y2="224.0156"/><text fill="#000000" font-family="sans-serif" font-size="13" lengthAdjust="spacingAndGlyphs" textLength="228" x="289.5" y="219.1592">POST /launcher​/app-user​/computations</text><polygon fill="#383838" points="832.5,250.3672,842.5,254.3672,832.5,258.3672,836.5,254.3672" style="stroke: #383838; stroke-width: 1.0;"/><line style="stroke: #383838; stroke-width: 1.0;" x1="544.5" x2="838.5" y1="254.3672" y2="254.3672"/><text fill="#000000" font-family="sans-serif" font-size="13" lengthAdjust="spacingAndGlyphs" textLength="281" x="551.5" y="249.5107">POST /machine-manager/launcher/computations</text><line style="stroke: #383838; stroke-width: 1.0;" x1="854.5" x2="896.5" y1="284.7188" y2="284.7188"/><line style="stroke: #383838; stroke-width: 1.0;" x1="896.5" x2="896.5" y1="284.7188" y2="297.7188"/><line style="stroke: #383838; stroke-width: 1.0;" x1="855.5" x2="896.5" y1="297.7188" y2="297.7188"/><polygon fill="#383838" points="865.5,293.7188,855.5,297.7188,865.5,301.7188,861.5,297.7188" style="stroke: #383838; stroke-width: 1.0;"/><text fill="#000000" font-family="sans-serif" font-size="13" lengthAdjust="spacingAndGlyphs" textLength="356" x="861.5" y="279.8623">unpackComputationStepPackage(:ComputationStepPackage)</text><polygon fill="#383838" points="1212.5,324.0703,1222.5,328.0703,1212.5,332.0703,1216.5,328.0703" style="stroke: #383838; stroke-width: 1.0;"/><line style="stroke: #383838; stroke-width: 1.0;" x1="854.5" x2="1218.5" y1="328.0703" y2="328.0703"/><text fill="#000000" font-family="sans-serif" font-size="13" lengthAdjust="spacingAndGlyphs" textLength="133" x="861.5" y="323.2139">getAvailableMachines()</text><line style="stroke: #383838; stroke-width: 1.0;" x1="854.5" x2="864.5" y1="358.4219" y2="354.4219"/><line style="stroke: #383838; stroke-width: 1.0;" x1="854.5" x2="864.5" y1="358.4219" y2="362.4219"/><line style="stroke: #383838; stroke-width: 1.0; stroke-dasharray: 2.0,2.0;" x1="854.5" x2="1228.5" y1="358.4219" y2="358.4219"/><text fill="#000000" font-family="sans-serif" font-size="13" lengthAdjust="spacingAndGlyphs" textLength="90" x="871.5" y="353.5654">:List&lt;Machine&gt;</text><line style="stroke: #383838; stroke-width: 1.0;" x1="854.5" x2="896.5" y1="388.7734" y2="388.7734"/><line style="stroke: #383838; stroke-width: 1.0;" x1="896.5" x2="896.5" y1="388.7734" y2="401.7734"/><line style="stroke: #383838; stroke-width: 1.0;" x1="855.5" x2="896.5" y1="401.7734" y2="401.7734"/><polygon fill="#383838" points="865.5,397.7734,855.5,401.7734,865.5,405.7734,861.5,401.7734" style="stroke: #383838; stroke-width: 1.0;"/><text fill="#000000" font-family="sans-serif" font-size="13" lengthAdjust="spacingAndGlyphs" textLength="342" x="861.5" y="383.917">chooseBestMachineForComputationSteps(:List&lt;Machine&gt;)</text><line style="stroke: #383838; stroke-width: 1.0;" x1="854.5" x2="896.5" y1="432.125" y2="432.125"/><line style="stroke: #383838; stroke-width: 1.0;" x1="896.5" x2="896.5" y1="432.125" y2="445.125"/><line style="stroke: #383838; stroke-width: 1.0;" x1="855.5" x2="896.5" y1="445.125" y2="445.125"/><polygon fill="#383838" points="865.5,441.125,855.5,445.125,865.5,449.125,861.5,445.125" style="stroke: #383838; stroke-width: 1.0;"/><text fill="#000000" font-family="sans-serif" font-size="13" lengthAdjust="spacingAndGlyphs" textLength="203" x="861.5" y="427.2686">saveComputationDataToDatabase()</text><polygon fill="#383838" points="1212.5,471.4766,1222.5,475.4766,1212.5,479.4766,1216.5,475.4766" style="stroke: #383838; stroke-width: 1.0;"/><line style="stroke: #383838; stroke-width: 1.0;" x1="854.5" x2="1218.5" y1="475.4766" y2="475.4766"/><text fill="#000000" font-family="sans-serif" font-size="13" lengthAdjust="spacingAndGlyphs" textLength="295" x="861.5" y="470.6201">activateComputationTask(computationId, :Machine)</text><line style="stroke: #383838; stroke-width: 1.0;" x1="854.5" x2="864.5" y1="489.4766" y2="485.4766"/><line style="stroke: #383838; stroke-width: 1.0;" x1="854.5" x2="864.5" y1="489.4766" y2="493.4766"/><line style="stroke: #383838; stroke-width: 1.0; stroke-dasharray: 2.0,2.0;" x1="854.5" x2="1223.5" y1="489.4766" y2="489.4766"/><line style="stroke: #383838; stroke-width: 1.0;" x1="544.5" x2="554.5" y1="519.8281" y2="515.8281"/><line style="stroke: #383838; stroke-width: 1.0;" x1="544.5" x2="554.5" y1="519.8281" y2="523.8281"/><line style="stroke: #383838; stroke-width: 1.0; stroke-dasharray: 2.0,2.0;" x1="544.5" x2="843.5" y1="519.8281" y2="519.8281"/><text fill="#000000" font-family="sans-serif" font-size="13" lengthAdjust="spacingAndGlyphs" textLength="110" x="561.5" y="514.9717">201, computationId</text><line style="stroke: #383838; stroke-width: 1.0;" x1="282.5" x2="292.5" y1="550.1797" y2="546.1797"/><line style="stroke: #383838; stroke-width: 1.0;" x1="282.5" x2="292.5" y1="550.1797" y2="554.1797"/><line style="stroke: #383838; stroke-width: 1.0; stroke-dasharray: 2.0,2.0;" x1="282.5" x2="538.5" y1="550.1797" y2="550.1797"/><text fill="#000000" font-family="sans-serif" font-size="13" lengthAdjust="spacingAndGlyphs" textLength="82" x="299.5" y="545.3232">showCockpit()</text><polygon fill="#383838" points="1514.5,576.5313,1524.5,580.5313,1514.5,584.5313,1518.5,580.5313" style="stroke: #383838; stroke-width: 1.0;"/><line style="stroke: #383838; stroke-width: 1.0;" x1="1234.5" x2="1520.5" y1="580.5313" y2="580.5313"/><text fill="#000000" font-family="sans-serif" font-size="13" lengthAdjust="spacingAndGlyphs" textLength="260" x="1241.5" y="575.6748">POST /machine/computation/{computationId}</text><path d="M1170.5,595.5313 L1243.5,595.5313 L1243.5,603.5313 L1233.5,613.5313 L1170.5,613.5313 L1170.5,595.5313 " fill="#EEEEEE" style="stroke: #000000; stroke-width: 1.0;"/><rect fill="none" height="113.4063" style="stroke: #000000; stroke-width: 2.0;" width="697.5" x="1170.5" y="595.5313"/><text fill="#000000" font-family="sans-serif" font-size="13" font-weight="bold" lengthAdjust="spacingAndGlyphs" textLength="28" x="1185.5" y="610.0264">loop</text><text fill="#000000" font-family="sans-serif" font-size="11" font-weight="bold" lengthAdjust="spacingAndGlyphs" textLength="186" x="1258.5" y="608.9502">[while computation is performed]</text><path d="M1180.5,620.8828 L1246.5,620.8828 L1246.5,628.8828 L1236.5,638.8828 L1180.5,638.8828 L1180.5,620.8828 " fill="#EEEEEE" style="stroke: #000000; stroke-width: 1.0;"/><rect fill="none" height="81.0547" style="stroke: #000000; stroke-width: 2.0;" width="677.5" x="1180.5" y="620.8828"/><text fill="#000000" font-family="sans-serif" font-size="13" font-weight="bold" lengthAdjust="spacingAndGlyphs" textLength="21" x="1195.5" y="635.3779">par</text><line style="stroke: #383838; stroke-width: 1.0;" x1="1234.5" x2="1244.5" y1="661.5859" y2="657.5859"/><line style="stroke: #383838; stroke-width: 1.0;" x1="1234.5" x2="1244.5" y1="661.5859" y2="665.5859"/><line style="stroke: #383838; stroke-width: 1.0; stroke-dasharray: 2.0,2.0;" x1="1234.5" x2="1525.5" y1="661.5859" y2="661.5859"/><text fill="#000000" font-family="sans-serif" font-size="13" lengthAdjust="spacingAndGlyphs" textLength="268" x="1251.5" y="656.7295">POST /machine-manager/machines/status/{id}</text><line style="stroke: #000000; stroke-width: 1.0; stroke-dasharray: 2.0,2.0;" x1="1180.5" x2="1858" y1="670.5859" y2="670.5859"/><line style="stroke: #383838; stroke-width: 1.0;" x1="1814.5" x2="1804.5" y1="693.9375" y2="689.9375"/><line style="stroke: #383838; stroke-width: 1.0;" x1="1814.5" x2="1804.5" y1="693.9375" y2="697.9375"/><line style="stroke: #383838; stroke-width: 1.0; stroke-dasharray: 2.0,2.0;" x1="1536.5" x2="1815.5" y1="693.9375" y2="693.9375"/><text fill="#000000" font-family="sans-serif" font-size="13" lengthAdjust="spacingAndGlyphs" textLength="256" x="1543.5" y="689.0811">POST /logger/machine/computation/{id}/logs</text><line style="stroke: #383838; stroke-width: 1.0;" x1="854.5" x2="896.5" y1="743.2891" y2="743.2891"/><line style="stroke: #383838; stroke-width: 1.0;" x1="896.5" x2="896.5" y1="743.2891" y2="756.2891"/><line style="stroke: #383838; stroke-width: 1.0;" x1="849.5" x2="896.5" y1="756.2891" y2="756.2891"/><polygon fill="#383838" points="859.5,752.2891,849.5,756.2891,859.5,760.2891,855.5,756.2891" style="stroke: #383838; stroke-width: 1.0;"/><text fill="#000000" font-family="sans-serif" font-size="13" lengthAdjust="spacingAndGlyphs" textLength="315" x="861.5" y="738.4326">updateComputationFinishedInDatabase(computationId)</text><!--
@startuml

skinparam monochrome true

actor User


User ->> LauncherUI : onShowActivateTaskScreenClick(taskId)
activate LauncherUI
LauncherUI -> LauncherUI : showActivateTaskScreen(taskId)
deactivate LauncherUI


User ->> LauncherUI : onActivateTask(taskId)
activate LauncherUI

LauncherUI ->> Launcher : POST /launcher​/app-user​/computations
deactivate LauncherUI
activate Launcher

Launcher -> Computations : POST /machine-manager/launcher/computations
activate Computations

Computations -> Computations : unpackComputationStepPackage(:ComputationStepPackage)

Computations -> Machines : getAvailableMachines()
activate Machines
Machines - ->> Computations : :List<Machine>
deactivate Machines

Computations -> Computations : chooseBestMachineForComputationSteps(:List<Machine>)
Computations -> Computations : saveComputationDataToDatabase()

Computations -> Machines : activateComputationTask(computationId, :Machine)
activate Machines
Machines - ->> Computations

Computations - ->> Launcher : 201, computationId
Launcher - ->> LauncherUI : showCockpit()
deactivate Launcher


Machines -> Machine : POST /machine/computation/{computationId}
activate Machine

loop while computation is performed

    par

        Machine - ->> Machines : POST /machine-manager/machines/status/{id}

    else

        Machine - ->> Logger : POST /logger/machine/computation/{id}/logs

    end par

end loop

deactivate Machine


deactivate Machines

Computations -> Computations : updateComputationFinishedInDatabase(computationId)
deactivate Computations

@enduml

PlantUML version 1.2018.11(Sat Sep 22 18:43:53 CEST 2018)
(GPL source distribution)
Java Runtime: OpenJDK Runtime Environment
JVM: OpenJDK 64-Bit Server VM
Java Version: 1.8.0_152-release-1248-b8
Operating System: Windows 10
OS Version: 10.0
Default Encoding: Cp1250
Language: pl
Country: PL
--></g></svg>