<?xml version="1.0" encoding="UTF-8" standalone="no"?><svg xmlns="http://www.w3.org/2000/svg" xmlns:xlink="http://www.w3.org/1999/xlink" contentScriptType="application/ecmascript" contentStyleType="text/css" height="557px" preserveAspectRatio="none" style="width:1826px;height:557px;" version="1.1" viewBox="0 0 1826 557" width="1826px" zoomAndPan="magnify"><defs><filter height="300%" id="fr7gvwcaienle" width="300%" x="-1" y="-1"><feGaussianBlur result="blurOut" stdDeviation="2.0"/><feColorMatrix in="blurOut" result="blurOut2" type="matrix" values="0 0 0 0 0 0 0 0 0 0 0 0 0 0 0 0 0 0 .4 0"/><feOffset dx="4.0" dy="4.0" in="blurOut2" result="blurOut3"/><feBlend in="SourceGraphic" in2="blurOut3" mode="normal"/></filter></defs><g><rect fill="#FFFFFF" filter="url(#fr7gvwcaienle)" height="30.3516" style="stroke: #383838; stroke-width: 1.0;" width="10" x="206.5" y="119.9609"/><rect fill="#FFFFFF" filter="url(#fr7gvwcaienle)" height="300.1641" style="stroke: #383838; stroke-width: 1.0;" width="10" x="571.5" y="150.3125"/><rect fill="#FFFFFF" filter="url(#fr7gvwcaienle)" height="239.4609" style="stroke: #383838; stroke-width: 1.0;" width="10" x="989.5" y="180.6641"/><rect fill="#FFFFFF" filter="url(#fr7gvwcaienle)" height="30.3516" style="stroke: #383838; stroke-width: 1.0;" width="10" x="1298.5" y="211.0156"/><rect fill="#FFFFFF" filter="url(#fr7gvwcaienle)" height="118.0547" style="stroke: #383838; stroke-width: 1.0;" width="10" x="1298.5" y="271.7188"/><rect fill="#FFFFFF" filter="url(#fr7gvwcaienle)" height="73.7031" style="stroke: #383838; stroke-width: 1.0;" width="10" x="1602.5" y="302.0703"/><line style="stroke: #383838; stroke-width: 1.0; stroke-dasharray: 5.0,5.0;" x1="25" x2="25" y1="87.6094" y2="468.4766"/><line style="stroke: #383838; stroke-width: 1.0; stroke-dasharray: 5.0,5.0;" x1="211.5" x2="211.5" y1="87.6094" y2="468.4766"/><line style="stroke: #383838; stroke-width: 1.0; stroke-dasharray: 5.0,5.0;" x1="576.5" x2="576.5" y1="87.6094" y2="468.4766"/><line style="stroke: #383838; stroke-width: 1.0; stroke-dasharray: 5.0,5.0;" x1="994" x2="994" y1="87.6094" y2="468.4766"/><line style="stroke: #383838; stroke-width: 1.0; stroke-dasharray: 5.0,5.0;" x1="1303.5" x2="1303.5" y1="87.6094" y2="468.4766"/><line style="stroke: #383838; stroke-width: 1.0; stroke-dasharray: 5.0,5.0;" x1="1607" x2="1607" y1="87.6094" y2="468.4766"/><text fill="#000000" font-family="sans-serif" font-size="14" lengthAdjust="spacingAndGlyphs" textLength="29" x="8" y="84.5332">User</text><ellipse cx="25.5" cy="13" fill="#F8F8F8" filter="url(#fr7gvwcaienle)" rx="8" ry="8" style="stroke: #383838; stroke-width: 2.0;"/><path d="M25.5,21 L25.5,48 M12.5,29 L38.5,29 M25.5,48 L12.5,63 M25.5,48 L38.5,63 " fill="none" filter="url(#fr7gvwcaienle)" style="stroke: #383838; stroke-width: 2.0;"/><text fill="#000000" font-family="sans-serif" font-size="14" lengthAdjust="spacingAndGlyphs" textLength="29" x="8" y="482.0098">User</text><ellipse cx="25.5" cy="495.0859" fill="#F8F8F8" filter="url(#fr7gvwcaienle)" rx="8" ry="8" style="stroke: #383838; stroke-width: 2.0;"/><path d="M25.5,503.0859 L25.5,530.0859 M12.5,511.0859 L38.5,511.0859 M25.5,530.0859 L12.5,545.0859 M25.5,530.0859 L38.5,545.0859 " fill="none" filter="url(#fr7gvwcaienle)" style="stroke: #383838; stroke-width: 2.0;"/><rect fill="#F8F8F8" filter="url(#fr7gvwcaienle)" height="31.6094" style="stroke: #383838; stroke-width: 1.5;" width="86" x="166.5" y="51"/><text fill="#000000" font-family="sans-serif" font-size="14" lengthAdjust="spacingAndGlyphs" textLength="72" x="173.5" y="72.5332">LauncherUI</text><rect fill="#F8F8F8" filter="url(#fr7gvwcaienle)" height="31.6094" style="stroke: #383838; stroke-width: 1.5;" width="86" x="166.5" y="467.4766"/><text fill="#000000" font-family="sans-serif" font-size="14" lengthAdjust="spacingAndGlyphs" textLength="72" x="173.5" y="489.0098">LauncherUI</text><rect fill="#F8F8F8" filter="url(#fr7gvwcaienle)" height="31.6094" style="stroke: #383838; stroke-width: 1.5;" width="74" x="537.5" y="51"/><text fill="#000000" font-family="sans-serif" font-size="14" lengthAdjust="spacingAndGlyphs" textLength="60" x="544.5" y="72.5332">Launcher</text><rect fill="#F8F8F8" filter="url(#fr7gvwcaienle)" height="31.6094" style="stroke: #383838; stroke-width: 1.5;" width="74" x="537.5" y="467.4766"/><text fill="#000000" font-family="sans-serif" font-size="14" lengthAdjust="spacingAndGlyphs" textLength="60" x="544.5" y="489.0098">Launcher</text><rect fill="#F8F8F8" filter="url(#fr7gvwcaienle)" height="31.6094" style="stroke: #383838; stroke-width: 1.5;" width="101" x="942" y="51"/><text fill="#000000" font-family="sans-serif" font-size="14" lengthAdjust="spacingAndGlyphs" textLength="87" x="949" y="72.5332">Computations</text><rect fill="#F8F8F8" filter="url(#fr7gvwcaienle)" height="31.6094" style="stroke: #383838; stroke-width: 1.5;" width="101" x="942" y="467.4766"/><text fill="#000000" font-family="sans-serif" font-size="14" lengthAdjust="spacingAndGlyphs" textLength="87" x="949" y="489.0098">Computations</text><rect fill="#F8F8F8" filter="url(#fr7gvwcaienle)" height="31.6094" style="stroke: #383838; stroke-width: 1.5;" width="74" x="1264.5" y="51"/><text fill="#000000" font-family="sans-serif" font-size="14" lengthAdjust="spacingAndGlyphs" textLength="60" x="1271.5" y="72.5332">Machines</text><rect fill="#F8F8F8" filter="url(#fr7gvwcaienle)" height="31.6094" style="stroke: #383838; stroke-width: 1.5;" width="74" x="1264.5" y="467.4766"/><text fill="#000000" font-family="sans-serif" font-size="14" lengthAdjust="spacingAndGlyphs" textLength="60" x="1271.5" y="489.0098">Machines</text><rect fill="#F8F8F8" filter="url(#fr7gvwcaienle)" height="31.6094" style="stroke: #383838; stroke-width: 1.5;" width="67" x="1572" y="51"/><text fill="#000000" font-family="sans-serif" font-size="14" lengthAdjust="spacingAndGlyphs" textLength="53" x="1579" y="72.5332">Machine</text><rect fill="#F8F8F8" filter="url(#fr7gvwcaienle)" height="31.6094" style="stroke: #383838; stroke-width: 1.5;" width="67" x="1572" y="467.4766"/><text fill="#000000" font-family="sans-serif" font-size="14" lengthAdjust="spacingAndGlyphs" textLength="53" x="1579" y="489.0098">Machine</text><rect fill="#FFFFFF" filter="url(#fr7gvwcaienle)" height="30.3516" style="stroke: #383838; stroke-width: 1.0;" width="10" x="206.5" y="119.9609"/><rect fill="#FFFFFF" filter="url(#fr7gvwcaienle)" height="300.1641" style="stroke: #383838; stroke-width: 1.0;" width="10" x="571.5" y="150.3125"/><rect fill="#FFFFFF" filter="url(#fr7gvwcaienle)" height="239.4609" style="stroke: #383838; stroke-width: 1.0;" width="10" x="989.5" y="180.6641"/><rect fill="#FFFFFF" filter="url(#fr7gvwcaienle)" height="30.3516" style="stroke: #383838; stroke-width: 1.0;" width="10" x="1298.5" y="211.0156"/><rect fill="#FFFFFF" filter="url(#fr7gvwcaienle)" height="118.0547" style="stroke: #383838; stroke-width: 1.0;" width="10" x="1298.5" y="271.7188"/><rect fill="#FFFFFF" filter="url(#fr7gvwcaienle)" height="73.7031" style="stroke: #383838; stroke-width: 1.0;" width="10" x="1602.5" y="302.0703"/><line style="stroke: #383838; stroke-width: 1.0;" x1="204.5" x2="194.5" y1="119.9609" y2="115.9609"/><line style="stroke: #383838; stroke-width: 1.0;" x1="204.5" x2="194.5" y1="119.9609" y2="123.9609"/><line style="stroke: #383838; stroke-width: 1.0;" x1="25.5" x2="205.5" y1="119.9609" y2="119.9609"/><text fill="#000000" font-family="sans-serif" font-size="13" lengthAdjust="spacingAndGlyphs" textLength="162" x="32.5" y="115.1045">onAbortTask(computationId)</text><line style="stroke: #383838; stroke-width: 1.0;" x1="569.5" x2="559.5" y1="150.3125" y2="146.3125"/><line style="stroke: #383838; stroke-width: 1.0;" x1="569.5" x2="559.5" y1="150.3125" y2="154.3125"/><line style="stroke: #383838; stroke-width: 1.0;" x1="211.5" x2="570.5" y1="150.3125" y2="150.3125"/><text fill="#000000" font-family="sans-serif" font-size="13" lengthAdjust="spacingAndGlyphs" textLength="336" x="218.5" y="145.4561">DELETE /launcher​/app-user​/computations​/{computationId}</text><polygon fill="#383838" points="977.5,176.6641,987.5,180.6641,977.5,184.6641,981.5,180.6641" style="stroke: #383838; stroke-width: 1.0;"/><line style="stroke: #383838; stroke-width: 1.0;" x1="581.5" x2="983.5" y1="180.6641" y2="180.6641"/><text fill="#000000" font-family="sans-serif" font-size="13" lengthAdjust="spacingAndGlyphs" textLength="389" x="588.5" y="175.8076">DELETE /machine-manager/launcher/computations/{computationId}</text><polygon fill="#383838" points="1286.5,207.0156,1296.5,211.0156,1286.5,215.0156,1290.5,211.0156" style="stroke: #383838; stroke-width: 1.0;"/><line style="stroke: #383838; stroke-width: 1.0;" x1="999.5" x2="1292.5" y1="211.0156" y2="211.0156"/><text fill="#000000" font-family="sans-serif" font-size="13" lengthAdjust="spacingAndGlyphs" textLength="259" x="1006.5" y="206.1592">getMachineByComputationId(:computationId)</text><line style="stroke: #383838; stroke-width: 1.0;" x1="999.5" x2="1009.5" y1="241.3672" y2="237.3672"/><line style="stroke: #383838; stroke-width: 1.0;" x1="999.5" x2="1009.5" y1="241.3672" y2="245.3672"/><line style="stroke: #383838; stroke-width: 1.0; stroke-dasharray: 2.0,2.0;" x1="999.5" x2="1302.5" y1="241.3672" y2="241.3672"/><text fill="#000000" font-family="sans-serif" font-size="13" lengthAdjust="spacingAndGlyphs" textLength="117" x="1016.5" y="236.5107">:Optional&lt;Machine&gt;</text><polygon fill="#383838" points="1286.5,267.7188,1296.5,271.7188,1286.5,275.7188,1290.5,271.7188" style="stroke: #383838; stroke-width: 1.0;"/><line style="stroke: #383838; stroke-width: 1.0;" x1="999.5" x2="1292.5" y1="271.7188" y2="271.7188"/><text fill="#000000" font-family="sans-serif" font-size="13" lengthAdjust="spacingAndGlyphs" textLength="280" x="1006.5" y="266.8623">abortComputationTask(computationId, :Machine)</text><polygon fill="#383838" points="1590.5,298.0703,1600.5,302.0703,1590.5,306.0703,1594.5,302.0703" style="stroke: #383838; stroke-width: 1.0;"/><line style="stroke: #383838; stroke-width: 1.0;" x1="1308.5" x2="1596.5" y1="302.0703" y2="302.0703"/><text fill="#000000" font-family="sans-serif" font-size="13" lengthAdjust="spacingAndGlyphs" textLength="275" x="1315.5" y="297.2139">DELETE /machine/computation/{computationId}</text><line style="stroke: #383838; stroke-width: 1.0;" x1="1612.5" x2="1654.5" y1="332.4219" y2="332.4219"/><line style="stroke: #383838; stroke-width: 1.0;" x1="1654.5" x2="1654.5" y1="332.4219" y2="345.4219"/><line style="stroke: #383838; stroke-width: 1.0;" x1="1613.5" x2="1654.5" y1="345.4219" y2="345.4219"/><polygon fill="#383838" points="1623.5,341.4219,1613.5,345.4219,1623.5,349.4219,1619.5,345.4219" style="stroke: #383838; stroke-width: 1.0;"/><text fill="#000000" font-family="sans-serif" font-size="13" lengthAdjust="spacingAndGlyphs" textLength="195" x="1619.5" y="327.5654">abortComputation(:computationId)</text><line style="stroke: #383838; stroke-width: 1.0;" x1="1308.5" x2="1318.5" y1="375.7734" y2="371.7734"/><line style="stroke: #383838; stroke-width: 1.0;" x1="1308.5" x2="1318.5" y1="375.7734" y2="379.7734"/><line style="stroke: #383838; stroke-width: 1.0; stroke-dasharray: 2.0,2.0;" x1="1308.5" x2="1606.5" y1="375.7734" y2="375.7734"/><text fill="#000000" font-family="sans-serif" font-size="13" lengthAdjust="spacingAndGlyphs" textLength="21" x="1325.5" y="370.917">204</text><line style="stroke: #383838; stroke-width: 1.0;" x1="999.5" x2="1009.5" y1="389.7734" y2="385.7734"/><line style="stroke: #383838; stroke-width: 1.0;" x1="999.5" x2="1009.5" y1="389.7734" y2="393.7734"/><line style="stroke: #383838; stroke-width: 1.0; stroke-dasharray: 2.0,2.0;" x1="999.5" x2="1302.5" y1="389.7734" y2="389.7734"/><line style="stroke: #383838; stroke-width: 1.0;" x1="581.5" x2="591.5" y1="420.125" y2="416.125"/><line style="stroke: #383838; stroke-width: 1.0;" x1="581.5" x2="591.5" y1="420.125" y2="424.125"/><line style="stroke: #383838; stroke-width: 1.0; stroke-dasharray: 2.0,2.0;" x1="581.5" x2="993.5" y1="420.125" y2="420.125"/><text fill="#000000" font-family="sans-serif" font-size="13" lengthAdjust="spacingAndGlyphs" textLength="21" x="598.5" y="415.2686">202</text><line style="stroke: #383838; stroke-width: 1.0;" x1="211.5" x2="221.5" y1="450.4766" y2="446.4766"/><line style="stroke: #383838; stroke-width: 1.0;" x1="211.5" x2="221.5" y1="450.4766" y2="454.4766"/><line style="stroke: #383838; stroke-width: 1.0;" x1="211.5" x2="575.5" y1="450.4766" y2="450.4766"/><text fill="#000000" font-family="sans-serif" font-size="13" lengthAdjust="spacingAndGlyphs" textLength="91" x="228.5" y="445.6201">refreshCockpit()</text><!--
@startuml

skinparam monochrome true

actor User


User ->> LauncherUI : onAbortTask(computationId)
activate LauncherUI

LauncherUI ->> Launcher : DELETE /launcher​/app-user​/computations​/{computationId}
deactivate LauncherUI
activate Launcher

Launcher -> Computations : DELETE /machine-manager/launcher/computations/{computationId}
activate Computations

Computations -> Machines : getMachineByComputationId(:computationId)
activate Machines
Machines - ->> Computations : :Optional<Machine>
deactivate Machines

Computations -> Machines : abortComputationTask(computationId, :Machine)
activate Machines


Machines -> Machine : DELETE /machine/computation/{computationId}
activate Machine

Machine -> Machine : abortComputation(:computationId)
Machine - ->> Machines : 204
deactivate Machine

Machines - ->> Computations
deactivate Machines

Computations - ->> Launcher : 202
deactivate Computations

Launcher ->> LauncherUI : refreshCockpit()
deactivate Launcher

@enduml

PlantUML version 1.2018.11(Sat Sep 22 18:43:53 CEST 2018)
(GPL source distribution)
Java Runtime: OpenJDK Runtime Environment
JVM: OpenJDK 64-Bit Server VM
Java Version: 1.8.0_152-release-1248-b8
Operating System: Windows 10
OS Version: 10.0
Default Encoding: Cp1250
Language: pl
Country: PL
--></g></svg>