<?xml version="1.0" encoding="UTF-8" standalone="no"?><svg xmlns="http://www.w3.org/2000/svg" xmlns:xlink="http://www.w3.org/1999/xlink" contentScriptType="application/ecmascript" contentStyleType="text/css" height="979px" preserveAspectRatio="none" style="width:1078px;height:979px;" version="1.1" viewBox="0 0 1078 979" width="1078px" zoomAndPan="magnify"><defs><filter height="300%" id="f4mpprb80m1xw" width="300%" x="-1" y="-1"><feGaussianBlur result="blurOut" stdDeviation="2.0"/><feColorMatrix in="blurOut" result="blurOut2" type="matrix" values="0 0 0 0 0 0 0 0 0 0 0 0 0 0 0 0 0 0 .4 0"/><feOffset dx="4.0" dy="4.0" in="blurOut2" result="blurOut3"/><feBlend in="SourceGraphic" in2="blurOut3" mode="normal"/></filter></defs><g><!--cluster SM--><rect fill="#FFFFFF" filter="url(#f4mpprb80m1xw)" height="232" style="stroke: #000000; stroke-width: 1.5;" width="213" x="365" y="374"/><rect fill="#FFFFFF" height="10" style="stroke: #000000; stroke-width: 1.5;" width="15" x="558" y="379"/><rect fill="#FFFFFF" height="2" style="stroke: #000000; stroke-width: 1.5;" width="4" x="556" y="381"/><rect fill="#FFFFFF" height="2" style="stroke: #000000; stroke-width: 1.5;" width="4" x="556" y="385"/><text fill="#000000" font-family="sans-serif" font-size="14" font-style="italic" lengthAdjust="spacingAndGlyphs" textLength="83" x="430" y="401.5332">«subsystem»</text><text fill="#000000" font-family="sans-serif" font-size="14" font-weight="bold" lengthAdjust="spacingAndGlyphs" textLength="126" x="408.5" y="419.1426">Machine Manager</text><!--entity SMCM--><rect fill="#F8F8F8" filter="url(#f4mpprb80m1xw)" height="47.6094" style="stroke: #383838; stroke-width: 1.5;" width="100" x="381" y="542"/><rect fill="#F8F8F8" height="10" style="stroke: #383838; stroke-width: 1.5;" width="15" x="461" y="547"/><rect fill="#F8F8F8" height="2" style="stroke: #383838; stroke-width: 1.5;" width="4" x="459" y="549"/><rect fill="#F8F8F8" height="2" style="stroke: #383838; stroke-width: 1.5;" width="4" x="459" y="553"/><text fill="#000000" font-family="sans-serif" font-size="14" lengthAdjust="spacingAndGlyphs" textLength="60" x="396" y="576.5332">Machines</text><!--entity SMCC--><rect fill="#F8F8F8" filter="url(#f4mpprb80m1xw)" height="47.6094" style="stroke: #383838; stroke-width: 1.5;" width="127" x="434.5" y="428"/><rect fill="#F8F8F8" height="10" style="stroke: #383838; stroke-width: 1.5;" width="15" x="541.5" y="433"/><rect fill="#F8F8F8" height="2" style="stroke: #383838; stroke-width: 1.5;" width="4" x="539.5" y="435"/><rect fill="#F8F8F8" height="2" style="stroke: #383838; stroke-width: 1.5;" width="4" x="539.5" y="439"/><text fill="#000000" font-family="sans-serif" font-size="14" lengthAdjust="spacingAndGlyphs" textLength="87" x="449.5" y="462.5332">Computations</text><!--entity ISMCMSMCC--><ellipse cx="525" cy="566" fill="#F8F8F8" filter="url(#f4mpprb80m1xw)" rx="8" ry="8" style="stroke: #383838; stroke-width: 2.0;"/><!--entity ISMCCSMCM--><ellipse cx="390" cy="452" fill="#F8F8F8" filter="url(#f4mpprb80m1xw)" rx="8" ry="8" style="stroke: #383838; stroke-width: 2.0;"/><!--entity AU--><ellipse cx="781" cy="163" fill="#F8F8F8" filter="url(#f4mpprb80m1xw)" rx="8" ry="8" style="stroke: #383838; stroke-width: 2.0;"/><path d="M781,171 L781,198 M768,179 L794,179 M781,198 L768,213 M781,198 L794,213 " fill="none" filter="url(#f4mpprb80m1xw)" style="stroke: #383838; stroke-width: 2.0;"/><text fill="#000000" font-family="sans-serif" font-size="14" lengthAdjust="spacingAndGlyphs" textLength="58" x="752" y="234.5332">App User</text><!--entity AD--><ellipse cx="872" cy="18" fill="#F8F8F8" filter="url(#f4mpprb80m1xw)" rx="8" ry="8" style="stroke: #383838; stroke-width: 2.0;"/><path d="M872,26 L872,53 M859,34 L885,34 M872,53 L859,68 M872,53 L885,68 " fill="none" filter="url(#f4mpprb80m1xw)" style="stroke: #383838; stroke-width: 2.0;"/><text fill="#000000" font-family="sans-serif" font-size="14" lengthAdjust="spacingAndGlyphs" textLength="65" x="839.5" y="89.5332">Developer</text><!--entity AS--><ellipse cx="578" cy="894" fill="#F8F8F8" filter="url(#f4mpprb80m1xw)" rx="8" ry="8" style="stroke: #383838; stroke-width: 2.0;"/><path d="M578,902 L578,929 M565,910 L591,910 M578,929 L565,944 M578,929 L591,944 " fill="none" filter="url(#f4mpprb80m1xw)" style="stroke: #383838; stroke-width: 2.0;"/><text fill="#000000" font-family="sans-serif" font-size="14" lengthAdjust="spacingAndGlyphs" textLength="52" x="552" y="965.5332">Supplier</text><!--entity AA--><ellipse cx="887" cy="163" fill="#F8F8F8" filter="url(#f4mpprb80m1xw)" rx="8" ry="8" style="stroke: #383838; stroke-width: 2.0;"/><path d="M887,171 L887,198 M874,179 L900,179 M887,198 L874,213 M887,198 L900,213 " fill="none" filter="url(#f4mpprb80m1xw)" style="stroke: #383838; stroke-width: 2.0;"/><text fill="#000000" font-family="sans-serif" font-size="14" lengthAdjust="spacingAndGlyphs" textLength="83" x="845.5" y="234.5332">Administrator</text><!--entity CLa--><rect fill="#F8F8F8" filter="url(#f4mpprb80m1xw)" height="47.6094" style="stroke: #383838; stroke-width: 1.5;" width="100" x="413" y="171.5"/><rect fill="#F8F8F8" height="10" style="stroke: #383838; stroke-width: 1.5;" width="15" x="493" y="176.5"/><rect fill="#F8F8F8" height="2" style="stroke: #383838; stroke-width: 1.5;" width="4" x="491" y="178.5"/><rect fill="#F8F8F8" height="2" style="stroke: #383838; stroke-width: 1.5;" width="4" x="491" y="182.5"/><text fill="#000000" font-family="sans-serif" font-size="14" lengthAdjust="spacingAndGlyphs" textLength="60" x="428" y="206.0332">Launcher</text><!--entity CLaU--><rect fill="#F8F8F8" filter="url(#f4mpprb80m1xw)" height="47.6094" style="stroke: #383838; stroke-width: 1.5;" width="116" x="601" y="171.5"/><rect fill="#F8F8F8" height="10" style="stroke: #383838; stroke-width: 1.5;" width="15" x="697" y="176.5"/><rect fill="#F8F8F8" height="2" style="stroke: #383838; stroke-width: 1.5;" width="4" x="695" y="178.5"/><rect fill="#F8F8F8" height="2" style="stroke: #383838; stroke-width: 1.5;" width="4" x="695" y="182.5"/><text fill="#000000" font-family="sans-serif" font-size="14" lengthAdjust="spacingAndGlyphs" textLength="76" x="616" y="206.0332">Launcher UI</text><!--entity CLi--><rect fill="#F8F8F8" filter="url(#f4mpprb80m1xw)" height="47.6094" style="stroke: #383838; stroke-width: 1.5;" width="84" x="521" y="26.5"/><rect fill="#F8F8F8" height="10" style="stroke: #383838; stroke-width: 1.5;" width="15" x="585" y="31.5"/><rect fill="#F8F8F8" height="2" style="stroke: #383838; stroke-width: 1.5;" width="4" x="583" y="33.5"/><rect fill="#F8F8F8" height="2" style="stroke: #383838; stroke-width: 1.5;" width="4" x="583" y="37.5"/><text fill="#000000" font-family="sans-serif" font-size="14" lengthAdjust="spacingAndGlyphs" textLength="44" x="536" y="61.0332">Library</text><!--entity CLiU--><rect fill="#F8F8F8" filter="url(#f4mpprb80m1xw)" height="47.6094" style="stroke: #383838; stroke-width: 1.5;" width="100" x="702" y="26.5"/><rect fill="#F8F8F8" height="10" style="stroke: #383838; stroke-width: 1.5;" width="15" x="782" y="31.5"/><rect fill="#F8F8F8" height="2" style="stroke: #383838; stroke-width: 1.5;" width="4" x="780" y="33.5"/><rect fill="#F8F8F8" height="2" style="stroke: #383838; stroke-width: 1.5;" width="4" x="780" y="37.5"/><text fill="#000000" font-family="sans-serif" font-size="14" lengthAdjust="spacingAndGlyphs" textLength="60" x="717" y="61.0332">Library UI</text><!--entity CLo--><rect fill="#F8F8F8" filter="url(#f4mpprb80m1xw)" height="47.6094" style="stroke: #383838; stroke-width: 1.5;" width="85" x="24.5" y="428"/><rect fill="#F8F8F8" height="10" style="stroke: #383838; stroke-width: 1.5;" width="15" x="89.5" y="433"/><rect fill="#F8F8F8" height="2" style="stroke: #383838; stroke-width: 1.5;" width="4" x="87.5" y="435"/><rect fill="#F8F8F8" height="2" style="stroke: #383838; stroke-width: 1.5;" width="4" x="87.5" y="439"/><text fill="#000000" font-family="sans-serif" font-size="14" lengthAdjust="spacingAndGlyphs" textLength="45" x="39.5" y="462.5332">Logger</text><!--entity CMU--><rect fill="#F8F8F8" filter="url(#f4mpprb80m1xw)" height="47.6094" style="stroke: #383838; stroke-width: 1.5;" width="169" x="493.5" y="776"/><rect fill="#F8F8F8" height="10" style="stroke: #383838; stroke-width: 1.5;" width="15" x="642.5" y="781"/><rect fill="#F8F8F8" height="2" style="stroke: #383838; stroke-width: 1.5;" width="4" x="640.5" y="783"/><rect fill="#F8F8F8" height="2" style="stroke: #383838; stroke-width: 1.5;" width="4" x="640.5" y="787"/><text fill="#000000" font-family="sans-serif" font-size="14" lengthAdjust="spacingAndGlyphs" textLength="129" x="508.5" y="810.5332">Machine Manager UI</text><!--entity CP--><rect fill="#F8F8F8" filter="url(#f4mpprb80m1xw)" height="47.6094" style="stroke: #383838; stroke-width: 1.5;" width="102" x="223" y="171.5"/><rect fill="#F8F8F8" height="10" style="stroke: #383838; stroke-width: 1.5;" width="15" x="305" y="176.5"/><rect fill="#F8F8F8" height="2" style="stroke: #383838; stroke-width: 1.5;" width="4" x="303" y="178.5"/><rect fill="#F8F8F8" height="2" style="stroke: #383838; stroke-width: 1.5;" width="4" x="303" y="182.5"/><text fill="#000000" font-family="sans-serif" font-size="14" lengthAdjust="spacingAndGlyphs" textLength="62" x="238" y="206.0332">Payments</text><!--entity CMa--><rect fill="#F8F8F8" filter="url(#f4mpprb80m1xw)" height="47.6094" style="stroke: #383838; stroke-width: 1.5;" width="93" x="365.5" y="776"/><rect fill="#F8F8F8" height="10" style="stroke: #383838; stroke-width: 1.5;" width="15" x="438.5" y="781"/><rect fill="#F8F8F8" height="2" style="stroke: #383838; stroke-width: 1.5;" width="4" x="436.5" y="783"/><rect fill="#F8F8F8" height="2" style="stroke: #383838; stroke-width: 1.5;" width="4" x="436.5" y="787"/><text fill="#000000" font-family="sans-serif" font-size="14" lengthAdjust="spacingAndGlyphs" textLength="53" x="380.5" y="810.5332">Machine</text><!--entity CA--><rect fill="#F8F8F8" filter="url(#f4mpprb80m1xw)" height="47.6094" style="stroke: #383838; stroke-width: 1.5;" width="126" x="941" y="26.5"/><rect fill="#F8F8F8" height="10" style="stroke: #383838; stroke-width: 1.5;" width="15" x="1047" y="31.5"/><rect fill="#F8F8F8" height="2" style="stroke: #383838; stroke-width: 1.5;" width="4" x="1045" y="33.5"/><rect fill="#F8F8F8" height="2" style="stroke: #383838; stroke-width: 1.5;" width="4" x="1045" y="37.5"/><text fill="#000000" font-family="sans-serif" font-size="14" lengthAdjust="spacingAndGlyphs" textLength="86" x="956" y="61.0332">OAuth Server</text><!--entity CQ--><rect fill="#F8F8F8" filter="url(#f4mpprb80m1xw)" height="47.6094" style="stroke: #383838; stroke-width: 1.5;" width="83" x="751.5" y="776"/><rect fill="#F8F8F8" height="10" style="stroke: #383838; stroke-width: 1.5;" width="15" x="814.5" y="781"/><rect fill="#F8F8F8" height="2" style="stroke: #383838; stroke-width: 1.5;" width="4" x="812.5" y="783"/><rect fill="#F8F8F8" height="2" style="stroke: #383838; stroke-width: 1.5;" width="4" x="812.5" y="787"/><text fill="#000000" font-family="sans-serif" font-size="14" lengthAdjust="spacingAndGlyphs" textLength="43" x="766.5" y="810.5332">Queue</text><!--entity ICLoCLa--><ellipse cx="73" cy="328" fill="#F8F8F8" filter="url(#f4mpprb80m1xw)" rx="8" ry="8" style="stroke: #383838; stroke-width: 2.0;"/><text fill="#000000" font-family="sans-serif" font-size="14" lengthAdjust="spacingAndGlyphs" textLength="107" x="19.5" y="359.5332">/logger/launcher/</text><!--entity ICLoCMa--><ellipse cx="66" cy="566" fill="#F8F8F8" filter="url(#f4mpprb80m1xw)" rx="8" ry="8" style="stroke: #383838; stroke-width: 2.0;"/><text fill="#000000" font-family="sans-serif" font-size="14" lengthAdjust="spacingAndGlyphs" textLength="105" x="13.5" y="597.5332">/logger/machine/</text><!--entity ICMCMa--><ellipse cx="220" cy="686" fill="#F8F8F8" filter="url(#f4mpprb80m1xw)" rx="8" ry="8" style="stroke: #383838; stroke-width: 2.0;"/><text fill="#000000" font-family="sans-serif" font-size="14" lengthAdjust="spacingAndGlyphs" textLength="186" x="127" y="717.5332">/machine-manager/machines/</text><!--entity ICMCLa--><ellipse cx="507" cy="328" fill="#F8F8F8" filter="url(#f4mpprb80m1xw)" rx="8" ry="8" style="stroke: #383838; stroke-width: 2.0;"/><text fill="#000000" font-family="sans-serif" font-size="14" lengthAdjust="spacingAndGlyphs" textLength="181" x="416.5" y="359.5332">/machine-manager/launcher/</text><!--entity ICLiCLa--><ellipse cx="464" cy="50.5" fill="#F8F8F8" filter="url(#f4mpprb80m1xw)" rx="8" ry="8" style="stroke: #383838; stroke-width: 2.0;"/><text fill="#000000" font-family="sans-serif" font-size="14" lengthAdjust="spacingAndGlyphs" textLength="106" x="411" y="82.0332">/library/launcher/</text><!--entity ICPCLa--><ellipse cx="369" cy="195.5" fill="#F8F8F8" filter="url(#f4mpprb80m1xw)" rx="8" ry="8" style="stroke: #383838; stroke-width: 2.0;"/><text fill="#000000" font-family="sans-serif" font-size="14" lengthAdjust="spacingAndGlyphs" textLength="128" x="305" y="227.0332">/payments/launcher/</text><!--entity ICPCM--><ellipse cx="273" cy="328" fill="#F8F8F8" filter="url(#f4mpprb80m1xw)" rx="8" ry="8" style="stroke: #383838; stroke-width: 2.0;"/><text fill="#000000" font-family="sans-serif" font-size="14" lengthAdjust="spacingAndGlyphs" textLength="187" x="179.5" y="359.5332">/payments/machine-manager/</text><!--entity ICLiAD--><ellipse cx="655" cy="50.5" fill="#F8F8F8" filter="url(#f4mpprb80m1xw)" rx="8" ry="8" style="stroke: #383838; stroke-width: 2.0;"/><text fill="#000000" font-family="sans-serif" font-size="14" lengthAdjust="spacingAndGlyphs" textLength="74" x="618" y="82.0332">/library/dev/</text><!--entity ICMAS--><ellipse cx="639" cy="686" fill="#F8F8F8" filter="url(#f4mpprb80m1xw)" rx="8" ry="8" style="stroke: #383838; stroke-width: 2.0;"/><text fill="#000000" font-family="sans-serif" font-size="14" lengthAdjust="spacingAndGlyphs" textLength="208" x="535" y="717.5332">/machine-manager/management/</text><!--entity ICLaAU--><ellipse cx="557" cy="195.5" fill="#F8F8F8" filter="url(#f4mpprb80m1xw)" rx="8" ry="8" style="stroke: #383838; stroke-width: 2.0;"/><text fill="#000000" font-family="sans-serif" font-size="14" lengthAdjust="spacingAndGlyphs" textLength="124" x="495" y="227.0332">/launcher/app-user/</text><!--entity ICMaCM--><ellipse cx="424" cy="686" fill="#F8F8F8" filter="url(#f4mpprb80m1xw)" rx="8" ry="8" style="stroke: #383838; stroke-width: 2.0;"/><text fill="#000000" font-family="sans-serif" font-size="14" lengthAdjust="spacingAndGlyphs" textLength="121" x="363.5" y="717.5332">/machine/manager/</text><!--entity ICQ--><ellipse cx="707" cy="800" fill="#F8F8F8" filter="url(#f4mpprb80m1xw)" rx="8" ry="8" style="stroke: #383838; stroke-width: 2.0;"/><text fill="#000000" font-family="sans-serif" font-size="14" lengthAdjust="spacingAndGlyphs" textLength="48" x="683" y="831.5332">/queue/</text><!--entity ICA--><ellipse cx="1004" cy="195.5" fill="#F8F8F8" filter="url(#f4mpprb80m1xw)" rx="8" ry="8" style="stroke: #383838; stroke-width: 2.0;"/><text fill="#000000" font-family="sans-serif" font-size="14" lengthAdjust="spacingAndGlyphs" textLength="36" x="986" y="227.0332">/auth/</text><!--link AU to AA--><path d="M830.638,195.5 C835.561,195.5 840.485,195.5 845.408,195.5 " fill="none" id="AU-AA" style="stroke: #383838; stroke-width: 1.0;"/><polygon fill="none" points="830.398,202.5,810.398,195.5,830.398,188.5,830.398,202.5" style="stroke: #383838; stroke-width: 1.0;"/><!--link AD to AA--><path d="M878.508,113.541 C879.905,126.862 881.349,140.63 882.642,152.949 " fill="none" id="AD-AA" style="stroke: #383838; stroke-width: 1.0;"/><polygon fill="none" points="871.504,113.867,876.379,93.246,885.427,112.407,871.504,113.867" style="stroke: #383838; stroke-width: 1.0;"/><!--link AA to AS--><path d="M887.265,238.382 C887.562,288.819 888,376.107 888,451 C888,451 888,451 888,687 C888,749.956 894.287,777.361 852,824 C792.085,890.0814 685.208,913.2709 624.149,921.3142 " fill="none" id="AA-AS" style="stroke: #383838; stroke-width: 1.0;"/><polygon fill="none" points="624.927,928.2708,604.256,923.6085,623.323,914.363,624.927,928.2708" style="stroke: #383838; stroke-width: 1.0;"/><!--link SMCC to ISMCCSMCM--><path d="M434.373,452 C422.676,452 410.978,452 399.281,452 " fill="none" id="SMCC-ISMCCSMCM" style="stroke: #383838; stroke-width: 1.0;"/><!--link ISMCCSMCM to SMCM--><path d="M396.447,470.61 C403.462,489.775 414.712,520.505 422.458,541.666 " fill="none" id="ISMCCSMCM-SMCM" style="stroke: #383838; stroke-width: 1.0;"/><path d="M386.066,466.8536 A9,9 0 0 0 401.949 461.0373" fill="none" style="stroke: #383838; stroke-width: 1.5;"/><!--link ISMCMSMCC to SMCM--><path d="M515.783,566 C504.29,566 492.797,566 481.305,566 " fill="none" id="ISMCMSMCC-SMCM" style="stroke: #383838; stroke-width: 1.0;"/><!--link SMCC to ISMCMSMCC--><path d="M503.594,476.206 C508.656,497.202 516.007,527.694 520.643,546.927 " fill="none" id="SMCC-ISMCMSMCC" style="stroke: #383838; stroke-width: 1.0;"/><path d="M530.521,551.818 A9,9 0 0 0 514.0778 555.7832" fill="none" style="stroke: #383838; stroke-width: 1.5;"/><!--link CA to ICA--><path d="M1004,74.794 C1004,107.4 1004,165.043 1004,186.316 " fill="none" id="CA-ICA" style="stroke: #383838; stroke-width: 1.0;"/><!--link CLiU to AD--><path d="M807.374,50.5 C818.003,50.5 828.632,50.5 839.261,50.5 " fill="none" id="CLiU-AD" style="stroke: #383838; stroke-width: 1.0;"/><polygon fill="#383838" points="802.156,50.5,811.156,54.5,807.156,50.5,811.156,46.5,802.156,50.5" style="stroke: #383838; stroke-width: 1.0;"/><!--link ICLiAD to CLiU--><path d="M674.127,50.5 C683.373,50.5 692.62,50.5 701.866,50.5 " fill="none" id="ICLiAD-CLiU" style="stroke: #383838; stroke-width: 1.0;"/><path d="M667.1722,58.9572 A9,9 0 0 0 667.1722 42.0428" fill="none" style="stroke: #383838; stroke-width: 1.5;"/><!--link CLi to ICLiAD--><path d="M605.047,50.5 C618.576,50.5 632.105,50.5 645.634,50.5 " fill="none" id="CLi-ICLiAD" style="stroke: #383838; stroke-width: 1.0;"/><!--link CMU to AS--><path d="M578,829.411 C578,845.518 578,865.966 578,883.8553 " fill="none" id="CMU-AS" style="stroke: #383838; stroke-width: 1.0;"/><polygon fill="#383838" points="578,824.126,574,833.126,578,829.126,582,833.126,578,824.126" style="stroke: #383838; stroke-width: 1.0;"/><!--link ICMAS to CMU--><path d="M629.698,704.079 C619.283,723.203 602.341,754.308 590.709,775.666 " fill="none" id="ICMAS-CMU" style="stroke: #383838; stroke-width: 1.0;"/><path d="M625.7135,693.7136 A9,9 0 0 0 640.5682 701.803" fill="none" style="stroke: #383838; stroke-width: 1.5;"/><!--link SMCM to ICMAS--><path d="M462.069,590.202 C473.174,598.114 485.929,606.779 498,614 C545.981,642.703 607.029,670.746 629.85,680.955 " fill="none" id="SMCM-ICMAS" style="stroke: #383838; stroke-width: 1.0;"/><!--link CLaU to AU--><path d="M722.25,195.5 C732.022,195.5 741.793,195.5 751.565,195.5 " fill="none" id="CLaU-AU" style="stroke: #383838; stroke-width: 1.0;"/><polygon fill="#383838" points="717.141,195.5,726.141,199.5,722.141,195.5,726.141,191.5,717.141,195.5" style="stroke: #383838; stroke-width: 1.0;"/><!--link ICLaAU to CLaU--><path d="M576.227,195.5 C584.477,195.5 592.727,195.5 600.978,195.5 " fill="none" id="ICLaAU-CLaU" style="stroke: #383838; stroke-width: 1.0;"/><path d="M569.2422,203.9572 A9,9 0 0 0 569.2422 187.0428" fill="none" style="stroke: #383838; stroke-width: 1.5;"/><!--link CLa to ICLaAU--><path d="M513.305,195.5 C524.797,195.5 536.29,195.5 547.783,195.5 " fill="none" id="CLa-ICLaAU" style="stroke: #383838; stroke-width: 1.0;"/><!--link ICLiCLa to CLi--><path d="M473.281,50.5 C489.169,50.5 505.057,50.5 520.944,50.5 " fill="none" id="ICLiCLa-CLi" style="stroke: #383838; stroke-width: 1.0;"/><!--link ICLiCLa to CLa--><path d="M463.872,69.84 C463.691,95.716 463.361,142.934 463.163,171.242 " fill="none" id="ICLiCLa-CLa" style="stroke: #383838; stroke-width: 1.0;"/><path d="M455.4644,62.6169 A9,9 0 0 0 472.3785 62.7353" fill="none" style="stroke: #383838; stroke-width: 1.5;"/><!--link CLa to ICMCLa--><path d="M470.765,219.53 C479.412,245.177 493.201,286.072 501.039,309.321 " fill="none" id="CLa-ICMCLa" style="stroke: #383838; stroke-width: 1.0;"/><path d="M511.3021,313.2886 A9,9 0 0 0 495.2745 318.6939" fill="none" style="stroke: #383838; stroke-width: 1.5;"/><!--link ICMCLa to SMCC--><path d="M506.409,337.005 C505.072,355.135 501.769,399.907 499.723,427.64 " fill="none" id="ICMCLa-SMCC" style="stroke: #383838; stroke-width: 1.0;"/><!--link SMCM to ICMCMa--><path d="M389.816,590.032 C339.205,618.336 256.661,664.498 229.205,679.852 " fill="none" id="SMCM-ICMCMa" style="stroke: #383838; stroke-width: 1.0;"/><!--link ICMCMa to CMa--><path d="M237.67,697.308 C268.102,715.06 331.111,751.815 372.454,775.931 " fill="none" id="ICMCMa-CMa" style="stroke: #383838; stroke-width: 1.0;"/><path d="M227.401,701.1083 A9,9 0 0 0 235.9229 686.4975" fill="none" style="stroke: #383838; stroke-width: 1.5;"/><!--link SMCM to ICMaCM--><path d="M429.634,590.032 C428.304,612.451 426.309,646.074 425.085,666.717 " fill="none" id="SMCM-ICMaCM" style="stroke: #383838; stroke-width: 1.0;"/><path d="M433.1025,674.3694 A9,9 0 0 0 416.2176 673.369" fill="none" style="stroke: #383838; stroke-width: 1.5;"/><!--link ICMaCM to CMa--><path d="M423.137,695.055 C421.353,711.707 417.2,750.469 414.5,775.666 " fill="none" id="ICMaCM-CMa" style="stroke: #383838; stroke-width: 1.0;"/><!--link CMa to AS--><path d="M446.973,827.23 C478.35,850.762 523.686,884.7648 551.969,905.9768 " fill="none" id="CMa-AS" style="stroke: #383838; stroke-width: 1.0;"/><polygon fill="#383838" points="442.834,824.126,447.634,832.726,446.834,827.126,452.434,826.326,442.834,824.126" style="stroke: #383838; stroke-width: 1.0;"/><!--link CP to ICPCLa--><path d="M325.211,195.5 C336.728,195.5 348.246,195.5 359.763,195.5 " fill="none" id="CP-ICPCLa" style="stroke: #383838; stroke-width: 1.0;"/><!--link ICPCLa to CLa--><path d="M388.236,195.5 C396.48,195.5 404.725,195.5 412.969,195.5 " fill="none" id="ICPCLa-CLa" style="stroke: #383838; stroke-width: 1.0;"/><path d="M381.2582,203.9572 A9,9 0 0 0 381.2582 187.0428" fill="none" style="stroke: #383838; stroke-width: 1.5;"/><!--link CP to ICPCM--><path d="M273.824,219.53 C273.596,249.238 273.211,299.408 273.062,318.908 " fill="none" id="CP-ICPCM" style="stroke: #383838; stroke-width: 1.0;"/><!--link ICPCM to SMCC--><path d="M292.172,333.667 C329.894,342.891 410.582,362.838 416,366 C442.741,381.606 466.465,408.375 481.428,427.708 " fill="none" id="ICPCM-SMCC" style="stroke: #383838; stroke-width: 1.0;"/><path d="M283.356,340.2219 A9,9 0 0 0 287.3668 323.7899" fill="none" style="stroke: #383838; stroke-width: 1.5;"/><!--link CLa to ICLoCLa--><path d="M429.835,219.515 C419.086,226.205 406.867,233.039 395,238 C293.161,280.575 259.648,266.024 154,298 C130.367,305.153 103.4793,315.161 87.3954,321.354 " fill="none" id="CLa-ICLoCLa" style="stroke: #383838; stroke-width: 1.0;"/><polygon fill="#383838" points="82.3753,323.298,92.2125,323.7777,87.0378,321.4923,89.3233,316.3176,82.3753,323.298" style="stroke: #383838; stroke-width: 1.0;"/><!--link ICLoCLa to CLo--><path d="M72.6063,337.005 C71.7147,355.135 69.5128,399.907 68.1489,427.64 " fill="none" id="ICLoCLa-CLo" style="stroke: #383838; stroke-width: 1.0;"/><!--link CLo to ICLoCMa--><path d="M66.7928,476.206 C66.5685,501.323 66.223,540.029 66.0733,556.793 " fill="none" id="CLo-ICLoCMa" style="stroke: #383838; stroke-width: 1.0;"/><!--link ICLoCMa to CMa--><path d="M64.9504,580.336 C63.4544,609.239 64.2221,678.099 101,716 C137.533,753.649 287.758,780.718 365.262,792.475 " fill="none" id="ICLoCMa-CMa" style="stroke: #383838; stroke-width: 1.0;"/><polygon fill="#383838" points="65.2697,575.109,60.7294,583.8489,64.9654,580.0997,68.7146,584.3358,65.2697,575.109" style="stroke: #383838; stroke-width: 1.0;"/><!--link ICQ to CQ--><path d="M716.07,800 C727.79,800 739.51,800 751.23,800 " fill="none" id="ICQ-CQ" style="stroke: #383838; stroke-width: 1.0;"/><!--link SMCC to ICQ--><path d="M553.575,476.002 C618.707,506.374 723.401,566.67 768,656 C779.912,679.858 776.31,690.661 768,716 C759.173,742.914 737.918,768.297 722.992,783.74 " fill="none" id="SMCC-ICQ" style="stroke: #383838; stroke-width: 1.0;"/><path d="M724.019,794.6712 A9,9 0 0 0 712.0611 782.7085" fill="none" style="stroke: #383838; stroke-width: 1.5;"/><!--link CMa to ICQ--><path d="M439.684,775.729 C454.552,764.311 473.835,751.924 493.5,746 C565.419,724.336 594.568,713.955 662.5,746 C678.084,753.352 690.06,769.135 697.642,781.749 " fill="none" id="CMa-ICQ" style="stroke: #383838; stroke-width: 1.0;"/><path d="M708.4581,783.7775 A9,9 0 0 0 693.6854 792.0157" fill="none" style="stroke: #383838; stroke-width: 1.5;"/><!--
@startuml

skinparam componentStyle uml2
skinparam monochrome true

actor "App User" as AU
actor Developer as AD
actor Supplier as AS
actor Administrator as AA

AA -le-|> AU
AA -up-|> AD
AA -do-|> AS

component Launcher as CLa
component "Launcher UI" as CLaU
component Library as CLi
component "Library UI" as CLiU
component Logger as CLo
component "Machine Manager" <<subsystem>> as SM {
    component "Machines" as SMCM
    component "Computations" as SMCC
    interface " " as ISMCMSMCC
    interface " " as ISMCCSMCM

    SMCC -ri- ISMCCSMCM
    SMCM -up-( ISMCCSMCM

    SMCM -le- ISMCMSMCC
    SMCC -ri-( ISMCMSMCC
}
component "Machine Manager UI" as CMU
component Payments as CP
component Machine as CMa
component "OAuth Server" as CA
component Queue as CQ

interface "/logger/launcher/" as ICLoCLa
interface "/logger/machine/" as ICLoCMa
interface "/machine-manager/machines/" as ICMCMa
interface "/machine-manager/launcher/" as ICMCLa
interface "/library/launcher/" as ICLiCLa
interface "/payments/launcher/" as ICPCLa
interface "/payments/machine-manager/" as ICPCM
interface "/library/dev/" as ICLiAD
interface "/machine-manager/management/" as ICMAS
interface "/launcher/app-user/" as ICLaAU
interface "/machine/manager/" as ICMaCM
interface "/queue/" as ICQ
interface "/auth/" as ICA

CA -do- ICA

AD -le-> CLiU
CLiU -le-( ICLiAD
ICLiAD -le- CLi

AS -up-> CMU
CMU -up-( ICMAS
ICMAS -up- SMCM

AU -le-> CLaU
CLaU -le-( ICLaAU
ICLaAU -le- CLa

CLi -le- ICLiCLa
ICLiCLa )-do- CLa

CLa -do-( ICMCLa
ICMCLa -do- SMCC

SMCM -do- ICMCMa
ICMCMa )-do- CMa
SMCM -do-( ICMaCM
ICMaCM -do- CMa

CMa <-do- AS

CP -ri- ICPCLa
ICPCLa )-ri- CLa

CP -do- ICPCM
SMCC -up-( ICPCM

CLa -do-> ICLoCLa
ICLoCLa -do- CLo
CLo -do- ICLoCMa
ICLoCMa <-do- CMa

CQ -le- ICQ
SMCC -do-( ICQ
CMa -ri-( ICQ

@enduml

PlantUML version 1.2018.11(Sat Sep 22 18:43:53 CEST 2018)
(GPL source distribution)
Java Runtime: OpenJDK Runtime Environment
JVM: OpenJDK 64-Bit Server VM
Java Version: 1.8.0_152-release-1248-b8
Operating System: Windows 10
OS Version: 10.0
Default Encoding: Cp1250
Language: pl
Country: PL
--></g></svg>