<?xml version="1.0" encoding="UTF-8" standalone="no"?><svg xmlns="http://www.w3.org/2000/svg" xmlns:xlink="http://www.w3.org/1999/xlink" contentScriptType="application/ecmascript" contentStyleType="text/css" height="714px" preserveAspectRatio="none" style="width:1060px;height:714px;" version="1.1" viewBox="0 0 1060 714" width="1060px" zoomAndPan="magnify"><defs><filter height="300%" id="foh5hmwri3s1f" width="300%" x="-1" y="-1"><feGaussianBlur result="blurOut" stdDeviation="2.0"/><feColorMatrix in="blurOut" result="blurOut2" type="matrix" values="0 0 0 0 0 0 0 0 0 0 0 0 0 0 0 0 0 0 .4 0"/><feOffset dx="4.0" dy="4.0" in="blurOut2" result="blurOut3"/><feBlend in="SourceGraphic" in2="blurOut3" mode="normal"/></filter></defs><g><!--cluster SM--><rect fill="#FFFFFF" filter="url(#foh5hmwri3s1f)" height="118" style="stroke: #000000; stroke-width: 1.5;" width="348" x="298" y="229"/><rect fill="#FFFFFF" height="10" style="stroke: #000000; stroke-width: 1.5;" width="15" x="626" y="234"/><rect fill="#FFFFFF" height="2" style="stroke: #000000; stroke-width: 1.5;" width="4" x="624" y="236"/><rect fill="#FFFFFF" height="2" style="stroke: #000000; stroke-width: 1.5;" width="4" x="624" y="240"/><text fill="#000000" font-family="sans-serif" font-size="14" font-style="italic" lengthAdjust="spacingAndGlyphs" textLength="83" x="430.5" y="256.5332">«subsystem»</text><text fill="#000000" font-family="sans-serif" font-size="14" font-weight="bold" lengthAdjust="spacingAndGlyphs" textLength="126" x="409" y="274.1426">Machine Manager</text><!--entity SMCM--><rect fill="#F8F8F8" filter="url(#foh5hmwri3s1f)" height="47.6094" style="stroke: #383838; stroke-width: 1.5;" width="100" x="314" y="283"/><rect fill="#F8F8F8" height="10" style="stroke: #383838; stroke-width: 1.5;" width="15" x="394" y="288"/><rect fill="#F8F8F8" height="2" style="stroke: #383838; stroke-width: 1.5;" width="4" x="392" y="290"/><rect fill="#F8F8F8" height="2" style="stroke: #383838; stroke-width: 1.5;" width="4" x="392" y="294"/><text fill="#000000" font-family="sans-serif" font-size="14" lengthAdjust="spacingAndGlyphs" textLength="60" x="329" y="317.5332">Machines</text><!--entity SMCC--><rect fill="#F8F8F8" filter="url(#foh5hmwri3s1f)" height="47.6094" style="stroke: #383838; stroke-width: 1.5;" width="127" x="502.5" y="283"/><rect fill="#F8F8F8" height="10" style="stroke: #383838; stroke-width: 1.5;" width="15" x="609.5" y="288"/><rect fill="#F8F8F8" height="2" style="stroke: #383838; stroke-width: 1.5;" width="4" x="607.5" y="290"/><rect fill="#F8F8F8" height="2" style="stroke: #383838; stroke-width: 1.5;" width="4" x="607.5" y="294"/><text fill="#000000" font-family="sans-serif" font-size="14" lengthAdjust="spacingAndGlyphs" textLength="87" x="517.5" y="317.5332">Computations</text><!--entity ISMCMSMCC--><ellipse cx="458" cy="307" fill="#F8F8F8" filter="url(#foh5hmwri3s1f)" rx="8" ry="8" style="stroke: #383838; stroke-width: 2.0;"/><text fill="#000000" font-family="sans-serif" font-size="14" lengthAdjust="spacingAndGlyphs" textLength="63" x="426.5" y="338.5332">IMachines</text><!--entity AU--><ellipse cx="740" cy="18" fill="#F8F8F8" filter="url(#foh5hmwri3s1f)" rx="8" ry="8" style="stroke: #383838; stroke-width: 2.0;"/><path d="M740,26 L740,53 M727,34 L753,34 M740,53 L727,68 M740,53 L753,68 " fill="none" filter="url(#foh5hmwri3s1f)" style="stroke: #383838; stroke-width: 2.0;"/><text fill="#000000" font-family="sans-serif" font-size="14" lengthAdjust="spacingAndGlyphs" textLength="58" x="711" y="89.5332">App User</text><!--entity AS--><ellipse cx="681" cy="629" fill="#F8F8F8" filter="url(#foh5hmwri3s1f)" rx="8" ry="8" style="stroke: #383838; stroke-width: 2.0;"/><path d="M681,637 L681,664 M668,645 L694,645 M681,664 L668,679 M681,664 L694,679 " fill="none" filter="url(#foh5hmwri3s1f)" style="stroke: #383838; stroke-width: 2.0;"/><text fill="#000000" font-family="sans-serif" font-size="14" lengthAdjust="spacingAndGlyphs" textLength="52" x="655" y="700.5332">Supplier</text><!--entity AA--><ellipse cx="846" cy="18" fill="#F8F8F8" filter="url(#foh5hmwri3s1f)" rx="8" ry="8" style="stroke: #383838; stroke-width: 2.0;"/><path d="M846,26 L846,53 M833,34 L859,34 M846,53 L833,68 M846,53 L859,68 " fill="none" filter="url(#foh5hmwri3s1f)" style="stroke: #383838; stroke-width: 2.0;"/><text fill="#000000" font-family="sans-serif" font-size="14" lengthAdjust="spacingAndGlyphs" textLength="83" x="804.5" y="89.5332">Administrator</text><!--entity CLa--><rect fill="#F8F8F8" filter="url(#foh5hmwri3s1f)" height="47.6094" style="stroke: #383838; stroke-width: 1.5;" width="100" x="372" y="26.5"/><rect fill="#F8F8F8" height="10" style="stroke: #383838; stroke-width: 1.5;" width="15" x="452" y="31.5"/><rect fill="#F8F8F8" height="2" style="stroke: #383838; stroke-width: 1.5;" width="4" x="450" y="33.5"/><rect fill="#F8F8F8" height="2" style="stroke: #383838; stroke-width: 1.5;" width="4" x="450" y="37.5"/><text fill="#000000" font-family="sans-serif" font-size="14" lengthAdjust="spacingAndGlyphs" textLength="60" x="387" y="61.0332">Launcher</text><!--entity CLaU--><rect fill="#F8F8F8" filter="url(#foh5hmwri3s1f)" height="47.6094" style="stroke: #383838; stroke-width: 1.5;" width="116" x="560" y="26.5"/><rect fill="#F8F8F8" height="10" style="stroke: #383838; stroke-width: 1.5;" width="15" x="656" y="31.5"/><rect fill="#F8F8F8" height="2" style="stroke: #383838; stroke-width: 1.5;" width="4" x="654" y="33.5"/><rect fill="#F8F8F8" height="2" style="stroke: #383838; stroke-width: 1.5;" width="4" x="654" y="37.5"/><text fill="#000000" font-family="sans-serif" font-size="14" lengthAdjust="spacingAndGlyphs" textLength="76" x="575" y="61.0332">Launcher UI</text><!--entity CLo--><rect fill="#F8F8F8" filter="url(#foh5hmwri3s1f)" height="47.6094" style="stroke: #383838; stroke-width: 1.5;" width="85" x="159.5" y="283"/><rect fill="#F8F8F8" height="10" style="stroke: #383838; stroke-width: 1.5;" width="15" x="224.5" y="288"/><rect fill="#F8F8F8" height="2" style="stroke: #383838; stroke-width: 1.5;" width="4" x="222.5" y="290"/><rect fill="#F8F8F8" height="2" style="stroke: #383838; stroke-width: 1.5;" width="4" x="222.5" y="294"/><text fill="#000000" font-family="sans-serif" font-size="14" lengthAdjust="spacingAndGlyphs" textLength="45" x="174.5" y="317.5332">Logger</text><!--entity CMU--><rect fill="#F8F8F8" filter="url(#foh5hmwri3s1f)" height="47.6094" style="stroke: #383838; stroke-width: 1.5;" width="169" x="596.5" y="511"/><rect fill="#F8F8F8" height="10" style="stroke: #383838; stroke-width: 1.5;" width="15" x="745.5" y="516"/><rect fill="#F8F8F8" height="2" style="stroke: #383838; stroke-width: 1.5;" width="4" x="743.5" y="518"/><rect fill="#F8F8F8" height="2" style="stroke: #383838; stroke-width: 1.5;" width="4" x="743.5" y="522"/><text fill="#000000" font-family="sans-serif" font-size="14" lengthAdjust="spacingAndGlyphs" textLength="129" x="611.5" y="545.5332">Machine Manager UI</text><!--entity CMa--><rect fill="#F8F8F8" filter="url(#foh5hmwri3s1f)" height="47.6094" style="stroke: #383838; stroke-width: 1.5;" width="93" x="317.5" y="511"/><rect fill="#F8F8F8" height="10" style="stroke: #383838; stroke-width: 1.5;" width="15" x="390.5" y="516"/><rect fill="#F8F8F8" height="2" style="stroke: #383838; stroke-width: 1.5;" width="4" x="388.5" y="518"/><rect fill="#F8F8F8" height="2" style="stroke: #383838; stroke-width: 1.5;" width="4" x="388.5" y="522"/><text fill="#000000" font-family="sans-serif" font-size="14" lengthAdjust="spacingAndGlyphs" textLength="53" x="332.5" y="545.5332">Machine</text><!--entity CA--><rect fill="#F8F8F8" filter="url(#foh5hmwri3s1f)" height="47.6094" style="stroke: #383838; stroke-width: 1.5;" width="126" x="923" y="26.5"/><rect fill="#F8F8F8" height="10" style="stroke: #383838; stroke-width: 1.5;" width="15" x="1029" y="31.5"/><rect fill="#F8F8F8" height="2" style="stroke: #383838; stroke-width: 1.5;" width="4" x="1027" y="33.5"/><rect fill="#F8F8F8" height="2" style="stroke: #383838; stroke-width: 1.5;" width="4" x="1027" y="37.5"/><text fill="#000000" font-family="sans-serif" font-size="14" lengthAdjust="spacingAndGlyphs" textLength="86" x="938" y="61.0332">OAuth Server</text><!--entity ICLoCLa--><ellipse cx="277" cy="183" fill="#F8F8F8" filter="url(#foh5hmwri3s1f)" rx="8" ry="8" style="stroke: #383838; stroke-width: 2.0;"/><text fill="#000000" font-family="sans-serif" font-size="14" lengthAdjust="spacingAndGlyphs" textLength="107" x="223.5" y="214.5332">/logger/launcher/</text><!--entity ICLoCMa--><ellipse cx="66" cy="421" fill="#F8F8F8" filter="url(#foh5hmwri3s1f)" rx="8" ry="8" style="stroke: #383838; stroke-width: 2.0;"/><text fill="#000000" font-family="sans-serif" font-size="14" lengthAdjust="spacingAndGlyphs" textLength="105" x="13.5" y="452.5332">/logger/machine/</text><!--entity ICMCMa--><ellipse cx="262" cy="421" fill="#F8F8F8" filter="url(#foh5hmwri3s1f)" rx="8" ry="8" style="stroke: #383838; stroke-width: 2.0;"/><text fill="#000000" font-family="sans-serif" font-size="14" lengthAdjust="spacingAndGlyphs" textLength="186" x="169" y="452.5332">/machine-manager/machines/</text><!--entity ICMCLa--><ellipse cx="545" cy="183" fill="#F8F8F8" filter="url(#foh5hmwri3s1f)" rx="8" ry="8" style="stroke: #383838; stroke-width: 2.0;"/><text fill="#000000" font-family="sans-serif" font-size="14" lengthAdjust="spacingAndGlyphs" textLength="181" x="454.5" y="214.5332">/machine-manager/launcher/</text><!--entity ICMAS--><ellipse cx="681" cy="421" fill="#F8F8F8" filter="url(#foh5hmwri3s1f)" rx="8" ry="8" style="stroke: #383838; stroke-width: 2.0;"/><text fill="#000000" font-family="sans-serif" font-size="14" lengthAdjust="spacingAndGlyphs" textLength="208" x="577" y="452.5332">/machine-manager/management/</text><!--entity ICLaAU--><ellipse cx="516" cy="50.5" fill="#F8F8F8" filter="url(#foh5hmwri3s1f)" rx="8" ry="8" style="stroke: #383838; stroke-width: 2.0;"/><text fill="#000000" font-family="sans-serif" font-size="14" lengthAdjust="spacingAndGlyphs" textLength="124" x="454" y="82.0332">/launcher/app-user/</text><!--entity ICMaCM--><ellipse cx="466" cy="421" fill="#F8F8F8" filter="url(#foh5hmwri3s1f)" rx="8" ry="8" style="stroke: #383838; stroke-width: 2.0;"/><text fill="#000000" font-family="sans-serif" font-size="14" lengthAdjust="spacingAndGlyphs" textLength="121" x="405.5" y="452.5332">/machine/manager/</text><!--entity ICA--><ellipse cx="986" cy="183" fill="#F8F8F8" filter="url(#foh5hmwri3s1f)" rx="8" ry="8" style="stroke: #383838; stroke-width: 2.0;"/><text fill="#000000" font-family="sans-serif" font-size="14" lengthAdjust="spacingAndGlyphs" textLength="36" x="968" y="214.5332">/auth/</text><!--link AU to AA--><path d="M789.638,50.5 C794.561,50.5 799.485,50.5 804.408,50.5 " fill="none" id="AU-AA" style="stroke: #383838; stroke-width: 1.0;"/><polygon fill="none" points="789.398,57.5,769.398,50.5,789.398,43.5,789.398,57.5" style="stroke: #383838; stroke-width: 1.0;"/><!--link AA to AS--><path d="M846,93.382 C846,143.819 846,231.108 846,306 C846,306 846,306 846,422 C846,508.627 771.472,586.541 722.593,628.3253 " fill="none" id="AA-AS" style="stroke: #383838; stroke-width: 1.0;"/><polygon fill="none" points="727.027,633.7424,707.145,641.0711,718.117,622.9435,727.027,633.7424" style="stroke: #383838; stroke-width: 1.0;"/><!--link SMCM to ISMCMSMCC--><path d="M414.305,307 C425.797,307 437.29,307 448.783,307 " fill="none" id="SMCM-ISMCMSMCC" style="stroke: #383838; stroke-width: 1.0;"/><!--link ISMCMSMCC to SMCC--><path d="M477.425,307 C485.741,307 494.057,307 502.373,307 " fill="none" id="ISMCMSMCC-SMCC" style="stroke: #383838; stroke-width: 1.0;"/><path d="M470.3592,315.4572 A9,9 0 0 0 470.3592 298.5428" fill="none" style="stroke: #383838; stroke-width: 1.5;"/><!--link CA to ICA--><path d="M986,74.53 C986,104.238 986,154.408 986,173.908 " fill="none" id="CA-ICA" style="stroke: #383838; stroke-width: 1.0;"/><!--link CMU to AS--><path d="M681,564.411 C681,580.518 681,600.966 681,618.8553 " fill="none" id="CMU-AS" style="stroke: #383838; stroke-width: 1.0;"/><polygon fill="#383838" points="681,559.126,677,568.126,681,564.126,685,568.126,681,559.126" style="stroke: #383838; stroke-width: 1.0;"/><!--link ICMAS to CMU--><path d="M681,440.148 C681,459.346 681,489.702 681,510.666 " fill="none" id="ICMAS-CMU" style="stroke: #383838; stroke-width: 1.0;"/><path d="M672.5428,433.1332 A9,9 0 0 0 689.4572 433.1332" fill="none" style="stroke: #383838; stroke-width: 1.5;"/><!--link SMCM to ICMAS--><path d="M392.298,331.231 C403.754,339.708 417.458,348.739 431,355 C476.387,375.983 632.403,409.732 671.871,418.084 " fill="none" id="SMCM-ICMAS" style="stroke: #383838; stroke-width: 1.0;"/><!--link CLaU to AU--><path d="M681.25,50.5 C691.022,50.5 700.793,50.5 710.565,50.5 " fill="none" id="CLaU-AU" style="stroke: #383838; stroke-width: 1.0;"/><polygon fill="#383838" points="676.141,50.5,685.141,54.5,681.141,50.5,685.141,46.5,676.141,50.5" style="stroke: #383838; stroke-width: 1.0;"/><!--link ICLaAU to CLaU--><path d="M535.227,50.5 C543.477,50.5 551.727,50.5 559.978,50.5 " fill="none" id="ICLaAU-CLaU" style="stroke: #383838; stroke-width: 1.0;"/><path d="M528.2422,58.9572 A9,9 0 0 0 528.2422 42.0428" fill="none" style="stroke: #383838; stroke-width: 1.5;"/><!--link CLa to ICLaAU--><path d="M472.305,50.5 C483.797,50.5 495.29,50.5 506.783,50.5 " fill="none" id="CLa-ICLaAU" style="stroke: #383838; stroke-width: 1.0;"/><!--link CLa to ICMCLa--><path d="M443.707,74.53 C468.645,100.989 508.881,143.678 530.368,166.476 " fill="none" id="CLa-ICMCLa" style="stroke: #383838; stroke-width: 1.0;"/><path d="M541.4163,165.8674 A9,9 0 0 0 529.1072 177.4685" fill="none" style="stroke: #383838; stroke-width: 1.5;"/><!--link ICMCLa to SMCC--><path d="M546.378,192.005 C549.499,210.135 557.205,254.907 561.979,282.64 " fill="none" id="ICMCLa-SMCC" style="stroke: #383838; stroke-width: 1.0;"/><!--link SMCM to ICMCMa--><path d="M342.866,331.206 C319.991,356.323 284.741,395.029 269.474,411.793 " fill="none" id="SMCM-ICMCMa" style="stroke: #383838; stroke-width: 1.0;"/><!--link ICMCMa to CMa--><path d="M276.135,437.52 C293.397,456.475 322.76,488.717 342.749,510.666 " fill="none" id="ICMCMa-CMa" style="stroke: #383838; stroke-width: 1.0;"/><path d="M265.1551,438.025 A9,9 0 0 0 277.6617 426.6371" fill="none" style="stroke: #383838; stroke-width: 1.5;"/><!--link SMCM to ICMaCM--><path d="M385.134,331.206 C405.06,353.085 434.376,385.276 451.695,404.292 " fill="none" id="SMCM-ICMaCM" style="stroke: #383838; stroke-width: 1.0;"/><path d="M462.7061,403.8226 A9,9 0 0 0 450.2006 415.2117" fill="none" style="stroke: #383838; stroke-width: 1.5;"/><!--link ICMaCM to CMa--><path d="M458.664,430.055 C443.499,446.707 408.198,485.469 385.251,510.666 " fill="none" id="ICMaCM-CMa" style="stroke: #383838; stroke-width: 1.0;"/><!--link CMa to AS--><path d="M415.623,556.275 C484.186,583.202 602.702,629.7488 654.962,650.2736 " fill="none" id="CMa-AS" style="stroke: #383838; stroke-width: 1.0;"/><polygon fill="#383838" points="410.774,554.37,417.6899,561.3822,415.4282,556.1971,420.6133,553.9354,410.774,554.37" style="stroke: #383838; stroke-width: 1.0;"/><!--link CLa to ICLoCLa--><path d="M396.411,74.53 C365.207,102.613 313.687,148.982 289.842,170.442 " fill="none" id="CLa-ICLoCLa" style="stroke: #383838; stroke-width: 1.0;"/><polygon fill="#383838" points="285.991,173.908,295.3564,170.8603,289.7074,170.5631,290.0046,164.9141,285.991,173.908" style="stroke: #383838; stroke-width: 1.0;"/><!--link ICLoCLa to CLo--><path d="M272.079,192.005 C260.934,210.135 233.41,254.907 216.361,282.64 " fill="none" id="ICLoCLa-CLo" style="stroke: #383838; stroke-width: 1.0;"/><!--link CLo to ICLoCMa--><path d="M173.821,331.206 C142.855,356.708 94.8792,396.217 75.0501,412.547 " fill="none" id="CLo-ICLoCMa" style="stroke: #383838; stroke-width: 1.0;"/><!--link ICLoCMa to CMa--><path d="M79.8213,427.21 C95.2315,433.018 120.897,442.687 143,451 C203.227,473.651 272.703,499.737 317.431,516.525 " fill="none" id="ICLoCMa-CMa" style="stroke: #383838; stroke-width: 1.0;"/><polygon fill="#383838" points="75.0083,425.396,82.019,432.3134,79.6869,427.1596,84.8407,424.8276,75.0083,425.396" style="stroke: #383838; stroke-width: 1.0;"/><!--
@startuml

skinparam componentStyle uml2
skinparam monochrome true

actor "App User" as AU
actor Supplier as AS
actor Administrator as AA

AA -le-|> AU
AA -do-|> AS

component Launcher as CLa
component "Launcher UI" as CLaU
component Logger as CLo
component "Machine Manager" <<subsystem>> as SM {
    component "Machines" as SMCM
    component "Computations" as SMCC
    interface "IMachines" as ISMCMSMCC

    SMCM -ri- ISMCMSMCC
    SMCC -le-( ISMCMSMCC
}
component "Machine Manager UI" as CMU
component Machine as CMa
component "OAuth Server" as CA

interface "/logger/launcher/" as ICLoCLa
interface "/logger/machine/" as ICLoCMa
interface "/machine-manager/machines/" as ICMCMa
interface "/machine-manager/launcher/" as ICMCLa
interface "/machine-manager/management/" as ICMAS
interface "/launcher/app-user/" as ICLaAU
interface "/machine/manager/" as ICMaCM
interface "/auth/" as ICA

CA -do- ICA

AS -up-> CMU
CMU -up-( ICMAS
ICMAS -up- SMCM

AU -le-> CLaU
CLaU -le-( ICLaAU
ICLaAU -le- CLa

CLa -do-( ICMCLa
ICMCLa -do- SMCC

SMCM -do- ICMCMa
ICMCMa )-do- CMa
SMCM -do-( ICMaCM
ICMaCM -do- CMa

CMa <-do- AS

CLa -do-> ICLoCLa
ICLoCLa -do- CLo
CLo -do- ICLoCMa
ICLoCMa <-do- CMa
@enduml

PlantUML version 1.2018.11(Sat Sep 22 18:43:53 CEST 2018)
(GPL source distribution)
Java Runtime: OpenJDK Runtime Environment
JVM: OpenJDK 64-Bit Server VM
Java Version: 1.8.0_152-release-1248-b8
Operating System: Windows 10
OS Version: 10.0
Default Encoding: Cp1250
Language: pl
Country: PL
--></g></svg>