<?xml version="1.0" encoding="UTF-8" standalone="no"?><svg xmlns="http://www.w3.org/2000/svg" xmlns:xlink="http://www.w3.org/1999/xlink" contentScriptType="application/ecmascript" contentStyleType="text/css" height="773.1px" preserveAspectRatio="none" style="width:1069px;height:773px;" version="1.1" viewBox="0 0 1069 773" width="1069.2px" zoomAndPan="magnify"><defs><filter height="300%" id="f1ezwim9ecfdb5" width="300%" x="-1" y="-1"><feGaussianBlur result="blurOut" stdDeviation="1.7999999523162842"/><feColorMatrix in="blurOut" result="blurOut2" type="matrix" values="0 0 0 0 0 0 0 0 0 0 0 0 0 0 0 0 0 0 .4 0"/><feOffset dx="3.5999999046325684" dy="3.5999999046325684" in="blurOut2" result="blurOut3"/><feBlend in="SourceGraphic" in2="blurOut3" mode="normal"/></filter></defs><g><!--cluster SM--><rect fill="#FFFFFF" filter="url(#f1ezwim9ecfdb5)" height="106.2" style="stroke: #000000; stroke-width: 1.3499999642372131;" width="313.2" x="334.8" y="336.6"/><rect fill="#FFFFFF" height="9" style="stroke: #000000; stroke-width: 1.3499999642372131;" width="13.5" x="630" y="341.1"/><rect fill="#FFFFFF" height="1.8" style="stroke: #000000; stroke-width: 1.3499999642372131;" width="3.6" x="628.2" y="342.9"/><rect fill="#FFFFFF" height="1.8" style="stroke: #000000; stroke-width: 1.3499999642372131;" width="3.6" x="628.2" y="346.5"/><text fill="#000000" font-family="sans-serif" font-size="12.6" font-style="italic" lengthAdjust="spacingAndGlyphs" textLength="74.7" x="454.05" y="361.3799">«subsystem»</text><text fill="#000000" font-family="sans-serif" font-size="12.6" font-weight="bold" lengthAdjust="spacingAndGlyphs" textLength="113.4" x="434.7" y="377.2283">Machine Manager</text><!--entity SMCM--><rect fill="#F8F8F8" filter="url(#f1ezwim9ecfdb5)" height="42.8484" style="stroke: #383838; stroke-width: 1.3499999642372131;" width="90" x="349.2" y="385.2"/><rect fill="#F8F8F8" height="9" style="stroke: #383838; stroke-width: 1.3499999642372131;" width="13.5" x="421.2" y="389.7"/><rect fill="#F8F8F8" height="1.8" style="stroke: #383838; stroke-width: 1.3499999642372131;" width="3.6" x="419.4" y="391.5"/><rect fill="#F8F8F8" height="1.8" style="stroke: #383838; stroke-width: 1.3499999642372131;" width="3.6" x="419.4" y="395.1"/><text fill="#000000" font-family="sans-serif" font-size="12.6" lengthAdjust="spacingAndGlyphs" textLength="54" x="362.7" y="416.2799">Machines</text><!--entity SMCC--><rect fill="#F8F8F8" filter="url(#f1ezwim9ecfdb5)" height="42.8484" style="stroke: #383838; stroke-width: 1.3499999642372131;" width="114.3" x="518.85" y="385.2"/><rect fill="#F8F8F8" height="9" style="stroke: #383838; stroke-width: 1.3499999642372131;" width="13.5" x="615.15" y="389.7"/><rect fill="#F8F8F8" height="1.8" style="stroke: #383838; stroke-width: 1.3499999642372131;" width="3.6" x="613.35" y="391.5"/><rect fill="#F8F8F8" height="1.8" style="stroke: #383838; stroke-width: 1.3499999642372131;" width="3.6" x="613.35" y="395.1"/><text fill="#000000" font-family="sans-serif" font-size="12.6" lengthAdjust="spacingAndGlyphs" textLength="78.3" x="532.35" y="416.2799">Computations</text><!--entity ISMCMSMCC--><ellipse cx="478.8" cy="406.8" fill="#F8F8F8" filter="url(#f1ezwim9ecfdb5)" rx="7.2" ry="7.2" style="stroke: #383838; stroke-width: 1.7999999523162842;"/><text fill="#000000" font-family="sans-serif" font-size="12.6" lengthAdjust="spacingAndGlyphs" textLength="81" x="438.3" y="435.1799">IComputations</text><!--entity AU--><ellipse cx="801.9" cy="146.7" fill="#F8F8F8" filter="url(#f1ezwim9ecfdb5)" rx="7.2" ry="7.2" style="stroke: #383838; stroke-width: 1.7999999523162842;"/><path d="M801.9,153.9 L801.9,178.2 M790.2,161.1 L813.6,161.1 M801.9,178.2 L790.2,191.7 M801.9,178.2 L813.6,191.7 " fill="none" filter="url(#f1ezwim9ecfdb5)" style="stroke: #383838; stroke-width: 1.7999999523162842;"/><text fill="#000000" font-family="sans-serif" font-size="12.6" lengthAdjust="spacingAndGlyphs" textLength="52.2" x="775.8" y="211.0799">App User</text><!--entity AD--><ellipse cx="883.8" cy="16.2" fill="#F8F8F8" filter="url(#f1ezwim9ecfdb5)" rx="7.2" ry="7.2" style="stroke: #383838; stroke-width: 1.7999999523162842;"/><path d="M883.8,23.4 L883.8,47.7 M872.1,30.6 L895.5,30.6 M883.8,47.7 L872.1,61.2 M883.8,47.7 L895.5,61.2 " fill="none" filter="url(#f1ezwim9ecfdb5)" style="stroke: #383838; stroke-width: 1.7999999523162842;"/><text fill="#000000" font-family="sans-serif" font-size="12.6" lengthAdjust="spacingAndGlyphs" textLength="58.5" x="854.55" y="80.5799">Developer</text><!--entity AS--><ellipse cx="612.9" cy="696.6" fill="#F8F8F8" filter="url(#f1ezwim9ecfdb5)" rx="7.2" ry="7.2" style="stroke: #383838; stroke-width: 1.7999999523162842;"/><path d="M612.9,703.8 L612.9,728.1 M601.2,711 L624.6,711 M612.9,728.1 L601.2,741.6 M612.9,728.1 L624.6,741.6 " fill="none" filter="url(#f1ezwim9ecfdb5)" style="stroke: #383838; stroke-width: 1.7999999523162842;"/><text fill="#000000" font-family="sans-serif" font-size="12.6" lengthAdjust="spacingAndGlyphs" textLength="46.8" x="589.5" y="760.9799">Supplier</text><!--entity AA--><ellipse cx="897.3" cy="146.7" fill="#F8F8F8" filter="url(#f1ezwim9ecfdb5)" rx="7.2" ry="7.2" style="stroke: #383838; stroke-width: 1.7999999523162842;"/><path d="M897.3,153.9 L897.3,178.2 M885.6,161.1 L909,161.1 M897.3,178.2 L885.6,191.7 M897.3,178.2 L909,191.7 " fill="none" filter="url(#f1ezwim9ecfdb5)" style="stroke: #383838; stroke-width: 1.7999999523162842;"/><text fill="#000000" font-family="sans-serif" font-size="12.6" lengthAdjust="spacingAndGlyphs" textLength="74.7" x="859.95" y="211.0799">Administrator</text><!--entity CLa--><rect fill="#F8F8F8" filter="url(#f1ezwim9ecfdb5)" height="42.8484" style="stroke: #383838; stroke-width: 1.3499999642372131;" width="90" x="470.7" y="154.35"/><rect fill="#F8F8F8" height="9" style="stroke: #383838; stroke-width: 1.3499999642372131;" width="13.5" x="542.7" y="158.85"/><rect fill="#F8F8F8" height="1.8" style="stroke: #383838; stroke-width: 1.3499999642372131;" width="3.6" x="540.9" y="160.65"/><rect fill="#F8F8F8" height="1.8" style="stroke: #383838; stroke-width: 1.3499999642372131;" width="3.6" x="540.9" y="164.25"/><text fill="#000000" font-family="sans-serif" font-size="12.6" lengthAdjust="spacingAndGlyphs" textLength="54" x="484.2" y="185.4299">Launcher</text><!--entity CLaU--><rect fill="#F8F8F8" filter="url(#f1ezwim9ecfdb5)" height="42.8484" style="stroke: #383838; stroke-width: 1.3499999642372131;" width="104.4" x="639.9" y="154.35"/><rect fill="#F8F8F8" height="9" style="stroke: #383838; stroke-width: 1.3499999642372131;" width="13.5" x="726.3" y="158.85"/><rect fill="#F8F8F8" height="1.8" style="stroke: #383838; stroke-width: 1.3499999642372131;" width="3.6" x="724.5" y="160.65"/><rect fill="#F8F8F8" height="1.8" style="stroke: #383838; stroke-width: 1.3499999642372131;" width="3.6" x="724.5" y="164.25"/><text fill="#000000" font-family="sans-serif" font-size="12.6" lengthAdjust="spacingAndGlyphs" textLength="68.4" x="653.4" y="185.4299">Launcher UI</text><!--entity CLi--><rect fill="#F8F8F8" filter="url(#f1ezwim9ecfdb5)" height="42.8484" style="stroke: #383838; stroke-width: 1.3499999642372131;" width="75.6" x="567.9" y="23.85"/><rect fill="#F8F8F8" height="9" style="stroke: #383838; stroke-width: 1.3499999642372131;" width="13.5" x="625.5" y="28.35"/><rect fill="#F8F8F8" height="1.8" style="stroke: #383838; stroke-width: 1.3499999642372131;" width="3.6" x="623.7" y="30.15"/><rect fill="#F8F8F8" height="1.8" style="stroke: #383838; stroke-width: 1.3499999642372131;" width="3.6" x="623.7" y="33.75"/><text fill="#000000" font-family="sans-serif" font-size="12.6" lengthAdjust="spacingAndGlyphs" textLength="39.6" x="581.4" y="54.9299">Library</text><!--entity CLiU--><rect fill="#F8F8F8" filter="url(#f1ezwim9ecfdb5)" height="42.8484" style="stroke: #383838; stroke-width: 1.3499999642372131;" width="90" x="730.8" y="23.85"/><rect fill="#F8F8F8" height="9" style="stroke: #383838; stroke-width: 1.3499999642372131;" width="13.5" x="802.8" y="28.35"/><rect fill="#F8F8F8" height="1.8" style="stroke: #383838; stroke-width: 1.3499999642372131;" width="3.6" x="801" y="30.15"/><rect fill="#F8F8F8" height="1.8" style="stroke: #383838; stroke-width: 1.3499999642372131;" width="3.6" x="801" y="33.75"/><text fill="#000000" font-family="sans-serif" font-size="12.6" lengthAdjust="spacingAndGlyphs" textLength="54" x="744.3" y="54.9299">Library UI</text><!--entity CLo--><rect fill="#F8F8F8" filter="url(#f1ezwim9ecfdb5)" height="42.8484" style="stroke: #383838; stroke-width: 1.3499999642372131;" width="76.5" x="47.25" y="385.2"/><rect fill="#F8F8F8" height="9" style="stroke: #383838; stroke-width: 1.3499999642372131;" width="13.5" x="105.75" y="389.7"/><rect fill="#F8F8F8" height="1.8" style="stroke: #383838; stroke-width: 1.3499999642372131;" width="3.6" x="103.95" y="391.5"/><rect fill="#F8F8F8" height="1.8" style="stroke: #383838; stroke-width: 1.3499999642372131;" width="3.6" x="103.95" y="395.1"/><text fill="#000000" font-family="sans-serif" font-size="12.6" lengthAdjust="spacingAndGlyphs" textLength="40.5" x="60.75" y="416.2799">Logger</text><!--entity CMU--><rect fill="#F8F8F8" filter="url(#f1ezwim9ecfdb5)" height="42.8484" style="stroke: #383838; stroke-width: 1.3499999642372131;" width="152.1" x="536.85" y="590.4"/><rect fill="#F8F8F8" height="9" style="stroke: #383838; stroke-width: 1.3499999642372131;" width="13.5" x="670.95" y="594.9"/><rect fill="#F8F8F8" height="1.8" style="stroke: #383838; stroke-width: 1.3499999642372131;" width="3.6" x="669.15" y="596.7"/><rect fill="#F8F8F8" height="1.8" style="stroke: #383838; stroke-width: 1.3499999642372131;" width="3.6" x="669.15" y="600.3"/><text fill="#000000" font-family="sans-serif" font-size="12.6" lengthAdjust="spacingAndGlyphs" textLength="116.1" x="550.35" y="621.4799">Machine Manager UI</text><!--entity CP--><rect fill="#F8F8F8" filter="url(#f1ezwim9ecfdb5)" height="42.8484" style="stroke: #383838; stroke-width: 1.3499999642372131;" width="91.8" x="299.7" y="154.35"/><rect fill="#F8F8F8" height="9" style="stroke: #383838; stroke-width: 1.3499999642372131;" width="13.5" x="373.5" y="158.85"/><rect fill="#F8F8F8" height="1.8" style="stroke: #383838; stroke-width: 1.3499999642372131;" width="3.6" x="371.7" y="160.65"/><rect fill="#F8F8F8" height="1.8" style="stroke: #383838; stroke-width: 1.3499999642372131;" width="3.6" x="371.7" y="164.25"/><text fill="#000000" font-family="sans-serif" font-size="12.6" lengthAdjust="spacingAndGlyphs" textLength="55.8" x="313.2" y="185.4299">Payments</text><!--entity CMa--><rect fill="#F8F8F8" filter="url(#f1ezwim9ecfdb5)" height="42.8484" style="stroke: #383838; stroke-width: 1.3499999642372131;" width="83.7" x="377.55" y="590.4"/><rect fill="#F8F8F8" height="9" style="stroke: #383838; stroke-width: 1.3499999642372131;" width="13.5" x="443.25" y="594.9"/><rect fill="#F8F8F8" height="1.8" style="stroke: #383838; stroke-width: 1.3499999642372131;" width="3.6" x="441.45" y="596.7"/><rect fill="#F8F8F8" height="1.8" style="stroke: #383838; stroke-width: 1.3499999642372131;" width="3.6" x="441.45" y="600.3"/><text fill="#000000" font-family="sans-serif" font-size="12.6" lengthAdjust="spacingAndGlyphs" textLength="47.7" x="391.05" y="621.4799">Machine</text><!--entity CA--><rect fill="#F8F8F8" filter="url(#f1ezwim9ecfdb5)" height="42.8484" style="stroke: #383838; stroke-width: 1.3499999642372131;" width="113.4" x="945.9" y="23.85"/><rect fill="#F8F8F8" height="9" style="stroke: #383838; stroke-width: 1.3499999642372131;" width="13.5" x="1041.3" y="28.35"/><rect fill="#F8F8F8" height="1.8" style="stroke: #383838; stroke-width: 1.3499999642372131;" width="3.6" x="1039.5" y="30.15"/><rect fill="#F8F8F8" height="1.8" style="stroke: #383838; stroke-width: 1.3499999642372131;" width="3.6" x="1039.5" y="33.75"/><text fill="#000000" font-family="sans-serif" font-size="12.6" lengthAdjust="spacingAndGlyphs" textLength="77.4" x="959.4" y="54.9299">OAuth Server</text><!--entity CQ--><rect fill="#F8F8F8" filter="url(#f1ezwim9ecfdb5)" height="42.8484" style="stroke: #383838; stroke-width: 1.3499999642372131;" width="74.7" x="771.75" y="590.4"/><rect fill="#F8F8F8" height="9" style="stroke: #383838; stroke-width: 1.3499999642372131;" width="13.5" x="828.45" y="594.9"/><rect fill="#F8F8F8" height="1.8" style="stroke: #383838; stroke-width: 1.3499999642372131;" width="3.6" x="826.65" y="596.7"/><rect fill="#F8F8F8" height="1.8" style="stroke: #383838; stroke-width: 1.3499999642372131;" width="3.6" x="826.65" y="600.3"/><text fill="#000000" font-family="sans-serif" font-size="12.6" lengthAdjust="spacingAndGlyphs" textLength="38.7" x="785.25" y="621.4799">Queue</text><!--entity ICLoCLa--><ellipse cx="110.7" cy="295.2" fill="#F8F8F8" filter="url(#f1ezwim9ecfdb5)" rx="7.2" ry="7.2" style="stroke: #383838; stroke-width: 1.7999999523162842;"/><text fill="#000000" font-family="sans-serif" font-size="12.6" lengthAdjust="spacingAndGlyphs" textLength="96.3" x="62.55" y="323.5799">/logger/launcher/</text><!--entity ICLoCMa--><ellipse cx="59.4" cy="509.4" fill="#F8F8F8" filter="url(#f1ezwim9ecfdb5)" rx="7.2" ry="7.2" style="stroke: #383838; stroke-width: 1.7999999523162842;"/><text fill="#000000" font-family="sans-serif" font-size="12.6" lengthAdjust="spacingAndGlyphs" textLength="94.5" x="12.15" y="537.7799">/logger/machine/</text><!--entity ICMCMa--><ellipse cx="235.8" cy="509.4" fill="#F8F8F8" filter="url(#f1ezwim9ecfdb5)" rx="7.2" ry="7.2" style="stroke: #383838; stroke-width: 1.7999999523162842;"/><text fill="#000000" font-family="sans-serif" font-size="12.6" lengthAdjust="spacingAndGlyphs" textLength="167.4" x="152.1" y="537.7799">/machine-manager/machines/</text><!--entity ICMCLa--><ellipse cx="575.1" cy="295.2" fill="#F8F8F8" filter="url(#f1ezwim9ecfdb5)" rx="7.2" ry="7.2" style="stroke: #383838; stroke-width: 1.7999999523162842;"/><text fill="#000000" font-family="sans-serif" font-size="12.6" lengthAdjust="spacingAndGlyphs" textLength="162.9" x="493.65" y="323.5799">/machine-manager/launcher/</text><!--entity ICLiCLa--><ellipse cx="516.6" cy="45.45" fill="#F8F8F8" filter="url(#f1ezwim9ecfdb5)" rx="7.2" ry="7.2" style="stroke: #383838; stroke-width: 1.7999999523162842;"/><text fill="#000000" font-family="sans-serif" font-size="12.6" lengthAdjust="spacingAndGlyphs" textLength="95.4" x="468.9" y="73.8299">/library/launcher/</text><!--entity ICPCLa--><ellipse cx="431.1" cy="175.95" fill="#F8F8F8" filter="url(#f1ezwim9ecfdb5)" rx="7.2" ry="7.2" style="stroke: #383838; stroke-width: 1.7999999523162842;"/><text fill="#000000" font-family="sans-serif" font-size="12.6" lengthAdjust="spacingAndGlyphs" textLength="115.2" x="373.5" y="204.3299">/payments/launcher/</text><!--entity ICPCM--><ellipse cx="351.9" cy="295.2" fill="#F8F8F8" filter="url(#f1ezwim9ecfdb5)" rx="7.2" ry="7.2" style="stroke: #383838; stroke-width: 1.7999999523162842;"/><text fill="#000000" font-family="sans-serif" font-size="12.6" lengthAdjust="spacingAndGlyphs" textLength="168.3" x="267.75" y="323.5799">/payments/machine-manager/</text><!--entity ICLiAD--><ellipse cx="688.5" cy="45.45" fill="#F8F8F8" filter="url(#f1ezwim9ecfdb5)" rx="7.2" ry="7.2" style="stroke: #383838; stroke-width: 1.7999999523162842;"/><text fill="#000000" font-family="sans-serif" font-size="12.6" lengthAdjust="spacingAndGlyphs" textLength="66.6" x="655.2" y="73.8299">/library/dev/</text><!--entity ICMAS--><ellipse cx="612.9" cy="509.4" fill="#F8F8F8" filter="url(#f1ezwim9ecfdb5)" rx="7.2" ry="7.2" style="stroke: #383838; stroke-width: 1.7999999523162842;"/><text fill="#000000" font-family="sans-serif" font-size="12.6" lengthAdjust="spacingAndGlyphs" textLength="187.2" x="519.3" y="537.7799">/machine-manager/management/</text><!--entity ICLaAU--><ellipse cx="600.3" cy="175.95" fill="#F8F8F8" filter="url(#f1ezwim9ecfdb5)" rx="7.2" ry="7.2" style="stroke: #383838; stroke-width: 1.7999999523162842;"/><text fill="#000000" font-family="sans-serif" font-size="12.6" lengthAdjust="spacingAndGlyphs" textLength="111.6" x="544.5" y="204.3299">/launcher/app-user/</text><!--entity ICMaCM--><ellipse cx="419.4" cy="509.4" fill="#F8F8F8" filter="url(#f1ezwim9ecfdb5)" rx="7.2" ry="7.2" style="stroke: #383838; stroke-width: 1.7999999523162842;"/><text fill="#000000" font-family="sans-serif" font-size="12.6" lengthAdjust="spacingAndGlyphs" textLength="108.9" x="364.95" y="537.7799">/machine/manager/</text><!--entity ICQ--><ellipse cx="731.7" cy="612" fill="#F8F8F8" filter="url(#f1ezwim9ecfdb5)" rx="7.2" ry="7.2" style="stroke: #383838; stroke-width: 1.7999999523162842;"/><text fill="#000000" font-family="sans-serif" font-size="12.6" lengthAdjust="spacingAndGlyphs" textLength="43.2" x="710.1" y="640.3799">/queue/</text><!--entity ICA--><ellipse cx="1002.6" cy="175.95" fill="#F8F8F8" filter="url(#f1ezwim9ecfdb5)" rx="7.2" ry="7.2" style="stroke: #383838; stroke-width: 1.7999999523162842;"/><text fill="#000000" font-family="sans-serif" font-size="12.6" lengthAdjust="spacingAndGlyphs" textLength="32.4" x="986.4" y="204.3299">/auth/</text><!--link AU to AA--><path d="M846.5742,175.95 C851.0049,175.95 855.4365,175.95 859.8672,175.95 " fill="none" id="AU-AA" style="stroke: #383838; stroke-width: 0.8999999761581421;"/><polygon fill="none" points="846.3582,182.25,828.3582,175.95,846.3582,169.65,846.3582,182.25" style="stroke: #383838; stroke-width: 0.8999999761581421;"/><!--link AD to AA--><path d="M889.6572,102.1869 C890.9145,114.1758 892.2141,126.567 893.3778,137.6541 " fill="none" id="AD-AA" style="stroke: #383838; stroke-width: 0.8999999761581421;"/><polygon fill="none" points="883.3536,102.4803,887.7411,83.9214,895.8843,101.1663,883.3536,102.4803" style="stroke: #383838; stroke-width: 0.8999999761581421;"/><!--link AA to AS--><path d="M897.0615,214.5438 C896.7942,259.9371 896.4,338.4963 896.4,405.9 C896.4,405.9 896.4,405.9 896.4,510.3 C896.4,567.1692 900.7587,591.7986 862.2,633.6 C807.1047,693.3288 709.6734,714.1145 654.3378,721.268 " fill="none" id="AA-AS" style="stroke: #383838; stroke-width: 0.8999999761581421;"/><polygon fill="none" points="654.9291,727.5413,636.3351,723.3025,653.5143,715.0209,654.9291,727.5413" style="stroke: #383838; stroke-width: 0.8999999761581421;"/><!--link SMCM to ISMCMSMCC--><path d="M439.4745,406.8 C449.8173,406.8 460.161,406.8 470.5047,406.8 " fill="none" id="SMCM-ISMCMSMCC" style="stroke: #383838; stroke-width: 0.8999999761581421;"/><!--link ISMCMSMCC to SMCC--><path d="M496.2825,406.8 C503.7669,406.8 511.2513,406.8 518.7357,406.8 " fill="none" id="ISMCMSMCC-SMCC" style="stroke: #383838; stroke-width: 0.8999999761581421;"/><path d="M489.9233,414.4115 A8.1,8.1 0 0 0 489.9233 399.1885" fill="none" style="stroke: #383838; stroke-width: 1.3499999642372131;"/><!--link CA to ICA--><path d="M1002.6,67.3146 C1002.6,96.66 1002.6,148.5387 1002.6,167.6844 " fill="none" id="CA-ICA" style="stroke: #383838; stroke-width: 0.8999999761581421;"/><!--link CLiU to AD--><path d="M825.6366,45.45 C835.2027,45.45 844.7688,45.45 854.3349,45.45 " fill="none" id="CLiU-AD" style="stroke: #383838; stroke-width: 0.8999999761581421;"/><polygon fill="#383838" points="820.9404,45.45,829.0404,49.05,825.4404,45.45,829.0404,41.85,820.9404,45.45" style="stroke: #383838; stroke-width: 0.8999999761581421;"/><!--link ICLiAD to CLiU--><path d="M705.7143,45.45 C714.0357,45.45 722.358,45.45 730.6794,45.45 " fill="none" id="ICLiAD-CLiU" style="stroke: #383838; stroke-width: 0.8999999761581421;"/><path d="M699.4549,53.0615 A8.1,8.1 0 0 0 699.4549 37.8385" fill="none" style="stroke: #383838; stroke-width: 1.3499999642372131;"/><!--link CLi to ICLiAD--><path d="M643.5423,45.45 C655.7184,45.45 667.8945,45.45 680.0706,45.45 " fill="none" id="CLi-ICLiAD" style="stroke: #383838; stroke-width: 0.8999999761581421;"/><!--link CMU to AS--><path d="M612.9,638.4699 C612.9,652.9662 612.9,671.3694 612.9,687.4698 " fill="none" id="CMU-AS" style="stroke: #383838; stroke-width: 0.8999999761581421;"/><polygon fill="#383838" points="612.9,633.7134,609.3,641.8134,612.9,638.2134,616.5,641.8134,612.9,633.7134" style="stroke: #383838; stroke-width: 0.8999999761581421;"/><!--link ICMAS to CMU--><path d="M612.9,526.6332 C612.9,543.9114 612.9,571.2318 612.9,590.0994 " fill="none" id="ICMAS-CMU" style="stroke: #383838; stroke-width: 0.8999999761581421;"/><path d="M605.2885,520.3198 A8.1,8.1 0 0 0 620.5115 520.3198" fill="none" style="stroke: #383838; stroke-width: 1.3499999642372131;"/><!--link SMCM to ICMAS--><path d="M420.5691,428.4153 C430.794,435.8439 442.8342,443.8854 454.5,450 C509.0274,478.5786 580.6854,499.6359 604.6767,506.2806 " fill="none" id="SMCM-ICMAS" style="stroke: #383838; stroke-width: 0.8999999761581421;"/><!--link CLaU to AU--><path d="M749.025,175.95 C757.8198,175.95 766.6137,175.95 775.4085,175.95 " fill="none" id="CLaU-AU" style="stroke: #383838; stroke-width: 0.8999999761581421;"/><polygon fill="#383838" points="744.4269,175.95,752.5269,179.55,748.9269,175.95,752.5269,172.35,744.4269,175.95" style="stroke: #383838; stroke-width: 0.8999999761581421;"/><!--link ICLaAU to CLaU--><path d="M617.6043,175.95 C625.0293,175.95 632.4543,175.95 639.8802,175.95 " fill="none" id="ICLaAU-CLaU" style="stroke: #383838; stroke-width: 0.8999999761581421;"/><path d="M611.3179,183.5615 A8.1,8.1 0 0 0 611.3179 168.3385" fill="none" style="stroke: #383838; stroke-width: 1.3499999642372131;"/><!--link CLa to ICLaAU--><path d="M560.9745,175.95 C571.3173,175.95 581.661,175.95 592.0047,175.95 " fill="none" id="CLa-ICLaAU" style="stroke: #383838; stroke-width: 0.8999999761581421;"/><!--link ICLiCLa to CLi--><path d="M524.9529,45.45 C539.2521,45.45 553.5513,45.45 567.8496,45.45 " fill="none" id="ICLiCLa-CLi" style="stroke: #383838; stroke-width: 0.8999999761581421;"/><!--link ICLiCLa to CLa--><path d="M516.4848,62.856 C516.3219,86.1444 516.0249,128.6406 515.8467,154.1178 " fill="none" id="ICLiCLa-CLa" style="stroke: #383838; stroke-width: 0.8999999761581421;"/><path d="M508.918,56.3552 A8.1,8.1 0 0 0 524.1406 56.4618" fill="none" style="stroke: #383838; stroke-width: 1.3499999642372131;"/><!--link CLa to ICMCLa--><path d="M526.1832,197.577 C537.9615,220.8681 556.8084,258.1326 567.3384,278.9532 " fill="none" id="CLa-ICMCLa" style="stroke: #383838; stroke-width: 0.8999999761581421;"/><path d="M576.9594,281.1101 A8.1,8.1 0 0 0 563.3746 287.9798" fill="none" style="stroke: #383838; stroke-width: 1.3499999642372131;"/><!--link ICMCLa to SMCC--><path d="M575.1594,303.3045 C575.2926,319.6215 575.6229,359.9163 575.8281,384.876 " fill="none" id="ICMCLa-SMCC" style="stroke: #383838; stroke-width: 0.8999999761581421;"/><!--link SMCM to ICMCMa--><path d="M361.3797,428.5854 C324.045,452.3445 265.4802,489.6126 244.0278,503.2647 " fill="none" id="SMCM-ICMCMa" style="stroke: #383838; stroke-width: 0.8999999761581421;"/><!--link ICMCMa to CMa--><path d="M252.117,519.2586 C281.0115,535.122 341.8767,568.5381 381.6738,590.3874 " fill="none" id="ICMCMa-CMa" style="stroke: #383838; stroke-width: 0.8999999761581421;"/><path d="M242.6912,522.7666 A8.1,8.1 0 0 0 250.0178 509.4226" fill="none" style="stroke: #383838; stroke-width: 1.3499999642372131;"/><!--link SMCM to ICMaCM--><path d="M399.4218,428.5854 C404.1459,447.4818 411.0066,474.9246 415.3338,492.2343 " fill="none" id="SMCM-ICMaCM" style="stroke: #383838; stroke-width: 0.8999999761581421;"/><path d="M424.2654,496.5797 A8.1,8.1 0 0 0 409.497 500.2724" fill="none" style="stroke: #383838; stroke-width: 1.3499999642372131;"/><!--link ICMaCM to CMa--><path d="M419.4,517.5495 C419.4,532.5363 419.4,567.4221 419.4,590.0994 " fill="none" id="ICMaCM-CMa" style="stroke: #383838; stroke-width: 0.8999999761581421;"/><!--link CMa to AS--><path d="M459.3114,636.012 C498.519,658.7154 557.0208,692.5919 589.3317,711.3024 " fill="none" id="CMa-AS" style="stroke: #383838; stroke-width: 0.8999999761581421;"/><polygon fill="#383838" points="455.3424,633.7134,460.548,640.8878,459.2366,635.9684,464.156,634.657,455.3424,633.7134" style="stroke: #383838; stroke-width: 0.8999999761581421;"/><!--link CP to ICPCLa--><path d="M391.6899,175.95 C402.0552,175.95 412.4214,175.95 422.7867,175.95 " fill="none" id="CP-ICPCLa" style="stroke: #383838; stroke-width: 0.8999999761581421;"/><!--link ICPCLa to CLa--><path d="M448.4124,175.95 C455.832,175.95 463.2525,175.95 470.6721,175.95 " fill="none" id="ICPCLa-CLa" style="stroke: #383838; stroke-width: 0.8999999761581421;"/><path d="M442.1324,183.5615 A8.1,8.1 0 0 0 442.1324 168.3385" fill="none" style="stroke: #383838; stroke-width: 1.3499999642372131;"/><!--link CP to ICPCM--><path d="M346.7115,197.577 C348.1461,224.3142 350.568,269.4672 351.5094,287.0172 " fill="none" id="CP-ICPCM" style="stroke: #383838; stroke-width: 0.8999999761581421;"/><!--link ICPCM to SMCC--><path d="M369.3573,299.934 C408.8043,308.6019 501.4656,328.9887 502.2,329.4 C526.671,343.1106 548.1,367.5087 561.4722,385.0704 " fill="none" id="ICPCM-SMCC" style="stroke: #383838; stroke-width: 0.8999999761581421;"/><path d="M361.4344,305.9863 A8.1,8.1 0 0 0 364.7008 291.1178" fill="none" style="stroke: #383838; stroke-width: 1.3499999642372131;"/><!--link CLa to ICLoCLa--><path d="M485.892,197.6616 C476.2197,203.688 465.2136,209.8161 454.5,214.2 C391.32,240.0543 177.7473,281.5695 123.3765,291.9096 " fill="none" id="CLa-ICLoCLa" style="stroke: #383838; stroke-width: 0.8999999761581421;"/><polygon fill="#383838" points="118.8972,292.7592,127.526,294.7874,123.3184,291.921,126.1849,287.7134,118.8972,292.7592" style="stroke: #383838; stroke-width: 0.8999999761581421;"/><!--link ICLoCLa to CLo--><path d="M109.0467,303.3045 C105.3018,319.6215 96.0534,359.9163 90.3253,384.876 " fill="none" id="ICLoCLa-CLo" style="stroke: #383838; stroke-width: 0.8999999761581421;"/><!--link CLo to ICLoCMa--><path d="M80.0921,428.5854 C74.2389,451.1907 65.2191,486.0261 61.3126,501.1137 " fill="none" id="CLo-ICLoCMa" style="stroke: #383838; stroke-width: 0.8999999761581421;"/><!--link ICLoCMa to CMa--><path d="M72.1498,515.5794 C85.9429,521.1783 108.6534,530.0703 128.7,536.4 C216.0297,563.976 320.463,588.8961 377.3556,601.8102 " fill="none" id="ICLoCMa-CMa" style="stroke: #383838; stroke-width: 0.8999999761581421;"/><polygon fill="#383838" points="67.8308,513.8154,73.9682,520.2109,71.9967,515.517,76.6907,513.5455,67.8308,513.8154" style="stroke: #383838; stroke-width: 0.8999999761581421;"/><!--link ICQ to CQ--><path d="M739.863,612 C750.411,612 760.959,612 771.507,612 " fill="none" id="ICQ-CQ" style="stroke: #383838; stroke-width: 0.8999999761581421;"/><!--link SMCC to ICQ--><path d="M633.3552,419.9229 C667.3554,430.407 707.8248,449.2755 729,482.4 C751.2093,517.1427 742.8078,568.6587 736.3827,594.7227 " fill="none" id="SMCC-ICQ" style="stroke: #383838; stroke-width: 0.8999999761581421;"/><path d="M742.0719,602.9378 A8.1,8.1 0 0 0 727.3607 599.0235" fill="none" style="stroke: #383838; stroke-width: 1.3499999642372131;"/><!--link CMa to ICQ--><path d="M460.5462,590.3055 C482.5323,579.9312 510.444,568.6479 536.85,563.4 C603.1539,550.224 627.3549,535.5468 688.95,563.4 C703.6371,570.0411 715.2867,584.4978 722.691,595.9269 " fill="none" id="CMa-ICQ" style="stroke: #383838; stroke-width: 0.8999999761581421;"/><path d="M732.5888,597.5889 A8.1,8.1 0 0 0 719.5596 605.4616" fill="none" style="stroke: #383838; stroke-width: 1.3499999642372131;"/><!--
@startuml

skinparam componentStyle uml2
skinparam monochrome true

actor "App User" as AU
actor Developer as AD
actor Supplier as AS
actor Administrator as AA

AA -le-|> AU
AA -up-|> AD
AA -do-|> AS

component Launcher as CLa
component "Launcher UI" as CLaU
component Library as CLi
component "Library UI" as CLiU
component Logger as CLo
component "Machine Manager" <<subsystem>> as SM {
    component "Machines" as SMCM
    component "Computations" as SMCC
    interface "IComputations" as ISMCMSMCC

    SMCM -ri- ISMCMSMCC
    SMCC -le-( ISMCMSMCC
}
component "Machine Manager UI" as CMU
component Payments as CP
component Machine as CMa
component "OAuth Server" as CA
component Queue as CQ

interface "/logger/launcher/" as ICLoCLa
interface "/logger/machine/" as ICLoCMa
interface "/machine-manager/machines/" as ICMCMa
interface "/machine-manager/launcher/" as ICMCLa
interface "/library/launcher/" as ICLiCLa
interface "/payments/launcher/" as ICPCLa
interface "/payments/machine-manager/" as ICPCM
interface "/library/dev/" as ICLiAD
interface "/machine-manager/management/" as ICMAS
interface "/launcher/app-user/" as ICLaAU
interface "/machine/manager/" as ICMaCM
interface "/queue/" as ICQ
interface "/auth/" as ICA

CA -do- ICA

AD -le-> CLiU
CLiU -le-( ICLiAD
ICLiAD -le- CLi

AS -up-> CMU
CMU -up-( ICMAS
ICMAS -up- SMCM

AU -le-> CLaU
CLaU -le-( ICLaAU
ICLaAU -le- CLa

CLi -le- ICLiCLa
ICLiCLa )-do- CLa

CLa -do-( ICMCLa
ICMCLa -do- SMCC

SMCM -do- ICMCMa
ICMCMa )-do- CMa
SMCM -do-( ICMaCM
ICMaCM -do- CMa

CMa <-do- AS

CP -ri- ICPCLa
ICPCLa )-ri- CLa

CP -do- ICPCM
SMCC -up-( ICPCM

CLa -do-> ICLoCLa
ICLoCLa -do- CLo
CLo -do- ICLoCMa
ICLoCMa <-do- CMa

CQ -le- ICQ
SMCC -do-( ICQ
CMa -ri-( ICQ

@enduml

PlantUML version 1.2018.11(Sat Sep 22 18:43:53 CEST 2018)
(GPL source distribution)
Java Runtime: OpenJDK Runtime Environment
JVM: OpenJDK 64-Bit Server VM
Java Version: 1.8.0_152-release-1248-b8
Operating System: Windows 10
OS Version: 10.0
Default Encoding: Cp1250
Language: pl
Country: PL
--></g></svg>