<?xml version="1.0" encoding="UTF-8" standalone="no"?><svg xmlns="http://www.w3.org/2000/svg" xmlns:xlink="http://www.w3.org/1999/xlink" contentScriptType="application/ecmascript" contentStyleType="text/css" height="380px" preserveAspectRatio="none" style="width:619px;height:380px;" version="1.1" viewBox="0 0 619 380" width="619px" zoomAndPan="magnify"><defs><filter height="300%" id="f1ne8p5f5gyz4z" width="300%" x="-1" y="-1"><feGaussianBlur result="blurOut" stdDeviation="2.0"/><feColorMatrix in="blurOut" result="blurOut2" type="matrix" values="0 0 0 0 0 0 0 0 0 0 0 0 0 0 0 0 0 0 .4 0"/><feOffset dx="4.0" dy="4.0" in="blurOut2" result="blurOut3"/><feBlend in="SourceGraphic" in2="blurOut3" mode="normal"/></filter></defs><g><!--MD5=[1337a0cce0671f1bf71893bca8a76aa6]
class Machine--><rect fill="#FEFECE" filter="url(#f1ne8p5f5gyz4z)" height="188.8516" id="Machine" style="stroke: #A80036; stroke-width: 1.5;" width="351" x="128.5" y="8"/><ellipse cx="273.75" cy="24" fill="#ADD1B2" rx="11" ry="11" style="stroke: #A80036; stroke-width: 1.0;"/><path d="M276.0938,19.6719 L276.2656,19.75 C276.4844,19.4375 276.6875,19.3438 276.9844,19.3438 C277.2813,19.3438 277.5625,19.4844 277.7188,19.75 C277.8125,19.9063 277.8281,20.0313 277.8281,20.4688 L277.8281,21.8906 C277.8281,22.3125 277.7969,22.5 277.6875,22.6563 C277.5156,22.875 277.25,23.0156 276.9844,23.0156 C276.7656,23.0156 276.5313,22.9063 276.3906,22.7656 C276.25,22.6406 276.2188,22.5156 276.1563,22.1094 C276.0625,21.7031 275.8906,21.4844 275.4063,21.2031 C274.9375,20.9531 274.3281,20.7969 273.75,20.7969 C272.0156,20.7969 270.7656,22.1094 270.7656,23.8906 L270.7656,24.9844 C270.7656,26.6875 272.0625,27.7813 274.1094,27.7813 C274.875,27.7813 275.5625,27.6563 275.9844,27.3906 C276.1719,27.2969 276.1719,27.2969 276.625,26.8125 C276.8125,26.625 277.0156,26.5469 277.2344,26.5469 C277.7031,26.5469 278.0938,26.9375 278.0938,27.3906 C278.0938,27.7813 277.7656,28.2344 277.1875,28.6406 C276.4375,29.1875 275.2813,29.4844 274.0625,29.4844 C271.1719,29.4844 269.0625,27.5938 269.0625,25.0156 L269.0625,23.8906 C269.0625,21.1719 271.0625,19.0938 273.6875,19.0938 C274.5625,19.0938 275.1563,19.2344 276.0938,19.6719 Z "/><text fill="#000000" font-family="sans-serif" font-size="12" lengthAdjust="spacingAndGlyphs" textLength="52" x="294.25" y="28.1543">Machine</text><line style="stroke: #A80036; stroke-width: 1.5;" x1="129.5" x2="478.5" y1="40" y2="40"/><text fill="#000000" font-family="sans-serif" font-size="11" lengthAdjust="spacingAndGlyphs" textLength="105" x="134.5" y="54.2104">+string machineID</text><text fill="#000000" font-family="sans-serif" font-size="11" lengthAdjust="spacingAndGlyphs" textLength="78" x="134.5" y="67.0151">+string name</text><text fill="#000000" font-family="sans-serif" font-size="11" lengthAdjust="spacingAndGlyphs" textLength="70" x="134.5" y="79.8198">+Integer pid</text><text fill="#000000" font-family="sans-serif" font-size="11" lengthAdjust="spacingAndGlyphs" textLength="128" x="134.5" y="92.6245">+CTInfo CTDescription</text><text fill="#000000" font-family="sans-serif" font-size="11" lengthAdjust="spacingAndGlyphs" textLength="132" x="134.5" y="105.4292">+MachineStatus status</text><text fill="#000000" font-family="sans-serif" font-size="11" lengthAdjust="spacingAndGlyphs" textLength="163" x="134.5" y="118.2339">+MachineResource resource</text><text fill="#000000" font-family="sans-serif" font-size="11" lengthAdjust="spacingAndGlyphs" textLength="96" x="134.5" y="131.0386">+CTResult result</text><text fill="#000000" font-family="sans-serif" font-size="11" lengthAdjust="spacingAndGlyphs" textLength="0" x="138.5" y="143.8433"/><text fill="#000000" font-family="sans-serif" font-size="11" lengthAdjust="spacingAndGlyphs" textLength="261" x="134.5" y="156.6479">+getComputationResult @endpoint : CTResult</text><line style="stroke: #A80036; stroke-width: 1.5;" x1="129.5" x2="478.5" y1="163.2422" y2="163.2422"/><text fill="#000000" font-family="sans-serif" font-size="11" lengthAdjust="spacingAndGlyphs" textLength="331" x="134.5" y="177.4526">+cancelMachineComputation() @endpoint : MachineStatus</text><text fill="#000000" font-family="sans-serif" font-size="11" lengthAdjust="spacingAndGlyphs" textLength="339" x="134.5" y="190.2573">+activateMachineComputation() @endpoint : MachineStatus</text><!--MD5=[adcd2ef22075d7c711cfa10c2100a0cf]
class CTInfo--><rect fill="#FEFECE" filter="url(#f1ne8p5f5gyz4z)" height="99.2188" id="CTInfo" style="stroke: #A80036; stroke-width: 1.5;" width="116" x="6" y="263.5"/><ellipse cx="41.7" cy="279.5" fill="#ADD1B2" rx="11" ry="11" style="stroke: #A80036; stroke-width: 1.0;"/><path d="M44.0438,275.1719 L44.2156,275.25 C44.4344,274.9375 44.6375,274.8438 44.9344,274.8438 C45.2313,274.8438 45.5125,274.9844 45.6688,275.25 C45.7625,275.4063 45.7781,275.5313 45.7781,275.9688 L45.7781,277.3906 C45.7781,277.8125 45.7469,278 45.6375,278.1563 C45.4656,278.375 45.2,278.5156 44.9344,278.5156 C44.7156,278.5156 44.4813,278.4063 44.3406,278.2656 C44.2,278.1406 44.1688,278.0156 44.1063,277.6094 C44.0125,277.2031 43.8406,276.9844 43.3563,276.7031 C42.8875,276.4531 42.2781,276.2969 41.7,276.2969 C39.9656,276.2969 38.7156,277.6094 38.7156,279.3906 L38.7156,280.4844 C38.7156,282.1875 40.0125,283.2813 42.0594,283.2813 C42.825,283.2813 43.5125,283.1563 43.9344,282.8906 C44.1219,282.7969 44.1219,282.7969 44.575,282.3125 C44.7625,282.125 44.9656,282.0469 45.1844,282.0469 C45.6531,282.0469 46.0438,282.4375 46.0438,282.8906 C46.0438,283.2813 45.7156,283.7344 45.1375,284.1406 C44.3875,284.6875 43.2313,284.9844 42.0125,284.9844 C39.1219,284.9844 37.0125,283.0938 37.0125,280.5156 L37.0125,279.3906 C37.0125,276.6719 39.0125,274.5938 41.6375,274.5938 C42.5125,274.5938 43.1063,274.7344 44.0438,275.1719 Z "/><text fill="#000000" font-family="sans-serif" font-size="12" lengthAdjust="spacingAndGlyphs" textLength="38" x="60.3" y="283.6543">CTInfo</text><line style="stroke: #A80036; stroke-width: 1.5;" x1="7" x2="121" y1="295.5" y2="295.5"/><text fill="#000000" font-family="sans-serif" font-size="11" lengthAdjust="spacingAndGlyphs" textLength="51" x="12" y="309.7104">-string id</text><text fill="#000000" font-family="sans-serif" font-size="11" lengthAdjust="spacingAndGlyphs" textLength="73" x="12" y="322.5151">-string name</text><text fill="#000000" font-family="sans-serif" font-size="11" lengthAdjust="spacingAndGlyphs" textLength="104" x="12" y="335.3198">-string description</text><text fill="#000000" font-family="sans-serif" font-size="11" lengthAdjust="spacingAndGlyphs" textLength="64" x="12" y="348.1245">-string icon</text><line style="stroke: #A80036; stroke-width: 1.5;" x1="7" x2="121" y1="354.7188" y2="354.7188"/><!--MD5=[d4b2b1b1d6c0f3c3865b66b2cdfc2366]
class MachineStatus--><rect fill="#FEFECE" filter="url(#f1ne8p5f5gyz4z)" height="86.4141" id="MachineStatus" style="stroke: #A80036; stroke-width: 1.5;" width="125" x="157.5" y="270"/><ellipse cx="172.5" cy="286" fill="#ADD1B2" rx="11" ry="11" style="stroke: #A80036; stroke-width: 1.0;"/><path d="M174.8438,281.6719 L175.0156,281.75 C175.2344,281.4375 175.4375,281.3438 175.7344,281.3438 C176.0313,281.3438 176.3125,281.4844 176.4688,281.75 C176.5625,281.9063 176.5781,282.0313 176.5781,282.4688 L176.5781,283.8906 C176.5781,284.3125 176.5469,284.5 176.4375,284.6563 C176.2656,284.875 176,285.0156 175.7344,285.0156 C175.5156,285.0156 175.2813,284.9063 175.1406,284.7656 C175,284.6406 174.9688,284.5156 174.9063,284.1094 C174.8125,283.7031 174.6406,283.4844 174.1563,283.2031 C173.6875,282.9531 173.0781,282.7969 172.5,282.7969 C170.7656,282.7969 169.5156,284.1094 169.5156,285.8906 L169.5156,286.9844 C169.5156,288.6875 170.8125,289.7813 172.8594,289.7813 C173.625,289.7813 174.3125,289.6563 174.7344,289.3906 C174.9219,289.2969 174.9219,289.2969 175.375,288.8125 C175.5625,288.625 175.7656,288.5469 175.9844,288.5469 C176.4531,288.5469 176.8438,288.9375 176.8438,289.3906 C176.8438,289.7813 176.5156,290.2344 175.9375,290.6406 C175.1875,291.1875 174.0313,291.4844 172.8125,291.4844 C169.9219,291.4844 167.8125,289.5938 167.8125,287.0156 L167.8125,285.8906 C167.8125,283.1719 169.8125,281.0938 172.4375,281.0938 C173.3125,281.0938 173.9063,281.2344 174.8438,281.6719 Z "/><text fill="#000000" font-family="sans-serif" font-size="12" lengthAdjust="spacingAndGlyphs" textLength="93" x="186.5" y="290.1543">MachineStatus</text><line style="stroke: #A80036; stroke-width: 1.5;" x1="158.5" x2="281.5" y1="302" y2="302"/><text fill="#000000" font-family="sans-serif" font-size="11" lengthAdjust="spacingAndGlyphs" textLength="93" x="163.5" y="316.2104">+time startTime</text><text fill="#000000" font-family="sans-serif" font-size="11" lengthAdjust="spacingAndGlyphs" textLength="101" x="163.5" y="329.0151">+long runnigTime</text><text fill="#000000" font-family="sans-serif" font-size="11" lengthAdjust="spacingAndGlyphs" textLength="113" x="163.5" y="341.8198">+boolean isRunning</text><line style="stroke: #A80036; stroke-width: 1.5;" x1="158.5" x2="281.5" y1="348.4141" y2="348.4141"/><!--MD5=[4061a706d21ee71bdcb5e47b6445d2ea]
class MachineResource--><rect fill="#FEFECE" filter="url(#f1ne8p5f5gyz4z)" height="112.0234" id="MachineResource" style="stroke: #A80036; stroke-width: 1.5;" width="143" x="317.5" y="257"/><ellipse cx="332.5" cy="273" fill="#ADD1B2" rx="11" ry="11" style="stroke: #A80036; stroke-width: 1.0;"/><path d="M334.8438,268.6719 L335.0156,268.75 C335.2344,268.4375 335.4375,268.3438 335.7344,268.3438 C336.0313,268.3438 336.3125,268.4844 336.4688,268.75 C336.5625,268.9063 336.5781,269.0313 336.5781,269.4688 L336.5781,270.8906 C336.5781,271.3125 336.5469,271.5 336.4375,271.6563 C336.2656,271.875 336,272.0156 335.7344,272.0156 C335.5156,272.0156 335.2813,271.9063 335.1406,271.7656 C335,271.6406 334.9688,271.5156 334.9063,271.1094 C334.8125,270.7031 334.6406,270.4844 334.1563,270.2031 C333.6875,269.9531 333.0781,269.7969 332.5,269.7969 C330.7656,269.7969 329.5156,271.1094 329.5156,272.8906 L329.5156,273.9844 C329.5156,275.6875 330.8125,276.7813 332.8594,276.7813 C333.625,276.7813 334.3125,276.6563 334.7344,276.3906 C334.9219,276.2969 334.9219,276.2969 335.375,275.8125 C335.5625,275.625 335.7656,275.5469 335.9844,275.5469 C336.4531,275.5469 336.8438,275.9375 336.8438,276.3906 C336.8438,276.7813 336.5156,277.2344 335.9375,277.6406 C335.1875,278.1875 334.0313,278.4844 332.8125,278.4844 C329.9219,278.4844 327.8125,276.5938 327.8125,274.0156 L327.8125,272.8906 C327.8125,270.1719 329.8125,268.0938 332.4375,268.0938 C333.3125,268.0938 333.9063,268.2344 334.8438,268.6719 Z "/><text fill="#000000" font-family="sans-serif" font-size="12" lengthAdjust="spacingAndGlyphs" textLength="111" x="346.5" y="277.1543">MachineResource</text><line style="stroke: #A80036; stroke-width: 1.5;" x1="318.5" x2="459.5" y1="289" y2="289"/><text fill="#000000" font-family="sans-serif" font-size="11" lengthAdjust="spacingAndGlyphs" textLength="76" x="323.5" y="303.2104">+string CPUs</text><text fill="#000000" font-family="sans-serif" font-size="11" lengthAdjust="spacingAndGlyphs" textLength="77" x="323.5" y="316.0151">+string GPUs</text><text fill="#000000" font-family="sans-serif" font-size="11" lengthAdjust="spacingAndGlyphs" textLength="110" x="323.5" y="328.8198">+string clockSpeed</text><text fill="#000000" font-family="sans-serif" font-size="11" lengthAdjust="spacingAndGlyphs" textLength="131" x="323.5" y="341.6245">+localStorage memory</text><text fill="#000000" font-family="sans-serif" font-size="11" lengthAdjust="spacingAndGlyphs" textLength="97" x="323.5" y="354.4292">+integer number</text><line style="stroke: #A80036; stroke-width: 1.5;" x1="318.5" x2="459.5" y1="361.0234" y2="361.0234"/><!--MD5=[981f30bd17b2a61d443a35b10ac5925b]
class CTResult--><rect fill="#FEFECE" filter="url(#f1ne8p5f5gyz4z)" height="99.2188" id="CTResult" style="stroke: #A80036; stroke-width: 1.5;" width="113" x="495.5" y="263.5"/><ellipse cx="522.65" cy="279.5" fill="#ADD1B2" rx="11" ry="11" style="stroke: #A80036; stroke-width: 1.0;"/><path d="M524.9938,275.1719 L525.1656,275.25 C525.3844,274.9375 525.5875,274.8438 525.8844,274.8438 C526.1813,274.8438 526.4625,274.9844 526.6188,275.25 C526.7125,275.4063 526.7281,275.5313 526.7281,275.9688 L526.7281,277.3906 C526.7281,277.8125 526.6969,278 526.5875,278.1563 C526.4156,278.375 526.15,278.5156 525.8844,278.5156 C525.6656,278.5156 525.4313,278.4063 525.2906,278.2656 C525.15,278.1406 525.1188,278.0156 525.0563,277.6094 C524.9625,277.2031 524.7906,276.9844 524.3063,276.7031 C523.8375,276.4531 523.2281,276.2969 522.65,276.2969 C520.9156,276.2969 519.6656,277.6094 519.6656,279.3906 L519.6656,280.4844 C519.6656,282.1875 520.9625,283.2813 523.0094,283.2813 C523.775,283.2813 524.4625,283.1563 524.8844,282.8906 C525.0719,282.7969 525.0719,282.7969 525.525,282.3125 C525.7125,282.125 525.9156,282.0469 526.1344,282.0469 C526.6031,282.0469 526.9938,282.4375 526.9938,282.8906 C526.9938,283.2813 526.6656,283.7344 526.0875,284.1406 C525.3375,284.6875 524.1813,284.9844 522.9625,284.9844 C520.0719,284.9844 517.9625,283.0938 517.9625,280.5156 L517.9625,279.3906 C517.9625,276.6719 519.9625,274.5938 522.5875,274.5938 C523.4625,274.5938 524.0563,274.7344 524.9938,275.1719 Z "/><text fill="#000000" font-family="sans-serif" font-size="12" lengthAdjust="spacingAndGlyphs" textLength="54" x="539.35" y="283.6543">CTResult</text><line style="stroke: #A80036; stroke-width: 1.5;" x1="496.5" x2="607.5" y1="295.5" y2="295.5"/><text fill="#000000" font-family="sans-serif" font-size="11" lengthAdjust="spacingAndGlyphs" textLength="93" x="501.5" y="309.7104">+time startTime</text><text fill="#000000" font-family="sans-serif" font-size="11" lengthAdjust="spacingAndGlyphs" textLength="87" x="501.5" y="322.5151">+time endTime</text><text fill="#000000" font-family="sans-serif" font-size="11" lengthAdjust="spacingAndGlyphs" textLength="101" x="501.5" y="335.3198">+long runnigTime</text><text fill="#000000" font-family="sans-serif" font-size="11" lengthAdjust="spacingAndGlyphs" textLength="49" x="501.5" y="348.1245">+File file</text><line style="stroke: #A80036; stroke-width: 1.5;" x1="496.5" x2="607.5" y1="354.7188" y2="354.7188"/><!--MD5=[1f44a34a4434a5f12513c93107193d5b]
reverse link Machine to CTInfo--><path d="M186.398,205.667 C163.288,225.744 140.058,245.924 120.141,263.228 " fill="none" id="Machine&lt;-CTInfo" style="stroke: #A80036; stroke-width: 1.0;"/><polygon fill="#A80036" points="196.286,197.077,189.1332,197.9921,187.2269,204.9467,194.3797,204.0316,196.286,197.077" style="stroke: #A80036; stroke-width: 1.0;"/><!--MD5=[92d4a8aa3e4976fadc295aa235233501]
reverse link Machine to MachineStatus--><path d="M261.359,209.341 C252.712,230.805 244.1,252.18 236.992,269.8231 " fill="none" id="Machine&lt;-MachineStatus" style="stroke: #A80036; stroke-width: 1.0;"/><polygon fill="#A80036" points="266.3,197.077,260.3478,201.1477,261.816,208.2078,267.7683,204.137,266.3,197.077" style="stroke: #A80036; stroke-width: 1.0;"/><!--MD5=[9aebd1bd14d5aca362220acc074f2f5b]
reverse link Machine to MachineResource--><path d="M347.249,209.587 C353.926,225.966 360.579,242.284 366.547,256.924 " fill="none" id="Machine&lt;-MachineResource" style="stroke: #A80036; stroke-width: 1.0;"/><polygon fill="#A80036" points="342.149,197.077,340.7104,204.1431,346.6797,208.1888,348.1183,201.1227,342.149,197.077" style="stroke: #A80036; stroke-width: 1.0;"/><!--MD5=[2c0d0cb53a23282ccb57a92b429aa1ea]
reverse link Machine to CTResult--><path d="M425.39,205.556 C449.832,226.105 474.409,246.767 495.321,264.348 " fill="none" id="Machine&lt;-CTResult" style="stroke: #A80036; stroke-width: 1.0;"/><polygon fill="#A80036" points="415.305,197.077,417.3233,203.9999,424.49,204.7995,422.4716,197.8766,415.305,197.077" style="stroke: #A80036; stroke-width: 1.0;"/><!--MD5=[d65a6cd6435b8e4d00835f002c6edda4]
@startuml
Machine *- - CTInfo
Machine *- - MachineStatus
Machine *- - MachineResource
Machine *- - CTResult

skinparam classAttributeIconSize 0


class CTInfo {
- string id
- string name
- string description
- string icon
}


class Machine {
+ string machineID
+ string name
+ Integer pid
+ CTInfo CTDescription
+ MachineStatus status
+ MachineResource resource
+ CTResult result

+ cancelMachineComputation() @endpoint : MachineStatus
+ activateMachineComputation() @endpoint : MachineStatus
+ getComputationResult @endpoint : CTResult
}

class MachineStatus {
+ time startTime
+ long runnigTime
+ boolean isRunning
}

class CTResult {
+ time startTime
+ time endTime
+ long runnigTime
+ File file 
}

class MachineResource {
+ string CPUs
+ string GPUs
+ string clockSpeed
+ localStorage memory
+ integer number
}
@enduml

PlantUML version 1.2019.11(Sun Sep 22 10:02:15 UTC 2019)
(GPL source distribution)
Java Runtime: Java(TM) SE Runtime Environment
JVM: Java HotSpot(TM) 64-Bit Server VM
Java Version: 1.7.0_25-b15
Operating System: Linux
Default Encoding: UTF-8
Language: en
Country: US
--></g></svg>