<?xml version="1.0" encoding="UTF-8" standalone="no"?><svg xmlns="http://www.w3.org/2000/svg" xmlns:xlink="http://www.w3.org/1999/xlink" contentScriptType="application/ecmascript" contentStyleType="text/css" height="438px" preserveAspectRatio="none" style="width:864px;height:438px;" version="1.1" viewBox="0 0 864 438" width="864px" zoomAndPan="magnify"><defs><filter height="300%" id="fu76ww1r8by2a" width="300%" x="-1" y="-1"><feGaussianBlur result="blurOut" stdDeviation="2.0"/><feColorMatrix in="blurOut" result="blurOut2" type="matrix" values="0 0 0 0 0 0 0 0 0 0 0 0 0 0 0 0 0 0 .4 0"/><feOffset dx="4.0" dy="4.0" in="blurOut2" result="blurOut3"/><feBlend in="SourceGraphic" in2="blurOut3" mode="normal"/></filter></defs><g><!--MD5=[a688c3c9f84cebb779d5e14cd19166d1]
class ComputationTask--><rect fill="#FEFECE" filter="url(#fu76ww1r8by2a)" height="163.2422" id="ComputationTask" style="stroke: #A80036; stroke-width: 1.5;" width="152" x="119" y="8"/><ellipse cx="138.95" cy="24" fill="#ADD1B2" rx="11" ry="11" style="stroke: #A80036; stroke-width: 1.0;"/><path d="M141.2938,19.6719 L141.4656,19.75 C141.6844,19.4375 141.8875,19.3438 142.1844,19.3438 C142.4813,19.3438 142.7625,19.4844 142.9188,19.75 C143.0125,19.9063 143.0281,20.0313 143.0281,20.4688 L143.0281,21.8906 C143.0281,22.3125 142.9969,22.5 142.8875,22.6563 C142.7156,22.875 142.45,23.0156 142.1844,23.0156 C141.9656,23.0156 141.7313,22.9063 141.5906,22.7656 C141.45,22.6406 141.4188,22.5156 141.3563,22.1094 C141.2625,21.7031 141.0906,21.4844 140.6063,21.2031 C140.1375,20.9531 139.5281,20.7969 138.95,20.7969 C137.2156,20.7969 135.9656,22.1094 135.9656,23.8906 L135.9656,24.9844 C135.9656,26.6875 137.2625,27.7813 139.3094,27.7813 C140.075,27.7813 140.7625,27.6563 141.1844,27.3906 C141.3719,27.2969 141.3719,27.2969 141.825,26.8125 C142.0125,26.625 142.2156,26.5469 142.4344,26.5469 C142.9031,26.5469 143.2938,26.9375 143.2938,27.3906 C143.2938,27.7813 142.9656,28.2344 142.3875,28.6406 C141.6375,29.1875 140.4813,29.4844 139.2625,29.4844 C136.3719,29.4844 134.2625,27.5938 134.2625,25.0156 L134.2625,23.8906 C134.2625,21.1719 136.2625,19.0938 138.8875,19.0938 C139.7625,19.0938 140.3563,19.2344 141.2938,19.6719 Z "/><text fill="#000000" font-family="sans-serif" font-size="12" lengthAdjust="spacingAndGlyphs" textLength="109" x="154.05" y="28.1543">ComputationTask</text><line style="stroke: #A80036; stroke-width: 1.5;" x1="120" x2="270" y1="40" y2="40"/><text fill="#000000" font-family="sans-serif" font-size="11" lengthAdjust="spacingAndGlyphs" textLength="43" x="125" y="54.2104">@Entity</text><text fill="#000000" font-family="sans-serif" font-size="11" lengthAdjust="spacingAndGlyphs" textLength="51" x="125" y="67.0151">-string id</text><text fill="#000000" font-family="sans-serif" font-size="11" lengthAdjust="spacingAndGlyphs" textLength="73" x="125" y="79.8198">-string name</text><text fill="#000000" font-family="sans-serif" font-size="11" lengthAdjust="spacingAndGlyphs" textLength="104" x="125" y="92.6245">-string description</text><text fill="#000000" font-family="sans-serif" font-size="11" lengthAdjust="spacingAndGlyphs" textLength="64" x="125" y="105.4292">-string icon</text><line style="stroke: #A80036; stroke-width: 1.5;" x1="120" x2="270" y1="112.0234" y2="112.0234"/><text fill="#000000" font-family="sans-serif" font-size="11" lengthAdjust="spacingAndGlyphs" textLength="87" x="125" y="126.2339">+getID(): string</text><text fill="#000000" font-family="sans-serif" font-size="11" lengthAdjust="spacingAndGlyphs" textLength="109" x="125" y="139.0386">+getName(): string</text><text fill="#000000" font-family="sans-serif" font-size="11" lengthAdjust="spacingAndGlyphs" textLength="140" x="125" y="151.8433">+getDescription(): string</text><text fill="#000000" font-family="sans-serif" font-size="11" lengthAdjust="spacingAndGlyphs" textLength="99" x="125" y="164.6479">+getIcon(): string</text><!--MD5=[db3170b8313bf70303600a68db1112cb]
class Launcher--><rect fill="#FEFECE" filter="url(#fu76ww1r8by2a)" height="99.2188" id="Launcher" style="stroke: #A80036; stroke-width: 1.5;" width="378" x="6" y="231"/><ellipse cx="161.75" cy="247" fill="#ADD1B2" rx="11" ry="11" style="stroke: #A80036; stroke-width: 1.0;"/><path d="M164.0938,242.6719 L164.2656,242.75 C164.4844,242.4375 164.6875,242.3438 164.9844,242.3438 C165.2813,242.3438 165.5625,242.4844 165.7188,242.75 C165.8125,242.9063 165.8281,243.0313 165.8281,243.4688 L165.8281,244.8906 C165.8281,245.3125 165.7969,245.5 165.6875,245.6563 C165.5156,245.875 165.25,246.0156 164.9844,246.0156 C164.7656,246.0156 164.5313,245.9063 164.3906,245.7656 C164.25,245.6406 164.2188,245.5156 164.1563,245.1094 C164.0625,244.7031 163.8906,244.4844 163.4063,244.2031 C162.9375,243.9531 162.3281,243.7969 161.75,243.7969 C160.0156,243.7969 158.7656,245.1094 158.7656,246.8906 L158.7656,247.9844 C158.7656,249.6875 160.0625,250.7813 162.1094,250.7813 C162.875,250.7813 163.5625,250.6563 163.9844,250.3906 C164.1719,250.2969 164.1719,250.2969 164.625,249.8125 C164.8125,249.625 165.0156,249.5469 165.2344,249.5469 C165.7031,249.5469 166.0938,249.9375 166.0938,250.3906 C166.0938,250.7813 165.7656,251.2344 165.1875,251.6406 C164.4375,252.1875 163.2813,252.4844 162.0625,252.4844 C159.1719,252.4844 157.0625,250.5938 157.0625,248.0156 L157.0625,246.8906 C157.0625,244.1719 159.0625,242.0938 161.6875,242.0938 C162.5625,242.0938 163.1563,242.2344 164.0938,242.6719 Z "/><text fill="#000000" font-family="sans-serif" font-size="12" lengthAdjust="spacingAndGlyphs" textLength="58" x="182.25" y="251.1543">Launcher</text><line style="stroke: #A80036; stroke-width: 1.5;" x1="7" x2="383" y1="263" y2="263"/><text fill="#000000" font-family="sans-serif" font-size="11" lengthAdjust="spacingAndGlyphs" textLength="84" x="12" y="277.2104">+string UserID</text><text fill="#000000" font-family="sans-serif" font-size="11" lengthAdjust="spacingAndGlyphs" textLength="105" x="12" y="290.0151">+string Username</text><text fill="#000000" font-family="sans-serif" font-size="11" lengthAdjust="spacingAndGlyphs" textLength="247" x="12" y="302.8198">+List&lt;ComputationTask&gt; computationTask</text><line style="stroke: #A80036; stroke-width: 1.5;" x1="7" x2="383" y1="309.4141" y2="309.4141"/><text fill="#000000" font-family="sans-serif" font-size="11" lengthAdjust="spacingAndGlyphs" textLength="366" x="12" y="323.6245">+getComputationTask(UserId : String) : List&lt;ComputationTask&gt;</text><!--MD5=[34f130cddf1e01ea575250cee5c874b2]
class MachineManager--><rect fill="#FEFECE" filter="url(#fu76ww1r8by2a)" height="66.7422" id="MachineManager" style="stroke: #A80036; stroke-width: 1.5;" width="434" x="419" y="247"/><ellipse cx="578.25" cy="265.9688" fill="#ADD1B2" rx="11" ry="11" style="stroke: #A80036; stroke-width: 1.0;"/><path d="M580.5938,261.6406 L580.7656,261.7188 C580.9844,261.4063 581.1875,261.3125 581.4844,261.3125 C581.7813,261.3125 582.0625,261.4531 582.2188,261.7188 C582.3125,261.875 582.3281,262 582.3281,262.4375 L582.3281,263.8594 C582.3281,264.2813 582.2969,264.4688 582.1875,264.625 C582.0156,264.8438 581.75,264.9844 581.4844,264.9844 C581.2656,264.9844 581.0313,264.875 580.8906,264.7344 C580.75,264.6094 580.7188,264.4844 580.6563,264.0781 C580.5625,263.6719 580.3906,263.4531 579.9063,263.1719 C579.4375,262.9219 578.8281,262.7656 578.25,262.7656 C576.5156,262.7656 575.2656,264.0781 575.2656,265.8594 L575.2656,266.9531 C575.2656,268.6563 576.5625,269.75 578.6094,269.75 C579.375,269.75 580.0625,269.625 580.4844,269.3594 C580.6719,269.2656 580.6719,269.2656 581.125,268.7813 C581.3125,268.5938 581.5156,268.5156 581.7344,268.5156 C582.2031,268.5156 582.5938,268.9063 582.5938,269.3594 C582.5938,269.75 582.2656,270.2031 581.6875,270.6094 C580.9375,271.1563 579.7813,271.4531 578.5625,271.4531 C575.6719,271.4531 573.5625,269.5625 573.5625,266.9844 L573.5625,265.8594 C573.5625,263.1406 575.5625,261.0625 578.1875,261.0625 C579.0625,261.0625 579.6563,261.2031 580.5938,261.6406 Z "/><text fill="#000000" font-family="sans-serif" font-size="12" font-style="italic" lengthAdjust="spacingAndGlyphs" textLength="86" x="609.25" y="263.1387">«@Endpoint »</text><text fill="#000000" font-family="sans-serif" font-size="12" lengthAdjust="spacingAndGlyphs" textLength="107" x="598.75" y="277.1074">MachineManager</text><line style="stroke: #A80036; stroke-width: 1.5;" x1="420" x2="852" y1="284.9375" y2="284.9375"/><line style="stroke: #A80036; stroke-width: 1.5;" x1="420" x2="852" y1="292.9375" y2="292.9375"/><text fill="#000000" font-family="sans-serif" font-size="11" lengthAdjust="spacingAndGlyphs" textLength="422" x="425" y="307.1479">+/launcher/app-user/application(UserId : String) : List&lt;ComputationTask&gt;</text><rect fill="#FEFECE" filter="url(#fu76ww1r8by2a)" height="37.6094" style="stroke: #A80036; stroke-width: 1.5;" width="214" x="88" y="390"/><text fill="#000000" font-family="sans-serif" font-size="12" lengthAdjust="spacingAndGlyphs" textLength="200" x="95" y="403.1387">IShowComputationTaskHandling</text><line style="stroke: #A80036; stroke-width: 1.5;" x1="89" x2="301" y1="407.9688" y2="407.9688"/><text fill="#000000" font-family="sans-serif" font-size="10" lengthAdjust="spacingAndGlyphs" textLength="126" x="94" y="421.251">+showComputationTask()</text><!--MD5=[a487faf72197a489efa0180c1401e4b6]
link ComputationTask to Launcher--><path d="M195,171.201 C195,186.718 195,202.742 195,217.551 " fill="none" id="ComputationTask-&gt;Launcher" style="stroke: #A80036; stroke-width: 1.0;"/><polygon fill="#FFFFFF" points="195,230.761,199,224.761,195,218.761,191,224.761,195,230.761" style="stroke: #A80036; stroke-width: 1.0;"/><text fill="#000000" font-family="sans-serif" font-size="13" lengthAdjust="spacingAndGlyphs" textLength="27" x="166.7977" y="191.2075">0...*</text><text fill="#000000" font-family="sans-serif" font-size="13" lengthAdjust="spacingAndGlyphs" textLength="8" x="186.4375" y="219.7726">1</text><!--MD5=[4575f5428a2a6327e898466718fa89d5]
link Launcher to MachineManager--><path d="M384.062,280.5 C393.978,280.5 403.895,280.5 413.812,280.5 " fill="none" id="Launcher-&gt;MachineManager" style="stroke: #A80036; stroke-width: 1.0; stroke-dasharray: 7.0,7.0;"/><polygon fill="#A80036" points="418.998,280.5,409.998,276.5,413.998,280.5,409.998,284.5,418.998,280.5" style="stroke: #A80036; stroke-width: 1.0;"/><!--MD5=[954c4c448917b13bbd6db8f75b1baff4]
link Launcher to IShowComputationTaskHandling--><path d="M195,330.0464 C195,348.6627 195,369.0781 195,384.3452 " fill="none" id="Launcher-&gt;IShowComputationTaskHandling" style="stroke: #A80036; stroke-width: 1.0; stroke-dasharray: 7.0,7.0;"/><polygon fill="#A80036" points="195,389.724,199,380.724,195,384.724,191,380.724,195,389.724" style="stroke: #A80036; stroke-width: 1.0;"/><!--MD5=[eb860e74908d225e871d02b0811d8e4d]
@startuml
ComputationTask "0...*" - -o "1" Launcher
Launcher .> MachineManager
Launcher ..> IShowComputationTaskHandling

skinparam classAttributeIconSize 0


class ComputationTask {
  @Entity
- string id
- string name
- string description
- string icon
+ getID(): string
+ getName(): string
+ getDescription(): string
+ getIcon(): string
}

class Launcher {
+ string UserID
+ string Username
+ List<ComputationTask> computationTask
+ getComputationTask(UserId : String) : List<ComputationTask>
}


class MachineManager << @Endpoint  >> {
+ /launcher/app-user/application(UserId : String) : List<ComputationTask>

}

object IShowComputationTaskHandling {
 + showComputationTask() 
}
@enduml

PlantUML version 1.2019.12(Sun Nov 03 10:24:54 UTC 2019)
(GPL source distribution)
Java Runtime: Java(TM) SE Runtime Environment
JVM: Java HotSpot(TM) 64-Bit Server VM
Java Version: 1.7.0_25-b15
Operating System: Linux
Default Encoding: UTF-8
Language: en
Country: US
--></g></svg>