<?xml version="1.0" encoding="UTF-8" standalone="no"?><svg xmlns="http://www.w3.org/2000/svg" xmlns:xlink="http://www.w3.org/1999/xlink" contentScriptType="application/ecmascript" contentStyleType="text/css" height="662px" preserveAspectRatio="none" style="width:668px;height:662px;" version="1.1" viewBox="0 0 668 662" width="668px" zoomAndPan="magnify"><defs><filter height="300%" id="fx20lrgz416ac" width="300%" x="-1" y="-1"><feGaussianBlur result="blurOut" stdDeviation="2.0"/><feColorMatrix in="blurOut" result="blurOut2" type="matrix" values="0 0 0 0 0 0 0 0 0 0 0 0 0 0 0 0 0 0 .4 0"/><feOffset dx="4.0" dy="4.0" in="blurOut2" result="blurOut3"/><feBlend in="SourceGraphic" in2="blurOut3" mode="normal"/></filter></defs><g><!--MD5=[56f671791a7bc69038cb91d87520b796]
class Parameters--><rect fill="#FEFECE" filter="url(#fx20lrgz416ac)" height="86.4141" id="Parameters" style="stroke: #A80036; stroke-width: 1.5;" width="105" x="81" y="8"/><ellipse cx="96" cy="24" fill="#ADD1B2" rx="11" ry="11" style="stroke: #A80036; stroke-width: 1.0;"/><path d="M98.3438,19.6719 L98.5156,19.75 C98.7344,19.4375 98.9375,19.3438 99.2344,19.3438 C99.5313,19.3438 99.8125,19.4844 99.9688,19.75 C100.0625,19.9063 100.0781,20.0313 100.0781,20.4688 L100.0781,21.8906 C100.0781,22.3125 100.0469,22.5 99.9375,22.6563 C99.7656,22.875 99.5,23.0156 99.2344,23.0156 C99.0156,23.0156 98.7813,22.9063 98.6406,22.7656 C98.5,22.6406 98.4688,22.5156 98.4063,22.1094 C98.3125,21.7031 98.1406,21.4844 97.6563,21.2031 C97.1875,20.9531 96.5781,20.7969 96,20.7969 C94.2656,20.7969 93.0156,22.1094 93.0156,23.8906 L93.0156,24.9844 C93.0156,26.6875 94.3125,27.7813 96.3594,27.7813 C97.125,27.7813 97.8125,27.6563 98.2344,27.3906 C98.4219,27.2969 98.4219,27.2969 98.875,26.8125 C99.0625,26.625 99.2656,26.5469 99.4844,26.5469 C99.9531,26.5469 100.3438,26.9375 100.3438,27.3906 C100.3438,27.7813 100.0156,28.2344 99.4375,28.6406 C98.6875,29.1875 97.5313,29.4844 96.3125,29.4844 C93.4219,29.4844 91.3125,27.5938 91.3125,25.0156 L91.3125,23.8906 C91.3125,21.1719 93.3125,19.0938 95.9375,19.0938 C96.8125,19.0938 97.4063,19.2344 98.3438,19.6719 Z "/><text fill="#000000" font-family="sans-serif" font-size="12" lengthAdjust="spacingAndGlyphs" textLength="73" x="110" y="28.1543">Parameters</text><line style="stroke: #A80036; stroke-width: 1.5;" x1="82" x2="185" y1="40" y2="40"/><text fill="#000000" font-family="sans-serif" font-size="11" lengthAdjust="spacingAndGlyphs" textLength="43" x="87" y="54.2104">@Entity</text><text fill="#000000" font-family="sans-serif" font-size="11" lengthAdjust="spacingAndGlyphs" textLength="63" x="87" y="67.0151">-int current</text><text fill="#000000" font-family="sans-serif" font-size="11" lengthAdjust="spacingAndGlyphs" textLength="46" x="87" y="79.8198">-int max</text><line style="stroke: #A80036; stroke-width: 1.5;" x1="82" x2="185" y1="86.4141" y2="86.4141"/><!--MD5=[1337a0cce0671f1bf71893bca8a76aa6]
class Machine--><rect fill="#FEFECE" filter="url(#fx20lrgz416ac)" height="265.6797" id="Machine" style="stroke: #A80036; stroke-width: 1.5;" width="196" x="35.5" y="154"/><ellipse cx="103.25" cy="170" fill="#ADD1B2" rx="11" ry="11" style="stroke: #A80036; stroke-width: 1.0;"/><path d="M105.5938,165.6719 L105.7656,165.75 C105.9844,165.4375 106.1875,165.3438 106.4844,165.3438 C106.7813,165.3438 107.0625,165.4844 107.2188,165.75 C107.3125,165.9063 107.3281,166.0313 107.3281,166.4688 L107.3281,167.8906 C107.3281,168.3125 107.2969,168.5 107.1875,168.6563 C107.0156,168.875 106.75,169.0156 106.4844,169.0156 C106.2656,169.0156 106.0313,168.9063 105.8906,168.7656 C105.75,168.6406 105.7188,168.5156 105.6563,168.1094 C105.5625,167.7031 105.3906,167.4844 104.9063,167.2031 C104.4375,166.9531 103.8281,166.7969 103.25,166.7969 C101.5156,166.7969 100.2656,168.1094 100.2656,169.8906 L100.2656,170.9844 C100.2656,172.6875 101.5625,173.7813 103.6094,173.7813 C104.375,173.7813 105.0625,173.6563 105.4844,173.3906 C105.6719,173.2969 105.6719,173.2969 106.125,172.8125 C106.3125,172.625 106.5156,172.5469 106.7344,172.5469 C107.2031,172.5469 107.5938,172.9375 107.5938,173.3906 C107.5938,173.7813 107.2656,174.2344 106.6875,174.6406 C105.9375,175.1875 104.7813,175.4844 103.5625,175.4844 C100.6719,175.4844 98.5625,173.5938 98.5625,171.0156 L98.5625,169.8906 C98.5625,167.1719 100.5625,165.0938 103.1875,165.0938 C104.0625,165.0938 104.6563,165.2344 105.5938,165.6719 Z "/><text fill="#000000" font-family="sans-serif" font-size="12" lengthAdjust="spacingAndGlyphs" textLength="52" x="123.75" y="174.1543">Machine</text><line style="stroke: #A80036; stroke-width: 1.5;" x1="36.5" x2="230.5" y1="186" y2="186"/><text fill="#000000" font-family="sans-serif" font-size="11" lengthAdjust="spacingAndGlyphs" textLength="43" x="41.5" y="200.2104">@Entity</text><text fill="#000000" font-family="sans-serif" font-size="11" lengthAdjust="spacingAndGlyphs" textLength="51" x="41.5" y="213.0151">-string id</text><text fill="#000000" font-family="sans-serif" font-size="11" lengthAdjust="spacingAndGlyphs" textLength="73" x="41.5" y="225.8198">-string name</text><text fill="#000000" font-family="sans-serif" font-size="11" lengthAdjust="spacingAndGlyphs" textLength="72" x="41.5" y="238.6245">-string token</text><text fill="#000000" font-family="sans-serif" font-size="11" lengthAdjust="spacingAndGlyphs" textLength="102" x="41.5" y="251.4292">-Parameters cpus</text><text fill="#000000" font-family="sans-serif" font-size="11" lengthAdjust="spacingAndGlyphs" textLength="103" x="41.5" y="264.2339">-Parameters gpus</text><text fill="#000000" font-family="sans-serif" font-size="11" lengthAdjust="spacingAndGlyphs" textLength="122" x="41.5" y="277.0386">-Parameters memory</text><text fill="#000000" font-family="sans-serif" font-size="11" lengthAdjust="spacingAndGlyphs" textLength="146" x="41.5" y="289.8433">-Parameters localStorage</text><text fill="#000000" font-family="sans-serif" font-size="11" lengthAdjust="spacingAndGlyphs" textLength="89" x="41.5" y="302.6479">-boolean status</text><line style="stroke: #A80036; stroke-width: 1.5;" x1="36.5" x2="230.5" y1="309.2422" y2="309.2422"/><text fill="#000000" font-family="sans-serif" font-size="11" lengthAdjust="spacingAndGlyphs" textLength="86" x="41.5" y="323.4526">+getId(): string</text><text fill="#000000" font-family="sans-serif" font-size="11" lengthAdjust="spacingAndGlyphs" textLength="109" x="41.5" y="336.2573">+getName(): string</text><text fill="#000000" font-family="sans-serif" font-size="11" lengthAdjust="spacingAndGlyphs" textLength="110" x="41.5" y="349.062">+getToken(): string</text><text fill="#000000" font-family="sans-serif" font-size="11" lengthAdjust="spacingAndGlyphs" textLength="139" x="41.5" y="361.8667">+getCpus(): Parameters</text><text fill="#000000" font-family="sans-serif" font-size="11" lengthAdjust="spacingAndGlyphs" textLength="140" x="41.5" y="374.6714">+getGpus(): Parameters</text><text fill="#000000" font-family="sans-serif" font-size="11" lengthAdjust="spacingAndGlyphs" textLength="155" x="41.5" y="387.4761">+getMemory(): Parameters</text><text fill="#000000" font-family="sans-serif" font-size="11" lengthAdjust="spacingAndGlyphs" textLength="184" x="41.5" y="400.2808">+getLocalStorage(): Parameters</text><text fill="#000000" font-family="sans-serif" font-size="11" lengthAdjust="spacingAndGlyphs" textLength="125" x="41.5" y="413.0854">+getStatus(): boolean</text><!--MD5=[fef5e966b99432cf6ec61bfec5454ae8]
class Machines--><rect fill="#FEFECE" filter="url(#fx20lrgz416ac)" height="73.6094" id="Machines" style="stroke: #A80036; stroke-width: 1.5;" width="255" x="6" y="480"/><ellipse cx="99.75" cy="496" fill="#ADD1B2" rx="11" ry="11" style="stroke: #A80036; stroke-width: 1.0;"/><path d="M102.0938,491.6719 L102.2656,491.75 C102.4844,491.4375 102.6875,491.3438 102.9844,491.3438 C103.2813,491.3438 103.5625,491.4844 103.7188,491.75 C103.8125,491.9063 103.8281,492.0313 103.8281,492.4688 L103.8281,493.8906 C103.8281,494.3125 103.7969,494.5 103.6875,494.6563 C103.5156,494.875 103.25,495.0156 102.9844,495.0156 C102.7656,495.0156 102.5313,494.9063 102.3906,494.7656 C102.25,494.6406 102.2188,494.5156 102.1563,494.1094 C102.0625,493.7031 101.8906,493.4844 101.4063,493.2031 C100.9375,492.9531 100.3281,492.7969 99.75,492.7969 C98.0156,492.7969 96.7656,494.1094 96.7656,495.8906 L96.7656,496.9844 C96.7656,498.6875 98.0625,499.7813 100.1094,499.7813 C100.875,499.7813 101.5625,499.6563 101.9844,499.3906 C102.1719,499.2969 102.1719,499.2969 102.625,498.8125 C102.8125,498.625 103.0156,498.5469 103.2344,498.5469 C103.7031,498.5469 104.0938,498.9375 104.0938,499.3906 C104.0938,499.7813 103.7656,500.2344 103.1875,500.6406 C102.4375,501.1875 101.2813,501.4844 100.0625,501.4844 C97.1719,501.4844 95.0625,499.5938 95.0625,497.0156 L95.0625,495.8906 C95.0625,493.1719 97.0625,491.0938 99.6875,491.0938 C100.5625,491.0938 101.1563,491.2344 102.0938,491.6719 Z "/><text fill="#000000" font-family="sans-serif" font-size="12" lengthAdjust="spacingAndGlyphs" textLength="59" x="120.25" y="500.1543">Machines</text><line style="stroke: #A80036; stroke-width: 1.5;" x1="7" x2="260" y1="512" y2="512"/><text fill="#000000" font-family="sans-serif" font-size="11" lengthAdjust="spacingAndGlyphs" textLength="104" x="12" y="526.2104">+string machineId</text><line style="stroke: #A80036; stroke-width: 1.5;" x1="7" x2="260" y1="532.8047" y2="532.8047"/><text fill="#000000" font-family="sans-serif" font-size="11" lengthAdjust="spacingAndGlyphs" textLength="243" x="12" y="547.0151">+getMachine(machineId : String) : Machine</text><!--MD5=[34f130cddf1e01ea575250cee5c874b2]
class MachineManager--><rect fill="#FEFECE" filter="url(#fx20lrgz416ac)" height="66.7422" id="MachineManager" style="stroke: #A80036; stroke-width: 1.5;" width="361" x="296" y="483.5"/><ellipse cx="418.75" cy="502.4688" fill="#ADD1B2" rx="11" ry="11" style="stroke: #A80036; stroke-width: 1.0;"/><path d="M421.0938,498.1406 L421.2656,498.2188 C421.4844,497.9063 421.6875,497.8125 421.9844,497.8125 C422.2813,497.8125 422.5625,497.9531 422.7188,498.2188 C422.8125,498.375 422.8281,498.5 422.8281,498.9375 L422.8281,500.3594 C422.8281,500.7813 422.7969,500.9688 422.6875,501.125 C422.5156,501.3438 422.25,501.4844 421.9844,501.4844 C421.7656,501.4844 421.5313,501.375 421.3906,501.2344 C421.25,501.1094 421.2188,500.9844 421.1563,500.5781 C421.0625,500.1719 420.8906,499.9531 420.4063,499.6719 C419.9375,499.4219 419.3281,499.2656 418.75,499.2656 C417.0156,499.2656 415.7656,500.5781 415.7656,502.3594 L415.7656,503.4531 C415.7656,505.1563 417.0625,506.25 419.1094,506.25 C419.875,506.25 420.5625,506.125 420.9844,505.8594 C421.1719,505.7656 421.1719,505.7656 421.625,505.2813 C421.8125,505.0938 422.0156,505.0156 422.2344,505.0156 C422.7031,505.0156 423.0938,505.4063 423.0938,505.8594 C423.0938,506.25 422.7656,506.7031 422.1875,507.1094 C421.4375,507.6563 420.2813,507.9531 419.0625,507.9531 C416.1719,507.9531 414.0625,506.0625 414.0625,503.4844 L414.0625,502.3594 C414.0625,499.6406 416.0625,497.5625 418.6875,497.5625 C419.5625,497.5625 420.1563,497.7031 421.0938,498.1406 Z "/><text fill="#000000" font-family="sans-serif" font-size="12" font-style="italic" lengthAdjust="spacingAndGlyphs" textLength="86" x="449.75" y="499.6387">«@Endpoint »</text><text fill="#000000" font-family="sans-serif" font-size="12" lengthAdjust="spacingAndGlyphs" textLength="107" x="439.25" y="513.6074">MachineManager</text><line style="stroke: #A80036; stroke-width: 1.5;" x1="297" x2="656" y1="521.4375" y2="521.4375"/><line style="stroke: #A80036; stroke-width: 1.5;" x1="297" x2="656" y1="529.4375" y2="529.4375"/><text fill="#000000" font-family="sans-serif" font-size="11" lengthAdjust="spacingAndGlyphs" textLength="349" x="302" y="543.6479">+/machine-manager/machines/(machineId : String) : Machine</text><rect fill="#FEFECE" filter="url(#fx20lrgz416ac)" height="37.6094" style="stroke: #A80036; stroke-width: 1.5;" width="157" x="55" y="614"/><text fill="#000000" font-family="sans-serif" font-size="12" lengthAdjust="spacingAndGlyphs" textLength="143" x="62" y="627.1387">IShowMachineHandling</text><line style="stroke: #A80036; stroke-width: 1.5;" x1="56" x2="211" y1="631.9688" y2="631.9688"/><text fill="#000000" font-family="sans-serif" font-size="10" lengthAdjust="spacingAndGlyphs" textLength="81" x="61" y="645.251">+showMachine()</text><!--MD5=[f84871b71662e077dce2e64c328eeb4a]
link Parameters to Machine--><path d="M133.5,94.105 C133.5,111.342 133.5,132.321 133.5,153.998 " fill="none" id="Parameters-Machine" style="stroke: #A80036; stroke-width: 1.0;"/><!--MD5=[d02fd2ce10f670c7ff65686215c75409]
link Machine to Machines--><path d="M133.5,420.298 C133.5,436.653 133.5,452.491 133.5,466.419 " fill="none" id="Machine-&gt;Machines" style="stroke: #A80036; stroke-width: 1.0;"/><polygon fill="#FFFFFF" points="133.5,479.659,137.5,473.659,133.5,467.659,129.5,473.659,133.5,479.659" style="stroke: #A80036; stroke-width: 1.0;"/><text fill="#000000" font-family="sans-serif" font-size="13" lengthAdjust="spacingAndGlyphs" textLength="27" x="105.8039" y="439.6365">0...*</text><text fill="#000000" font-family="sans-serif" font-size="13" lengthAdjust="spacingAndGlyphs" textLength="8" x="124.8125" y="469.0638">1</text><!--MD5=[2e897a8524fa24ca6f1cfe8748464d93]
link Machines to MachineManager--><path d="M261.12,517 C270.912,517 280.703,517 290.494,517 " fill="none" id="Machines-&gt;MachineManager" style="stroke: #A80036; stroke-width: 1.0; stroke-dasharray: 7.0,7.0;"/><polygon fill="#A80036" points="295.615,517,286.615,513,290.615,517,286.615,521,295.615,517" style="stroke: #A80036; stroke-width: 1.0;"/><!--MD5=[d55751418fd5a8dd885627b56a7c816f]
link Machines to IShowMachineHandling--><path d="M133.5,554.0703 C133.5,572.0038 133.5,593.1472 133.5,608.8827 " fill="none" id="Machines-&gt;IShowMachineHandling" style="stroke: #A80036; stroke-width: 1.0; stroke-dasharray: 7.0,7.0;"/><polygon fill="#A80036" points="133.5,613.9993,137.5,604.9993,133.5,608.9993,129.5,604.9993,133.5,613.9993" style="stroke: #A80036; stroke-width: 1.0;"/><!--MD5=[fe82bec88dadb0c5ef0ff6a1fd35382d]
@startuml
Parameters - - Machine
Machine "0...*" - -o "1" Machines
Machines .> MachineManager
Machines ..> IShowMachineHandling
skinparam classAttributeIconSize 0
class Parameters {
  @Entity
- int current
- int max
}
class Machine {
  @Entity
- string id
- string name
- string token
- Parameters cpus
- Parameters gpus
- Parameters memory
- Parameters localStorage
- boolean status
+ getId(): string
+ getName(): string
+ getToken(): string
+ getCpus(): Parameters
+ getGpus(): Parameters
+ getMemory(): Parameters
+ getLocalStorage(): Parameters
+ getStatus(): boolean
}
class Machines {
+ string machineId
+ getMachine(machineId : String) : Machine
}
class MachineManager << @Endpoint  >> {
+ /machine-manager/machines/(machineId : String) : Machine
}
object IShowMachineHandling {
 + showMachine() 
}
@enduml

PlantUML version 1.2019.12(Sun Nov 03 10:24:54 UTC 2019)
(GPL source distribution)
Java Runtime: Java(TM) SE Runtime Environment
JVM: Java HotSpot(TM) 64-Bit Server VM
Java Version: 1.7.0_25-b15
Operating System: Linux
Default Encoding: UTF-8
Language: en
Country: US
--></g></svg>